mBrush_body.ufo
<glyph name="quotedbl" format="1">
  <advance width="274"/>
  <unicode hex="0022"/>
  <outline>
    <contour>
      <point x="118" y="748" type="curve" smooth="yes"/>
      <point x="117" y="698"/>
      <point x="120" y="636"/>
      <point x="123" y="611" type="curve" smooth="yes"/>
      <point x="124" y="598"/>
      <point x="115" y="586"/>
      <point x="102" y="584" type="curve" smooth="yes"/>
      <point x="89" y="583"/>
      <point x="77" y="592"/>
      <point x="75" y="605" type="curve" smooth="yes"/>
      <point x="72" y="632"/>
      <point x="69" y="696"/>
      <point x="70" y="748" type="curve" smooth="yes"/>
      <point x="70" y="761"/>
      <point x="82" y="772"/>
      <point x="94" y="772" type="curve" smooth="yes"/>
      <point x="107" y="772"/>
      <point x="118" y="760"/>
    </contour>
    <contour>
      <point x="202" y="748" type="curve" smooth="yes"/>
      <point x="197" y="712"/>
      <point x="198" y="630"/>
      <point x="205" y="608" type="curve" smooth="yes"/>
      <point x="209" y="595"/>
      <point x="201" y="582"/>
      <point x="189" y="578" type="curve" smooth="yes"/>
      <point x="176" y="574"/>
      <point x="163" y="582"/>
      <point x="159" y="594" type="curve" smooth="yes"/>
      <point x="152" y="620"/>
      <point x="149" y="714"/>
      <point x="154" y="754" type="curve" smooth="yes"/>
      <point x="156" y="767"/>
      <point x="168" y="776"/>
      <point x="181" y="775" type="curve" smooth="yes"/>
      <point x="194" y="773"/>
      <point x="203" y="761"/>
    </contour>
  </outline>
</glyph>
<glyph name="numbersign" format="1">
  <advance width="500"/>
  <unicode hex="0023"/>
  <outline>
    <contour>
      <point x="245" y="586" type="curve" smooth="yes"/>
      <point x="228" y="549"/>
      <point x="201" y="213"/>
      <point x="197" y="169" type="curve" smooth="yes"/>
      <point x="196" y="156"/>
      <point x="184" y="146"/>
      <point x="171" y="147" type="curve" smooth="yes"/>
      <point x="158" y="148"/>
      <point x="148" y="160"/>
      <point x="149" y="173" type="curve" smooth="yes"/>
      <point x="153" y="219"/>
      <point x="184" y="567"/>
      <point x="201" y="606" type="curve" smooth="yes"/>
      <point x="206" y="618"/>
      <point x="221" y="623"/>
      <point x="233" y="618" type="curve" smooth="yes"/>
      <point x="245" y="613"/>
      <point x="250" y="598"/>
    </contour>
    <contour>
      <point x="365" y="592" type="curve" smooth="yes"/>
      <point x="350" y="545"/>
      <point x="322" y="209"/>
      <point x="322" y="162" type="curve" smooth="yes"/>
      <point x="322" y="149"/>
      <point x="311" y="138"/>
      <point x="298" y="138" type="curve" smooth="yes"/>
      <point x="285" y="138"/>
      <point x="274" y="149"/>
      <point x="274" y="162" type="curve" smooth="yes"/>
      <point x="274" y="211"/>
      <point x="304" y="557"/>
      <point x="319" y="606" type="curve" smooth="yes"/>
      <point x="323" y="619"/>
      <point x="337" y="626"/>
      <point x="349" y="622" type="curve" smooth="yes"/>
      <point x="362" y="618"/>
      <point x="369" y="604"/>
    </contour>
    <contour>
      <point x="90" y="488" type="curve" smooth="yes"/>
      <point x="144" y="479"/>
      <point x="353" y="469"/>
      <point x="413" y="484" type="curve" smooth="yes"/>
      <point x="426" y="487"/>
      <point x="439" y="480"/>
      <point x="442" y="467" type="curve" smooth="yes"/>
      <point x="445" y="454"/>
      <point x="438" y="441"/>
      <point x="425" y="438" type="curve" smooth="yes"/>
      <point x="361" y="421"/>
      <point x="140" y="431"/>
      <point x="82" y="440" type="curve" smooth="yes"/>
      <point x="69" y="442"/>
      <point x="60" y="455"/>
      <point x="62" y="468" type="curve" smooth="yes"/>
      <point x="64" y="481"/>
      <point x="77" y="490"/>
    </contour>
    <contour>
      <point x="75" y="340" type="curve" smooth="yes"/>
      <point x="127" y="334"/>
      <point x="358" y="314"/>
      <point x="403" y="347" type="curve" smooth="yes"/>
      <point x="413" y="355"/>
      <point x="429" y="353"/>
      <point x="436" y="342" type="curve" smooth="yes"/>
      <point x="444" y="332"/>
      <point x="442" y="316"/>
      <point x="431" y="309" type="curve" smooth="yes"/>
      <point x="382" y="272"/>
      <point x="129" y="286"/>
      <point x="69" y="292" type="curve" smooth="yes"/>
      <point x="57" y="294"/>
      <point x="47" y="306"/>
      <point x="48" y="319" type="curve" smooth="yes"/>
      <point x="50" y="331"/>
      <point x="62" y="341"/>
    </contour>
  </outline>
</glyph>
<glyph name="dollar" format="1">
  <advance width="500"/>
  <unicode hex="0024"/>
  <outline>
    <contour>
      <point x="386" y="555" type="curve" smooth="yes"/>
      <point x="379" y="604"/>
      <point x="331" y="655"/>
      <point x="257" y="654" type="curve" smooth="yes"/>
      <point x="191" y="653"/>
      <point x="90" y="591"/>
      <point x="118" y="512" type="curve" smooth="yes"/>
      <point x="148" y="422"/>
      <point x="399" y="355"/>
      <point x="436" y="276" type="curve" smooth="yes"/>
      <point x="474" y="195"/>
      <point x="438" y="38"/>
      <point x="266" y="40" type="curve" smooth="yes"/>
      <point x="100" y="42"/>
      <point x="69" y="129"/>
      <point x="55" y="208" type="curve" smooth="yes"/>
      <point x="53" y="221"/>
      <point x="62" y="233"/>
      <point x="75" y="236" type="curve" smooth="yes"/>
      <point x="88" y="238"/>
      <point x="100" y="229"/>
      <point x="103" y="216" type="curve" smooth="yes"/>
      <point x="113" y="155"/>
      <point x="140" y="90"/>
      <point x="266" y="88" type="curve" smooth="yes"/>
      <point x="386" y="86"/>
      <point x="420" y="195"/>
      <point x="392" y="256" type="curve" smooth="yes"/>
      <point x="355" y="335"/>
      <point x="104" y="406"/>
      <point x="72" y="496" type="curve" smooth="yes"/>
      <point x="36" y="601"/>
      <point x="157" y="701"/>
      <point x="257" y="702" type="curve" smooth="yes"/>
      <point x="361" y="703"/>
      <point x="423" y="630"/>
      <point x="434" y="563" type="curve" smooth="yes"/>
      <point x="436" y="550"/>
      <point x="426" y="537"/>
      <point x="414" y="535" type="curve" smooth="yes"/>
      <point x="401" y="533"/>
      <point x="388" y="543"/>
    </contour>
    <contour>
      <point x="283" y="760" type="curve" smooth="yes"/>
      <point x="283" y="710"/>
      <point x="312" y="23"/>
      <point x="289" y="-16" type="curve" smooth="yes"/>
      <point x="282" y="-27"/>
      <point x="267" y="-31"/>
      <point x="256" y="-25" type="curve" smooth="yes"/>
      <point x="245" y="-18"/>
      <point x="241" y="-3"/>
      <point x="247" y="8" type="curve" smooth="yes"/>
      <point x="270" y="47"/>
      <point x="235" y="712"/>
      <point x="235" y="760" type="curve" smooth="yes"/>
      <point x="235" y="773"/>
      <point x="246" y="784"/>
      <point x="259" y="784" type="curve" smooth="yes"/>
      <point x="272" y="784"/>
      <point x="283" y="773"/>
    </contour>
  </outline>
</glyph>
<glyph name="percent" format="1">
  <advance width="500"/>
  <unicode hex="0025"/>
  <outline>
    <contour>
      <point x="121" y="568" type="curve" smooth="yes"/>
      <point x="105" y="567"/>
      <point x="80" y="547"/>
      <point x="80" y="532" type="curve" smooth="yes"/>
      <point x="80" y="517"/>
      <point x="105" y="489"/>
      <point x="121" y="489" type="curve" smooth="yes"/>
      <point x="139" y="489"/>
      <point x="152" y="520"/>
      <point x="156" y="538" type="curve" smooth="yes"/>
      <point x="161" y="554"/>
      <point x="133" y="569"/>
    </contour>
    <contour>
      <point x="420" y="321" type="curve" smooth="yes"/>
      <point x="418" y="337"/>
      <point x="397" y="361"/>
      <point x="382" y="360" type="curve" smooth="yes"/>
      <point x="367" y="359"/>
      <point x="340" y="333"/>
      <point x="341" y="317" type="curve" smooth="yes"/>
      <point x="342" y="299"/>
      <point x="374" y="288"/>
      <point x="391" y="284" type="curve" smooth="yes"/>
      <point x="408" y="281"/>
      <point x="422" y="309"/>
    </contour>
    <contour>
      <point x="425" y="637" type="curve" smooth="yes"/>
      <point x="400" y="601"/>
      <point x="159" y="249"/>
      <point x="130" y="165" type="curve" smooth="yes"/>
      <point x="125" y="153"/>
      <point x="111" y="146"/>
      <point x="99" y="150" type="curve" smooth="yes"/>
      <point x="87" y="155"/>
      <point x="80" y="169"/>
      <point x="84" y="181" type="curve" smooth="yes"/>
      <point x="115" y="267"/>
      <point x="360" y="629"/>
      <point x="387" y="665" type="curve" smooth="yes"/>
      <point x="394" y="676"/>
      <point x="410" y="678"/>
      <point x="420" y="670" type="curve" smooth="yes"/>
      <point x="431" y="663"/>
      <point x="433" y="647"/>
    </contour>
    <contour>
      <point x="117" y="616" type="curve" smooth="yes"/>
      <point x="157" y="619"/>
      <point x="213" y="564"/>
      <point x="202" y="524" type="curve" smooth="yes"/>
      <point x="192" y="486"/>
      <point x="153" y="441"/>
      <point x="121" y="441" type="curve" smooth="yes"/>
      <point x="87" y="441"/>
      <point x="32" y="499"/>
      <point x="32" y="532" type="curve" smooth="yes"/>
      <point x="32" y="565"/>
      <point x="81" y="613"/>
    </contour>
    <contour>
      <point x="468" y="327" type="curve" smooth="yes"/>
      <point x="472" y="287"/>
      <point x="420" y="229"/>
      <point x="381" y="238" type="curve" smooth="yes"/>
      <point x="342" y="246"/>
      <point x="294" y="283"/>
      <point x="293" y="315" type="curve" smooth="yes"/>
      <point x="292" y="349"/>
      <point x="347" y="407"/>
      <point x="380" y="408" type="curve" smooth="yes"/>
      <point x="413" y="409"/>
      <point x="464" y="363"/>
    </contour>
  </outline>
</glyph>
<glyph name="ampersand" format="1">
  <advance width="519.0"/>
  <unicode hex="0026"/>
  <outline>
    <contour>
      <point x="470" y="-17" type="curve" smooth="yes"/>
      <point x="330" y="95"/>
      <point x="118" y="452"/>
      <point x="62" y="546" type="curve" smooth="yes"/>
      <point x="5" y="642"/>
      <point x="48" y="767"/>
      <point x="156" y="774" type="curve" smooth="yes"/>
      <point x="300" y="783"/>
      <point x="325" y="633"/>
      <point x="280" y="569" type="curve" smooth="yes"/>
      <point x="243" y="518"/>
      <point x="67" y="327"/>
      <point x="73" y="204" type="curve" smooth="yes"/>
      <point x="74" y="55"/>
      <point x="144" y="12"/>
      <point x="218" y="20" type="curve" smooth="yes"/>
      <point x="267" y="24"/>
      <point x="512" y="102"/>
      <point x="365" y="393" type="curve" smooth="yes"/>
      <point x="359" y="405"/>
      <point x="364" y="420"/>
      <point x="375" y="425" type="curve" smooth="yes"/>
      <point x="387" y="431"/>
      <point x="402" y="426"/>
      <point x="407" y="415" type="curve" smooth="yes"/>
      <point x="592" y="50"/>
      <point x="279" y="-24"/>
      <point x="224" y="-28" type="curve" smooth="yes"/>
      <point x="130" y="-38"/>
      <point x="26" y="-3"/>
      <point x="25" y="202" type="curve" smooth="yes"/>
      <point x="19" y="333"/>
      <point x="201" y="542"/>
      <point x="240" y="597" type="curve" smooth="yes"/>
      <point x="271" y="639"/>
      <point x="246" y="731"/>
      <point x="160" y="726" type="curve" smooth="yes"/>
      <point x="82" y="721"/>
      <point x="69" y="628"/>
      <point x="104" y="570" type="curve" smooth="yes"/>
      <point x="158" y="478"/>
      <point x="364" y="129"/>
      <point x="500" y="21" type="curve" smooth="yes"/>
      <point x="510" y="13"/>
      <point x="512" y="-3"/>
      <point x="504" y="-13" type="curve" smooth="yes"/>
      <point x="496" y="-23"/>
      <point x="480" y="-25"/>
    </contour>
  </outline>
</glyph>
<glyph name="parenleft" format="1">
  <advance width="218"/>
  <unicode hex="0028"/>
  <outline>
    <contour>
      <point x="172" y="765" type="curve" smooth="yes"/>
      <point x="55" y="508"/>
      <point x="70" y="126"/>
      <point x="165" y="-12" type="curve" smooth="yes"/>
      <point x="172" y="-23"/>
      <point x="169" y="-38"/>
      <point x="159" y="-46" type="curve" smooth="yes"/>
      <point x="148" y="-53"/>
      <point x="133" y="-50"/>
      <point x="125" y="-40" type="curve" smooth="yes"/>
      <point x="24" y="108"/>
      <point x="3" y="510"/>
      <point x="128" y="785" type="curve" smooth="yes"/>
      <point x="134" y="797"/>
      <point x="148" y="802"/>
      <point x="160" y="797" type="curve" smooth="yes"/>
      <point x="172" y="791"/>
      <point x="177" y="777"/>
    </contour>
  </outline>
</glyph>
<glyph name="parenright" format="1">
  <advance width="218"/>
  <unicode hex="0029"/>
  <outline>
    <contour>
      <point x="50" y="-12" type="curve" smooth="yes"/>
      <point x="145" y="126"/>
      <point x="160" y="508"/>
      <point x="43" y="765" type="curve" smooth="yes"/>
      <point x="38" y="777"/>
      <point x="43" y="791"/>
      <point x="55" y="797" type="curve" smooth="yes"/>
      <point x="67" y="802"/>
      <point x="81" y="797"/>
      <point x="87" y="785" type="curve" smooth="yes"/>
      <point x="212" y="510"/>
      <point x="191" y="108"/>
      <point x="90" y="-40" type="curve" smooth="yes"/>
      <point x="82" y="-50"/>
      <point x="67" y="-53"/>
      <point x="56" y="-46" type="curve" smooth="yes"/>
      <point x="46" y="-38"/>
      <point x="43" y="-23"/>
    </contour>
  </outline>
</glyph>
<glyph name="asterisk" format="1">
  <advance width="412"/>
  <unicode hex="002A"/>
  <outline>
    <contour>
      <point x="98" y="750" type="curve" smooth="yes"/>
      <point x="127" y="738"/>
      <point x="306" y="547"/>
      <point x="317" y="507" type="curve" smooth="yes"/>
      <point x="321" y="495"/>
      <point x="313" y="481"/>
      <point x="300" y="478" type="curve" smooth="yes"/>
      <point x="288" y="474"/>
      <point x="274" y="482"/>
      <point x="271" y="495" type="curve" smooth="yes"/>
      <point x="262" y="529"/>
      <point x="105" y="696"/>
      <point x="80" y="706" type="curve" smooth="yes"/>
      <point x="68" y="711"/>
      <point x="62" y="725"/>
      <point x="67" y="737" type="curve" smooth="yes"/>
      <point x="72" y="749"/>
      <point x="86" y="755"/>
    </contour>
    <contour>
      <point x="332" y="722" type="curve" smooth="yes"/>
      <point x="308" y="710"/>
      <point x="128" y="511"/>
      <point x="105" y="480" type="curve" smooth="yes"/>
      <point x="97" y="469"/>
      <point x="82" y="467"/>
      <point x="72" y="475" type="curve" smooth="yes"/>
      <point x="61" y="483"/>
      <point x="59" y="498"/>
      <point x="67" y="508" type="curve" smooth="yes"/>
      <point x="92" y="541"/>
      <point x="286" y="752"/>
      <point x="310" y="764" type="curve" smooth="yes"/>
      <point x="322" y="770"/>
      <point x="337" y="765"/>
      <point x="342" y="754" type="curve" smooth="yes"/>
      <point x="348" y="742"/>
      <point x="343" y="727"/>
    </contour>
    <contour>
      <point x="218" y="761" type="curve" smooth="yes"/>
      <point x="221" y="734"/>
      <point x="231" y="493"/>
      <point x="221" y="460" type="curve" smooth="yes"/>
      <point x="217" y="447"/>
      <point x="203" y="440"/>
      <point x="191" y="444" type="curve" smooth="yes"/>
      <point x="178" y="448"/>
      <point x="171" y="462"/>
      <point x="175" y="474" type="curve" smooth="yes"/>
      <point x="185" y="505"/>
      <point x="173" y="730"/>
      <point x="170" y="755" type="curve" smooth="yes"/>
      <point x="169" y="768"/>
      <point x="178" y="780"/>
      <point x="191" y="782" type="curve" smooth="yes"/>
      <point x="204" y="783"/>
      <point x="216" y="774"/>
    </contour>
    <contour>
      <point x="69" y="660" type="curve" smooth="yes"/>
      <point x="105" y="653"/>
      <point x="311" y="643"/>
      <point x="344" y="656" type="curve" smooth="yes"/>
      <point x="356" y="661"/>
      <point x="370" y="655"/>
      <point x="375" y="643" type="curve" smooth="yes"/>
      <point x="380" y="631"/>
      <point x="374" y="617"/>
      <point x="362" y="612" type="curve" smooth="yes"/>
      <point x="327" y="597"/>
      <point x="101" y="605"/>
      <point x="61" y="612" type="curve" smooth="yes"/>
      <point x="48" y="615"/>
      <point x="39" y="628"/>
      <point x="41" y="640" type="curve" smooth="yes"/>
      <point x="44" y="653"/>
      <point x="57" y="662"/>
    </contour>
  </outline>
</glyph>
<glyph name="comma" format="1">
  <advance width="174"/>
  <unicode hex="002C"/>
  <outline>
    <contour>
      <point x="109" y="59" type="curve" smooth="yes"/>
      <point x="121" y="41"/>
      <point x="142" y="-14"/>
      <point x="112" y="-65" type="curve" smooth="yes"/>
      <point x="105" y="-76"/>
      <point x="90" y="-80"/>
      <point x="79" y="-74" type="curve" smooth="yes"/>
      <point x="68" y="-67"/>
      <point x="64" y="-52"/>
      <point x="70" y="-41" type="curve" smooth="yes"/>
      <point x="88" y="-12"/>
      <point x="77" y="21"/>
      <point x="69" y="31" type="curve" smooth="yes"/>
      <point x="62" y="42"/>
      <point x="65" y="57"/>
      <point x="75" y="65" type="curve" smooth="yes"/>
      <point x="86" y="72"/>
      <point x="101" y="69"/>
    </contour>
  </outline>
</glyph>
<glyph name="hyphen" format="1">
  <advance width="500"/>
  <unicode hex="002D"/>
  <outline>
    <contour>
      <point x="76" y="334" type="curve" smooth="yes"/>
      <point x="178" y="352"/>
      <point x="317" y="357"/>
      <point x="411" y="331" type="curve" smooth="yes"/>
      <point x="424" y="328"/>
      <point x="432" y="314"/>
      <point x="428" y="302" type="curve" smooth="yes"/>
      <point x="425" y="289"/>
      <point x="411" y="281"/>
      <point x="399" y="285" type="curve" smooth="yes"/>
      <point x="311" y="309"/>
      <point x="180" y="304"/>
      <point x="84" y="286" type="curve" smooth="yes"/>
      <point x="72" y="284"/>
      <point x="59" y="293"/>
      <point x="56" y="306" type="curve" smooth="yes"/>
      <point x="54" y="318"/>
      <point x="63" y="331"/>
    </contour>
  </outline>
</glyph>
<glyph name="period" format="1">
  <advance width="160"/>
  <unicode hex="002E"/>
  <outline>
    <contour>
      <point x="89" y="80" type="curve"/>
      <point x="89" y="80" type="line"/>
      <point x="76" y="78"/>
      <point x="67" y="65"/>
      <point x="65" y="53" type="curve"/>
      <point x="65" y="57" type="line"/>
      <point x="64" y="46"/>
      <point x="83" y="41"/>
      <point x="93" y="41" type="curve" smooth="yes"/>
      <point x="105" y="41"/>
      <point x="107" y="56"/>
      <point x="106" y="62" type="curve"/>
      <point x="103" y="67"/>
      <point x="101" y="82"/>
    </contour>
    <contour>
      <point x="81" y="128" type="line" smooth="yes"/>
      <point x="115" y="134"/>
      <point x="141" y="105"/>
      <point x="150" y="78" type="curve"/>
      <point x="161" y="46"/>
      <point x="133" y="-9"/>
      <point x="91" y="-7" type="curve" smooth="yes"/>
      <point x="49" y="-5"/>
      <point x="16" y="30"/>
      <point x="17" y="59" type="curve" smooth="yes"/>
      <point x="17" y="60"/>
      <point x="17" y="62"/>
      <point x="17" y="63" type="curve" smooth="yes"/>
      <point x="23" y="91"/>
      <point x="50" y="122"/>
      <point x="81" y="128" type="curve" smooth="yes"/>
    </contour>
  </outline>
</glyph>
<glyph name="slash" format="1">
  <advance width="390"/>
  <unicode hex="002F"/>
  <outline>
    <contour>
      <point x="357" y="700" type="curve" smooth="yes"/>
      <point x="322" y="673"/>
      <point x="85" y="56"/>
      <point x="66" y="-2" type="curve" smooth="yes"/>
      <point x="62" y="-14"/>
      <point x="48" y="-21"/>
      <point x="35" y="-17" type="curve" smooth="yes"/>
      <point x="23" y="-13"/>
      <point x="16" y="1"/>
      <point x="20" y="14" type="curve" smooth="yes"/>
      <point x="41" y="74"/>
      <point x="292" y="711"/>
      <point x="327" y="738" type="curve" smooth="yes"/>
      <point x="338" y="746"/>
      <point x="353" y="744"/>
      <point x="361" y="734" type="curve" smooth="yes"/>
      <point x="369" y="723"/>
      <point x="367" y="708"/>
    </contour>
  </outline>
</glyph>
<glyph name="zero" format="1">
  <advance width="647"/>
  <unicode hex="0030"/>
  <outline>
    <contour>
      <point x="305" y="724" type="curve" smooth="yes"/>
      <point x="305" y="724" type="line" smooth="yes"/>
      <point x="170" y="718"/>
      <point x="67" y="539"/>
      <point x="68" y="390" type="curve" smooth="yes"/>
      <point x="69" y="231"/>
      <point x="139" y="34"/>
      <point x="325" y="25" type="curve" smooth="yes"/>
      <point x="484" y="17"/>
      <point x="579" y="242"/>
      <point x="579" y="379" type="curve" smooth="yes"/>
      <point x="579" y="579"/>
      <point x="435" y="730"/>
    </contour>
    <contour>
      <point x="303" y="772" type="line"/>
      <point x="451" y="778"/>
      <point x="627" y="617"/>
      <point x="627" y="379" type="curve" smooth="yes"/>
      <point x="627" y="214"/>
      <point x="502" y="-33"/>
      <point x="323" y="-23" type="curve" smooth="yes"/>
      <point x="113" y="-12"/>
      <point x="21" y="203"/>
      <point x="20" y="390" type="curve" smooth="yes"/>
      <point x="19" y="567"/>
      <point x="148" y="766"/>
      <point x="303" y="772" type="curve"/>
    </contour>
    <contour>
      <point x="410" y="500" type="curve" smooth="yes"/>
      <point x="396" y="466"/>
      <point x="302" y="239"/>
      <point x="302" y="202" type="curve" smooth="yes"/>
      <point x="302" y="189"/>
      <point x="291" y="178"/>
      <point x="278" y="178" type="curve" smooth="yes"/>
      <point x="265" y="178"/>
      <point x="254" y="189"/>
      <point x="254" y="202" type="curve" smooth="yes"/>
      <point x="254" y="241"/>
      <point x="352" y="484"/>
      <point x="366" y="518" type="curve" smooth="yes"/>
      <point x="371" y="530"/>
      <point x="385" y="536"/>
      <point x="397" y="531" type="curve" smooth="yes"/>
      <point x="409" y="526"/>
      <point x="415" y="512"/>
    </contour>
  </outline>
</glyph>
<glyph name="two" format="1">
  <advance width="574"/>
  <unicode hex="0032"/>
  <outline>
    <contour>
      <point x="67" y="656" type="curve" smooth="yes"/>
      <point x="99" y="705"/>
      <point x="214" y="771"/>
      <point x="292" y="771" type="curve" smooth="yes"/>
      <point x="372" y="771"/>
      <point x="499" y="719"/>
      <point x="506" y="556" type="curve" smooth="yes"/>
      <point x="509" y="483"/>
      <point x="457" y="403"/>
      <point x="317" y="275" type="curve" smooth="yes"/>
      <point x="134" y="108"/>
      <point x="85" y="36"/>
      <point x="91" y="9" type="curve"/>
      <point x="60" y="26" type="line"/>
      <point x="60" y="26"/>
      <point x="172" y="67"/>
      <point x="300" y="70" type="curve" smooth="yes"/>
      <point x="395" y="72"/>
      <point x="515" y="63"/>
      <point x="549" y="33" type="curve" smooth="yes"/>
      <point x="559" y="25"/>
      <point x="560" y="9"/>
      <point x="551" y="-1" type="curve" smooth="yes"/>
      <point x="543" y="-11"/>
      <point x="527" y="-12"/>
      <point x="517" y="-3" type="curve" smooth="yes"/>
      <point x="487" y="23"/>
      <point x="381" y="24"/>
      <point x="302" y="22" type="curve" smooth="yes"/>
      <point x="182" y="19"/>
      <point x="76" y="-20"/>
      <point x="76" y="-20" type="curve" smooth="yes"/>
      <point x="62" y="-25"/>
      <point x="48" y="-17"/>
      <point x="45" y="-3" type="curve" smooth="yes"/>
      <point x="37" y="28"/>
      <point x="64" y="110"/>
      <point x="285" y="311" type="curve" smooth="yes"/>
      <point x="405" y="421"/>
      <point x="461" y="489"/>
      <point x="458" y="554" type="curve" smooth="yes"/>
      <point x="453" y="681"/>
      <point x="354" y="723"/>
      <point x="292" y="723" type="curve" smooth="yes"/>
      <point x="228" y="723"/>
      <point x="133" y="671"/>
      <point x="107" y="630" type="curve" smooth="yes"/>
      <point x="100" y="619"/>
      <point x="85" y="616"/>
      <point x="74" y="623" type="curve" smooth="yes"/>
      <point x="63" y="630"/>
      <point x="60" y="645"/>
    </contour>
  </outline>
</glyph>
<glyph name="three" format="1">
  <advance width="644"/>
  <unicode hex="0033"/>
  <outline>
    <contour>
      <point x="62" y="759" type="curve" smooth="yes"/>
      <point x="116" y="757"/>
      <point x="491" y="750"/>
      <point x="545" y="759" type="curve" smooth="yes"/>
      <point x="580" y="764"/>
      <point x="592" y="738"/>
      <point x="564" y="716" type="curve" smooth="yes"/>
      <point x="564" y="716"/>
      <point x="241" y="470"/>
      <point x="223" y="435" type="curve"/>
      <point x="198" y="470" type="line"/>
      <point x="199" y="470"/>
      <point x="550" y="516"/>
      <point x="618" y="297" type="curve" smooth="yes"/>
      <point x="677" y="106"/>
      <point x="470" y="-32"/>
      <point x="315" y="-31" type="curve" smooth="yes"/>
      <point x="162" y="-30"/>
      <point x="69" y="84"/>
      <point x="50" y="142" type="curve" smooth="yes"/>
      <point x="46" y="154"/>
      <point x="53" y="168"/>
      <point x="66" y="172" type="curve" smooth="yes"/>
      <point x="78" y="176"/>
      <point x="92" y="169"/>
      <point x="96" y="156" type="curve" smooth="yes"/>
      <point x="111" y="108"/>
      <point x="190" y="18"/>
      <point x="315" y="17" type="curve" smooth="yes"/>
      <point x="438" y="16"/>
      <point x="623" y="120"/>
      <point x="572" y="283" type="curve" smooth="yes"/>
      <point x="512" y="476"/>
      <point x="206" y="422"/>
      <point x="206" y="422" type="curve" smooth="yes"/>
      <point x="180" y="418"/>
      <point x="169" y="434"/>
      <point x="181" y="457" type="curve" smooth="yes"/>
      <point x="199" y="494"/>
      <point x="534" y="754"/>
      <point x="534" y="754" type="curve"/>
      <point x="553" y="711" type="line"/>
      <point x="497" y="702"/>
      <point x="116" y="709"/>
      <point x="60" y="711" type="curve" smooth="yes"/>
      <point x="47" y="711"/>
      <point x="37" y="723"/>
      <point x="37" y="736" type="curve" smooth="yes"/>
      <point x="37" y="749"/>
      <point x="49" y="759"/>
    </contour>
  </outline>
</glyph>
<glyph name="four" format="1">
  <advance width="573"/>
  <unicode hex="0034"/>
  <outline>
    <contour>
      <point x="315" y="734" type="curve" smooth="yes"/>
      <point x="315" y="734"/>
      <point x="77" y="427"/>
      <point x="77" y="371" type="curve"/>
      <point x="52" y="395" type="line"/>
      <point x="52" y="395"/>
      <point x="463" y="417"/>
      <point x="535" y="386" type="curve" smooth="yes"/>
      <point x="547" y="381"/>
      <point x="553" y="367"/>
      <point x="548" y="355" type="curve" smooth="yes"/>
      <point x="543" y="343"/>
      <point x="529" y="337"/>
      <point x="517" y="342" type="curve" smooth="yes"/>
      <point x="447" y="371"/>
      <point x="54" y="347"/>
      <point x="54" y="347" type="curve" smooth="yes"/>
      <point x="40" y="346"/>
      <point x="29" y="357"/>
      <point x="29" y="371" type="curve" smooth="yes"/>
      <point x="29" y="431"/>
      <point x="277" y="763"/>
      <point x="277" y="764" type="curve" smooth="yes"/>
      <point x="285" y="774"/>
      <point x="300" y="776"/>
      <point x="311" y="768" type="curve" smooth="yes"/>
      <point x="321" y="760"/>
      <point x="323" y="745"/>
    </contour>
    <contour>
      <point x="384" y="604" type="curve" smooth="yes"/>
      <point x="389" y="542"/>
      <point x="380" y="67"/>
      <point x="372" y="12" type="curve" smooth="yes"/>
      <point x="370" y="-1"/>
      <point x="357" y="-11"/>
      <point x="345" y="-9" type="curve" smooth="yes"/>
      <point x="332" y="-7"/>
      <point x="322" y="6"/>
      <point x="324" y="18" type="curve" smooth="yes"/>
      <point x="332" y="73"/>
      <point x="341" y="540"/>
      <point x="336" y="600" type="curve" smooth="yes"/>
      <point x="335" y="613"/>
      <point x="345" y="625"/>
      <point x="358" y="626" type="curve" smooth="yes"/>
      <point x="371" y="627"/>
      <point x="383" y="617"/>
    </contour>
  </outline>
</glyph>
<glyph name="five" format="1">
  <advance width="704"/>
  <unicode hex="0035"/>
  <outline>
    <contour>
      <point x="108" y="742" type="curve" smooth="yes"/>
      <point x="172" y="733"/>
      <point x="269" y="723"/>
      <point x="332" y="719" type="curve" smooth="yes"/>
      <point x="389" y="715"/>
      <point x="548" y="715"/>
      <point x="615" y="732" type="curve" smooth="yes"/>
      <point x="627" y="735"/>
      <point x="641" y="728"/>
      <point x="644" y="715" type="curve" smooth="yes"/>
      <point x="647" y="703"/>
      <point x="640" y="689"/>
      <point x="627" y="686" type="curve" smooth="yes"/>
      <point x="556" y="667"/>
      <point x="389" y="667"/>
      <point x="328" y="671" type="curve" smooth="yes"/>
      <point x="265" y="675"/>
      <point x="166" y="685"/>
      <point x="102" y="694" type="curve" smooth="yes"/>
      <point x="89" y="696"/>
      <point x="79" y="709"/>
      <point x="81" y="721" type="curve" smooth="yes"/>
      <point x="83" y="734"/>
      <point x="96" y="744"/>
    </contour>
    <contour>
      <point x="196" y="707" type="curve" smooth="yes"/>
      <point x="192" y="660"/>
      <point x="171" y="451"/>
      <point x="168" y="420" type="curve"/>
      <point x="138" y="445" type="line"/>
      <point x="256" y="475"/>
      <point x="339" y="461"/>
      <point x="377" y="458" type="curve" smooth="yes"/>
      <point x="588" y="442"/>
      <point x="682" y="330"/>
      <point x="670" y="177" type="curve" smooth="yes"/>
      <point x="659" y="39"/>
      <point x="472" y="-24"/>
      <point x="371" y="-24" type="curve" smooth="yes"/>
      <point x="242" y="-24"/>
      <point x="84" y="61"/>
      <point x="48" y="133" type="curve" smooth="yes"/>
      <point x="42" y="145"/>
      <point x="47" y="160"/>
      <point x="58" y="165" type="curve" smooth="yes"/>
      <point x="70" y="171"/>
      <point x="85" y="166"/>
      <point x="90" y="155" type="curve" smooth="yes"/>
      <point x="122" y="93"/>
      <point x="262" y="24"/>
      <point x="371" y="24" type="curve" smooth="yes"/>
      <point x="450" y="24"/>
      <point x="613" y="65"/>
      <point x="622" y="181" type="curve" smooth="yes"/>
      <point x="632" y="310"/>
      <point x="540" y="398"/>
      <point x="373" y="410" type="curve" smooth="yes"/>
      <point x="337" y="413"/>
      <point x="260" y="427"/>
      <point x="150" y="399" type="curve" smooth="yes"/>
      <point x="132" y="394"/>
      <point x="118" y="406"/>
      <point x="120" y="424" type="curve" smooth="yes"/>
      <point x="123" y="455"/>
      <point x="144" y="664"/>
      <point x="148" y="711" type="curve" smooth="yes"/>
      <point x="149" y="724"/>
      <point x="161" y="734"/>
      <point x="174" y="733" type="curve" smooth="yes"/>
      <point x="187" y="732"/>
      <point x="197" y="720"/>
    </contour>
  </outline>
</glyph>
<glyph name="six" format="1">
  <advance width="557"/>
  <unicode hex="0036"/>
  <outline>
    <contour>
      <point x="332" y="727" type="curve" smooth="yes"/>
      <point x="186" y="629"/>
      <point x="106" y="381"/>
      <point x="97" y="290" type="curve" smooth="yes"/>
      <point x="81" y="128"/>
      <point x="128" y="18"/>
      <point x="275" y="24" type="curve" smooth="yes"/>
      <point x="420" y="30"/>
      <point x="497" y="114"/>
      <point x="486" y="205" type="curve" smooth="yes"/>
      <point x="474" y="305"/>
      <point x="373" y="337"/>
      <point x="308" y="336" type="curve" smooth="yes"/>
      <point x="240" y="335"/>
      <point x="113" y="271"/>
      <point x="114" y="122" type="curve" smooth="yes"/>
      <point x="114" y="109"/>
      <point x="103" y="98"/>
      <point x="90" y="98" type="curve" smooth="yes"/>
      <point x="77" y="98"/>
      <point x="66" y="109"/>
      <point x="66" y="122" type="curve" smooth="yes"/>
      <point x="65" y="307"/>
      <point x="224" y="383"/>
      <point x="308" y="384" type="curve" smooth="yes"/>
      <point x="393" y="385"/>
      <point x="518" y="339"/>
      <point x="534" y="211" type="curve" smooth="yes"/>
      <point x="547" y="100"/>
      <point x="466" y="-16"/>
      <point x="277" y="-24" type="curve" smooth="yes"/>
      <point x="102" y="-32"/>
      <point x="29" y="86"/>
      <point x="49" y="294" type="curve" smooth="yes"/>
      <point x="58" y="393"/>
      <point x="148" y="661"/>
      <point x="306" y="767" type="curve" smooth="yes"/>
      <point x="316" y="774"/>
      <point x="332" y="771"/>
      <point x="339" y="760" type="curve" smooth="yes"/>
      <point x="346" y="750"/>
      <point x="343" y="734"/>
    </contour>
  </outline>
</glyph>
<glyph name="seven" format="1">
  <advance width="577.0"/>
  <unicode hex="0037"/>
  <outline>
    <contour>
      <point x="63" y="755" type="curve" smooth="yes"/>
      <point x="125" y="724"/>
      <point x="449" y="732"/>
      <point x="524" y="756" type="curve" smooth="yes"/>
      <point x="557" y="766"/>
      <point x="572" y="743"/>
      <point x="549" y="717" type="curve" smooth="yes"/>
      <point x="549" y="717"/>
      <point x="388" y="541"/>
      <point x="335" y="383" type="curve" smooth="yes"/>
      <point x="276" y="210"/>
      <point x="289" y="40"/>
      <point x="288" y="8" type="curve" smooth="yes"/>
      <point x="288" y="-5"/>
      <point x="276" y="-15"/>
      <point x="263" y="-15" type="curve" smooth="yes"/>
      <point x="250" y="-15"/>
      <point x="240" y="-3"/>
      <point x="240" y="10" type="curve" smooth="yes"/>
      <point x="241" y="42"/>
      <point x="228" y="218"/>
      <point x="289" y="399" type="curve" smooth="yes"/>
      <point x="346" y="565"/>
      <point x="513" y="749"/>
      <point x="513" y="749" type="curve"/>
      <point x="538" y="710" type="line"/>
      <point x="457" y="684"/>
      <point x="107" y="678"/>
      <point x="41" y="713" type="curve" smooth="yes"/>
      <point x="29" y="719"/>
      <point x="25" y="733"/>
      <point x="31" y="745" type="curve" smooth="yes"/>
      <point x="37" y="757"/>
      <point x="51" y="761"/>
    </contour>
    <contour>
      <point x="182" y="476" type="curve" smooth="yes"/>
      <point x="213" y="444"/>
      <point x="392" y="376"/>
      <point x="437" y="366" type="curve" smooth="yes"/>
      <point x="450" y="364"/>
      <point x="458" y="351"/>
      <point x="455" y="338" type="curve" smooth="yes"/>
      <point x="453" y="325"/>
      <point x="440" y="317"/>
      <point x="427" y="320" type="curve" smooth="yes"/>
      <point x="378" y="330"/>
      <point x="183" y="408"/>
      <point x="148" y="442" type="curve" smooth="yes"/>
      <point x="139" y="451"/>
      <point x="139" y="467"/>
      <point x="148" y="476" type="curve" smooth="yes"/>
      <point x="157" y="485"/>
      <point x="173" y="485"/>
    </contour>
  </outline>
</glyph>
<glyph name="eight" format="1">
  <advance width="710"/>
  <unicode hex="0038"/>
  <outline>
    <contour>
      <point x="571" y="594" type="curve" smooth="yes"/>
      <point x="539" y="672"/>
      <point x="447" y="716"/>
      <point x="351" y="717" type="curve" smooth="yes"/>
      <point x="259" y="718"/>
      <point x="116" y="660"/>
      <point x="128" y="546" type="curve" smooth="yes"/>
      <point x="139" y="442"/>
      <point x="252" y="437"/>
      <point x="364" y="410" type="curve" smooth="yes"/>
      <point x="540" y="367"/>
      <point x="637" y="248"/>
      <point x="640" y="169" type="curve" smooth="yes"/>
      <point x="647" y="5"/>
      <point x="424" y="-53"/>
      <point x="338" y="-36" type="curve" smooth="yes"/>
      <point x="255" y="-19"/>
      <point x="93" y="53"/>
      <point x="76" y="134" type="curve" smooth="yes"/>
      <point x="73" y="147"/>
      <point x="81" y="160"/>
      <point x="94" y="162" type="curve" smooth="yes"/>
      <point x="107" y="165"/>
      <point x="120" y="157"/>
      <point x="122" y="144" type="curve" smooth="yes"/>
      <point x="137" y="75"/>
      <point x="281" y="25"/>
      <point x="348" y="12" type="curve" smooth="yes"/>
      <point x="412" y="-1"/>
      <point x="597" y="33"/>
      <point x="592" y="167" type="curve" smooth="yes"/>
      <point x="589" y="234"/>
      <point x="496" y="329"/>
      <point x="352" y="364" type="curve" smooth="yes"/>
      <point x="210" y="399"/>
      <point x="93" y="418"/>
      <point x="80" y="542" type="curve" smooth="yes"/>
      <point x="66" y="680"/>
      <point x="229" y="766"/>
      <point x="351" y="765" type="curve" smooth="yes"/>
      <point x="469" y="764"/>
      <point x="577" y="706"/>
      <point x="615" y="612" type="curve" smooth="yes"/>
      <point x="620" y="600"/>
      <point x="614" y="586"/>
      <point x="602" y="581" type="curve" smooth="yes"/>
      <point x="590" y="576"/>
      <point x="576" y="582"/>
    </contour>
    <contour>
      <point x="679" y="659" type="curve" smooth="yes"/>
      <point x="626" y="595"/>
      <point x="197" y="111"/>
      <point x="44" y="115" type="curve" smooth="yes"/>
      <point x="31" y="115"/>
      <point x="21" y="127"/>
      <point x="21" y="140" type="curve" smooth="yes"/>
      <point x="21" y="153"/>
      <point x="33" y="163"/>
      <point x="46" y="163" type="curve" smooth="yes"/>
      <point x="191" y="159"/>
      <point x="592" y="629"/>
      <point x="643" y="689" type="curve" smooth="yes"/>
      <point x="651" y="699"/>
      <point x="666" y="701"/>
      <point x="676" y="692" type="curve" smooth="yes"/>
      <point x="686" y="684"/>
      <point x="688" y="669"/>
    </contour>
  </outline>
</glyph>
<glyph name="nine" format="1">
  <advance width="574"/>
  <unicode hex="0039"/>
  <outline>
    <contour>
      <point x="263" y="18" type="curve" smooth="yes"/>
      <point x="316" y="73"/>
      <point x="469" y="316"/>
      <point x="498" y="449" type="curve" smooth="yes"/>
      <point x="522" y="565"/>
      <point x="484" y="721"/>
      <point x="322" y="723" type="curve" smooth="yes"/>
      <point x="205" y="724"/>
      <point x="70" y="640"/>
      <point x="72" y="487" type="curve" smooth="yes"/>
      <point x="74" y="356"/>
      <point x="205" y="259"/>
      <point x="362" y="258" type="curve" smooth="yes"/>
      <point x="375" y="258"/>
      <point x="386" y="247"/>
      <point x="386" y="234" type="curve" smooth="yes"/>
      <point x="386" y="221"/>
      <point x="375" y="210"/>
      <point x="362" y="210" type="curve" smooth="yes"/>
      <point x="173" y="211"/>
      <point x="26" y="334"/>
      <point x="24" y="487" type="curve" smooth="yes"/>
      <point x="22" y="668"/>
      <point x="181" y="772"/>
      <point x="322" y="771" type="curve" smooth="yes"/>
      <point x="518" y="769"/>
      <point x="576" y="585"/>
      <point x="544" y="439" type="curve" smooth="yes"/>
      <point x="515" y="298"/>
      <point x="354" y="43"/>
      <point x="297" y="-16" type="curve" smooth="yes"/>
      <point x="288" y="-25"/>
      <point x="273" y="-25"/>
      <point x="263" y="-16" type="curve" smooth="yes"/>
      <point x="254" y="-7"/>
      <point x="254" y="8"/>
    </contour>
  </outline>
</glyph>
<glyph name="colon" format="1">
  <advance width="167"/>
  <unicode hex="003A"/>
  <outline>
    <contour>
      <point x="89" y="130" type="curve"/>
      <point x="89" y="130" type="line"/>
      <point x="76" y="128"/>
      <point x="67" y="115"/>
      <point x="65" y="103" type="curve"/>
      <point x="65" y="107" type="line"/>
      <point x="64" y="96"/>
      <point x="83" y="91"/>
      <point x="93" y="91" type="curve" smooth="yes"/>
      <point x="105" y="91"/>
      <point x="107" y="106"/>
      <point x="106" y="112" type="curve"/>
      <point x="103" y="117"/>
      <point x="101" y="132"/>
    </contour>
    <contour>
      <point x="81" y="178" type="line" smooth="yes"/>
      <point x="115" y="184"/>
      <point x="141" y="155"/>
      <point x="150" y="128" type="curve"/>
      <point x="161" y="96"/>
      <point x="133" y="41"/>
      <point x="91" y="43" type="curve" smooth="yes"/>
      <point x="49" y="45"/>
      <point x="16" y="80"/>
      <point x="17" y="109" type="curve" smooth="yes"/>
      <point x="17" y="110"/>
      <point x="17" y="112"/>
      <point x="17" y="113" type="curve" smooth="yes"/>
      <point x="23" y="141"/>
      <point x="50" y="172"/>
      <point x="81" y="178" type="curve" smooth="yes"/>
    </contour>
    <contour>
      <point x="72" y="600" type="curve"/>
      <point x="72" y="600" type="line"/>
      <point x="69" y="587"/>
      <point x="77" y="574"/>
      <point x="87" y="567" type="curve"/>
      <point x="84" y="569" type="line"/>
      <point x="94" y="564"/>
      <point x="105" y="579"/>
      <point x="109" y="589" type="curve" smooth="yes"/>
      <point x="114" y="600"/>
      <point x="101" y="607"/>
      <point x="95" y="609" type="curve"/>
      <point x="89" y="608"/>
      <point x="75" y="612"/>
    </contour>
    <contour>
      <point x="24" y="611" type="line" smooth="yes"/>
      <point x="32" y="645"/>
      <point x="69" y="657"/>
      <point x="97" y="655" type="curve"/>
      <point x="131" y="653"/>
      <point x="171" y="606"/>
      <point x="153" y="568" type="curve" smooth="yes"/>
      <point x="135" y="530"/>
      <point x="90" y="513"/>
      <point x="63" y="525" type="curve" smooth="yes"/>
      <point x="63" y="526"/>
      <point x="61" y="526"/>
      <point x="60" y="527" type="curve" smooth="yes"/>
      <point x="36" y="543"/>
      <point x="18" y="580"/>
      <point x="24" y="611" type="curve" smooth="yes"/>
    </contour>
  </outline>
</glyph>
<glyph name="semicolon" format="1">
  <advance width="176"/>
  <unicode hex="003B"/>
  <outline>
    <contour>
      <point x="115" y="95" type="curve" smooth="yes"/>
      <point x="138" y="56"/>
      <point x="155" y="-12"/>
      <point x="117" y="-63" type="curve" smooth="yes"/>
      <point x="110" y="-74"/>
      <point x="94" y="-76"/>
      <point x="84" y="-68" type="curve" smooth="yes"/>
      <point x="73" y="-61"/>
      <point x="71" y="-45"/>
      <point x="79" y="-35" type="curve" smooth="yes"/>
      <point x="105" y="0"/>
      <point x="88" y="46"/>
      <point x="73" y="71" type="curve" smooth="yes"/>
      <point x="67" y="82"/>
      <point x="71" y="97"/>
      <point x="82" y="104" type="curve" smooth="yes"/>
      <point x="93" y="110"/>
      <point x="108" y="106"/>
    </contour>
    <contour>
      <point x="72" y="600" type="curve"/>
      <point x="72" y="600" type="line"/>
      <point x="69" y="587"/>
      <point x="77" y="574"/>
      <point x="87" y="567" type="curve"/>
      <point x="84" y="569" type="line"/>
      <point x="94" y="564"/>
      <point x="105" y="579"/>
      <point x="109" y="589" type="curve" smooth="yes"/>
      <point x="114" y="600"/>
      <point x="101" y="607"/>
      <point x="95" y="609" type="curve"/>
      <point x="89" y="608"/>
      <point x="75" y="612"/>
    </contour>
    <contour>
      <point x="24" y="611" type="line" smooth="yes"/>
      <point x="32" y="645"/>
      <point x="69" y="657"/>
      <point x="97" y="655" type="curve"/>
      <point x="131" y="653"/>
      <point x="171" y="606"/>
      <point x="153" y="568" type="curve" smooth="yes"/>
      <point x="135" y="530"/>
      <point x="90" y="513"/>
      <point x="63" y="525" type="curve" smooth="yes"/>
      <point x="63" y="526"/>
      <point x="61" y="526"/>
      <point x="60" y="527" type="curve" smooth="yes"/>
      <point x="36" y="543"/>
      <point x="18" y="580"/>
      <point x="24" y="611" type="curve" smooth="yes"/>
    </contour>
  </outline>
</glyph>
<glyph name="less" format="1">
  <advance width="370.0"/>
  <unicode hex="003C"/>
  <outline>
    <contour>
      <point x="261" y="607" type="curve" smooth="yes"/>
      <point x="196" y="534"/>
      <point x="107" y="428"/>
      <point x="78" y="371" type="curve" smooth="yes"/>
      <point x="52" y="318"/>
      <point x="248" y="172"/>
      <point x="306" y="167" type="curve" smooth="yes"/>
      <point x="319" y="166"/>
      <point x="329" y="154"/>
      <point x="328" y="141" type="curve" smooth="yes"/>
      <point x="327" y="128"/>
      <point x="315" y="118"/>
      <point x="302" y="119" type="curve" smooth="yes"/>
      <point x="212" y="128"/>
      <point x="4" y="330"/>
      <point x="36" y="393" type="curve" smooth="yes"/>
      <point x="65" y="452"/>
      <point x="158" y="562"/>
      <point x="225" y="639" type="curve" smooth="yes"/>
      <point x="234" y="649"/>
      <point x="249" y="650"/>
      <point x="259" y="641" type="curve" smooth="yes"/>
      <point x="269" y="632"/>
      <point x="270" y="617"/>
    </contour>
  </outline>
</glyph>
<glyph name="equal" format="1">
  <advance width="500"/>
  <unicode hex="003D"/>
  <outline>
    <contour>
      <point x="93" y="450" type="curve" smooth="yes"/>
      <point x="186" y="457"/>
      <point x="334" y="460"/>
      <point x="413" y="450" type="curve" smooth="yes"/>
      <point x="426" y="448"/>
      <point x="435" y="436"/>
      <point x="434" y="423" type="curve" smooth="yes"/>
      <point x="432" y="410"/>
      <point x="420" y="401"/>
      <point x="407" y="402" type="curve" smooth="yes"/>
      <point x="330" y="412"/>
      <point x="186" y="409"/>
      <point x="97" y="402" type="curve" smooth="yes"/>
      <point x="84" y="401"/>
      <point x="72" y="411"/>
      <point x="71" y="424" type="curve" smooth="yes"/>
      <point x="70" y="437"/>
      <point x="80" y="449"/>
    </contour>
    <contour>
      <point x="88" y="319" type="curve" smooth="yes"/>
      <point x="162" y="329"/>
      <point x="379" y="326"/>
      <point x="427" y="301" type="curve" smooth="yes"/>
      <point x="439" y="295"/>
      <point x="443" y="280"/>
      <point x="437" y="269" type="curve" smooth="yes"/>
      <point x="431" y="257"/>
      <point x="416" y="253"/>
      <point x="405" y="259" type="curve" smooth="yes"/>
      <point x="361" y="282"/>
      <point x="162" y="281"/>
      <point x="94" y="271" type="curve" smooth="yes"/>
      <point x="82" y="269"/>
      <point x="69" y="279"/>
      <point x="67" y="292" type="curve" smooth="yes"/>
      <point x="65" y="304"/>
      <point x="75" y="317"/>
    </contour>
  </outline>
</glyph>
<glyph name="greater" format="1">
  <advance width="370.0"/>
  <unicode hex="003E"/>
  <outline>
    <contour>
      <point x="112" y="607" type="curve" smooth="yes"/>
      <point x="105" y="619"/>
      <point x="104" y="632"/>
      <point x="114" y="641" type="curve" smooth="yes"/>
      <point x="124" y="650"/>
      <point x="141" y="649"/>
      <point x="148" y="639" type="curve" smooth="yes"/>
      <point x="207" y="548"/>
      <point x="284" y="442"/>
      <point x="337" y="393" type="curve" smooth="yes"/>
      <point x="388" y="346"/>
      <point x="249" y="210"/>
      <point x="71" y="119" type="curve" smooth="yes"/>
      <point x="59" y="113"/>
      <point x="46" y="128"/>
      <point x="45" y="141" type="curve" smooth="yes"/>
      <point x="44" y="154"/>
      <point x="56" y="162"/>
      <point x="67" y="167" type="curve" smooth="yes"/>
      <point x="156" y="209"/>
      <point x="344" y="338"/>
      <point x="295" y="371" type="curve" smooth="yes"/>
      <point x="256" y="397"/>
      <point x="168" y="516"/>
    </contour>
  </outline>
</glyph>
<glyph name="question" format="1">
  <advance width="486.0"/>
  <unicode hex="003F"/>
  <outline>
    <contour>
      <point x="39" y="610" type="curve" smooth="yes"/>
      <point x="59" y="695"/>
      <point x="138" y="787"/>
      <point x="253" y="784" type="curve" smooth="yes"/>
      <point x="369" y="781"/>
      <point x="475" y="686"/>
      <point x="468" y="580" type="curve" smooth="yes"/>
      <point x="462" y="485"/>
      <point x="383" y="395"/>
      <point x="294" y="395" type="curve" smooth="yes"/>
      <point x="223" y="395"/>
      <point x="259" y="244"/>
      <point x="260" y="229" type="curve" smooth="yes"/>
      <point x="261" y="216"/>
      <point x="251" y="204"/>
      <point x="238" y="203" type="curve" smooth="yes"/>
      <point x="225" y="202"/>
      <point x="213" y="212"/>
      <point x="212" y="225" type="curve" smooth="yes"/>
      <point x="209" y="260"/>
      <point x="201" y="443"/>
      <point x="294" y="443" type="curve" smooth="yes"/>
      <point x="361" y="443"/>
      <point x="416" y="515"/>
      <point x="420" y="584" type="curve" smooth="yes"/>
      <point x="425" y="666"/>
      <point x="339" y="733"/>
      <point x="251" y="736" type="curve" smooth="yes"/>
      <point x="162" y="739"/>
      <point x="101" y="665"/>
      <point x="85" y="598" type="curve" smooth="yes"/>
      <point x="82" y="586"/>
      <point x="69" y="578"/>
      <point x="56" y="581" type="curve" smooth="yes"/>
      <point x="44" y="584"/>
      <point x="36" y="597"/>
    </contour>
    <contour>
      <point x="245" y="80" type="curve"/>
      <point x="245" y="80" type="line"/>
      <point x="232" y="78"/>
      <point x="223" y="65"/>
      <point x="221" y="53" type="curve"/>
      <point x="221" y="57" type="line"/>
      <point x="220" y="46"/>
      <point x="239" y="41"/>
      <point x="249" y="41" type="curve" smooth="yes"/>
      <point x="261" y="41"/>
      <point x="263" y="56"/>
      <point x="262" y="62" type="curve"/>
      <point x="259" y="67"/>
      <point x="257" y="82"/>
    </contour>
    <contour>
      <point x="237" y="128" type="line" smooth="yes"/>
      <point x="271" y="134"/>
      <point x="297" y="105"/>
      <point x="306" y="78" type="curve"/>
      <point x="317" y="46"/>
      <point x="289" y="-9"/>
      <point x="247" y="-7" type="curve" smooth="yes"/>
      <point x="205" y="-5"/>
      <point x="172" y="30"/>
      <point x="173" y="59" type="curve" smooth="yes"/>
      <point x="173" y="60"/>
      <point x="173" y="62"/>
      <point x="173" y="63" type="curve" smooth="yes"/>
      <point x="179" y="91"/>
      <point x="206" y="122"/>
      <point x="237" y="128" type="curve" smooth="yes"/>
    </contour>
  </outline>
</glyph>
<glyph name="at" format="1">
  <advance width="491.0"/>
  <unicode hex="0040"/>
  <outline>
    <contour>
      <point x="306" y="554" type="curve" smooth="yes"/>
      <point x="224" y="558"/>
      <point x="185" y="511"/>
      <point x="182" y="458" type="curve" smooth="yes"/>
      <point x="181" y="439"/>
      <point x="177" y="377"/>
      <point x="235" y="379" type="curve" smooth="yes"/>
      <point x="281" y="381"/>
      <point x="302" y="498"/>
      <point x="302" y="530" type="curve"/>
      <point x="350" y="528" type="line"/>
      <point x="349" y="519"/>
      <point x="330" y="373"/>
      <point x="375" y="380" type="curve" smooth="yes"/>
      <point x="406" y="385"/>
      <point x="434" y="456"/>
      <point x="414" y="526" type="curve" smooth="yes"/>
      <point x="396" y="589"/>
      <point x="309" y="645"/>
      <point x="240" y="635" type="curve" smooth="yes"/>
      <point x="170" y="625"/>
      <point x="77" y="557"/>
      <point x="77" y="451" type="curve"/>
      <point x="76" y="374"/>
      <point x="143" y="285"/>
      <point x="226" y="299" type="curve" smooth="yes"/>
      <point x="239" y="301"/>
      <point x="252" y="292"/>
      <point x="254" y="279" type="curve" smooth="yes"/>
      <point x="256" y="266"/>
      <point x="247" y="253"/>
      <point x="234" y="251" type="curve" smooth="yes"/>
      <point x="125" y="233"/>
      <point x="28" y="344"/>
      <point x="29" y="451" type="curve"/>
      <point x="29" y="583"/>
      <point x="146" y="671"/>
      <point x="234" y="683" type="curve" smooth="yes"/>
      <point x="323" y="695"/>
      <point x="436" y="621"/>
      <point x="460" y="540" type="curve" smooth="yes"/>
      <point x="496" y="414"/>
      <point x="426" y="339"/>
      <point x="383" y="332" type="curve" smooth="yes"/>
      <point x="322" y="323"/>
      <point x="289" y="393"/>
      <point x="302" y="532" type="curve" smooth="yes"/>
      <point x="306" y="575"/>
      <point x="350" y="573"/>
      <point x="350" y="530" type="curve" smooth="yes"/>
      <point x="350" y="478"/>
      <point x="297" y="333"/>
      <point x="237" y="331" type="curve" smooth="yes"/>
      <point x="141" y="327"/>
      <point x="131" y="423"/>
      <point x="134" y="462" type="curve" smooth="yes"/>
      <point x="139" y="535"/>
      <point x="188" y="608"/>
      <point x="308" y="602" type="curve" smooth="yes"/>
      <point x="321" y="601"/>
      <point x="332" y="590"/>
      <point x="331" y="577" type="curve" smooth="yes"/>
      <point x="330" y="564"/>
      <point x="319" y="553"/>
    </contour>
  </outline>
</glyph>
<glyph name="A" format="1">
  <advance width="575"/>
  <unicode hex="0041"/>
  <outline>
    <contour>
      <point x="503" y="-11" type="curve" smooth="yes"/>
      <point x="419" y="229"/>
      <point x="386" y="502"/>
      <point x="285" y="731" type="curve"/>
      <point x="328" y="730" type="line"/>
      <point x="233" y="541"/>
      <point x="191" y="325"/>
      <point x="124" y="124" type="curve" smooth="yes"/>
      <point x="110" y="82"/>
      <point x="95" y="39"/>
      <point x="81" y="-4" type="curve" smooth="yes"/>
      <point x="77" y="-17"/>
      <point x="63" y="-24"/>
      <point x="51" y="-20" type="curve" smooth="yes"/>
      <point x="38" y="-16"/>
      <point x="31" y="-2"/>
      <point x="35" y="10" type="curve" smooth="yes"/>
      <point x="49" y="53"/>
      <point x="64" y="96"/>
      <point x="78" y="140" type="curve" smooth="yes"/>
      <point x="147" y="343"/>
      <point x="189" y="561"/>
      <point x="286" y="752" type="curve" smooth="yes"/>
      <point x="298" y="776"/>
      <point x="318" y="776"/>
      <point x="329" y="751" type="curve" smooth="yes"/>
      <point x="430" y="520"/>
      <point x="463" y="247"/>
      <point x="549" y="5" type="curve" smooth="yes"/>
      <point x="553" y="-7"/>
      <point x="546" y="-21"/>
      <point x="534" y="-26" type="curve" smooth="yes"/>
      <point x="522" y="-30"/>
      <point x="508" y="-23"/>
    </contour>
    <contour>
      <point x="111" y="390" type="curve" smooth="yes"/>
      <point x="256" y="394"/>
      <point x="348" y="383"/>
      <point x="418" y="379" type="curve" smooth="yes"/>
      <point x="431" y="378"/>
      <point x="442" y="367"/>
      <point x="441" y="354" type="curve" smooth="yes"/>
      <point x="440" y="341"/>
      <point x="429" y="330"/>
      <point x="416" y="331" type="curve" smooth="yes"/>
      <point x="346" y="335"/>
      <point x="256" y="346"/>
      <point x="113" y="342" type="curve" smooth="yes"/>
      <point x="100" y="342"/>
      <point x="88" y="352"/>
      <point x="88" y="365" type="curve" smooth="yes"/>
      <point x="88" y="378"/>
      <point x="98" y="390"/>
    </contour>
  </outline>
</glyph>
<glyph name="C" format="1">
  <advance width="545"/>
  <unicode hex="0043"/>
  <outline>
    <contour>
      <point x="402" y="603" type="curve" smooth="yes"/>
      <point x="388" y="723"/>
      <point x="262" y="730"/>
      <point x="226" y="723" type="curve" smooth="yes"/>
      <point x="146" y="707"/>
      <point x="51" y="650"/>
      <point x="78" y="176" type="curve" smooth="yes"/>
      <point x="82" y="104"/>
      <point x="122" y="24"/>
      <point x="205" y="15" type="curve" smooth="yes"/>
      <point x="285" y="7"/>
      <point x="425" y="41"/>
      <point x="409" y="151" type="curve" smooth="yes"/>
      <point x="407" y="163"/>
      <point x="417" y="176"/>
      <point x="430" y="178" type="curve" smooth="yes"/>
      <point x="442" y="180"/>
      <point x="455" y="170"/>
      <point x="457" y="157" type="curve" smooth="yes"/>
      <point x="477" y="21"/>
      <point x="317" y="-45"/>
      <point x="199" y="-33" type="curve" smooth="yes"/>
      <point x="94" y="-22"/>
      <point x="36" y="78"/>
      <point x="30" y="174" type="curve" smooth="yes"/>
      <point x="-3" y="736"/>
      <point x="130" y="753"/>
      <point x="218" y="771" type="curve" smooth="yes"/>
      <point x="266" y="780"/>
      <point x="430" y="767"/>
      <point x="450" y="609" type="curve" smooth="yes"/>
      <point x="451" y="596"/>
      <point x="442" y="584"/>
      <point x="429" y="582" type="curve" smooth="yes"/>
      <point x="416" y="581"/>
      <point x="404" y="590"/>
    </contour>
  </outline>
</glyph>
<glyph name="E" format="1">
  <advance width="571.0"/>
  <unicode hex="0045"/>
  <outline>
    <contour>
      <point x="515" y="723" type="curve" smooth="yes"/>
      <point x="396" y="704"/>
      <point x="291" y="759"/>
      <point x="181" y="720" type="curve" smooth="yes"/>
      <point x="54" y="676"/>
      <point x="125" y="430"/>
      <point x="129" y="315" type="curve" smooth="yes"/>
      <point x="132" y="212"/>
      <point x="128" y="110"/>
      <point x="130" y="6" type="curve"/>
      <point x="123" y="23" type="line"/>
      <point x="123" y="23"/>
      <point x="124" y="22"/>
      <point x="124" y="22" type="curve"/>
      <point x="106" y="29" type="line"/>
      <point x="276" y="34"/>
      <point x="515" y="29"/>
      <point x="540" y="10" type="curve" smooth="yes"/>
      <point x="550" y="2"/>
      <point x="552" y="-14"/>
      <point x="544" y="-24" type="curve" smooth="yes"/>
      <point x="536" y="-34"/>
      <point x="520" y="-36"/>
      <point x="510" y="-28" type="curve" smooth="yes"/>
      <point x="487" y="-9"/>
      <point x="266" y="-14"/>
      <point x="108" y="-19" type="curve" smooth="yes"/>
      <point x="102" y="-19"/>
      <point x="94" y="-16"/>
      <point x="90" y="-12" type="curve" smooth="yes"/>
      <point x="90" y="-12"/>
      <point x="89" y="-11"/>
      <point x="89" y="-11" type="curve" smooth="yes"/>
      <point x="85" y="-7"/>
      <point x="82" y="0"/>
      <point x="82" y="6" type="curve" smooth="yes"/>
      <point x="80" y="108"/>
      <point x="84" y="210"/>
      <point x="81" y="313" type="curve" smooth="yes"/>
      <point x="77" y="458"/>
      <point x="24" y="716"/>
      <point x="165" y="766" type="curve" smooth="yes"/>
      <point x="277" y="805"/>
      <point x="386" y="750"/>
      <point x="507" y="771" type="curve" smooth="yes"/>
      <point x="520" y="773"/>
      <point x="533" y="764"/>
      <point x="535" y="751" type="curve" smooth="yes"/>
      <point x="537" y="738"/>
      <point x="528" y="725"/>
    </contour>
    <contour>
      <point x="0" y="397" type="curve" smooth="yes"/>
      <point x="114" y="385"/>
      <point x="240" y="376"/>
      <point x="370" y="393" type="curve" smooth="yes"/>
      <point x="383" y="394"/>
      <point x="395" y="385"/>
      <point x="397" y="372" type="curve" smooth="yes"/>
      <point x="398" y="359"/>
      <point x="389" y="347"/>
      <point x="376" y="345" type="curve" smooth="yes"/>
      <point x="242" y="328"/>
      <point x="112" y="337"/>
      <point x="-4" y="349" type="curve" smooth="yes"/>
      <point x="-17" y="350"/>
      <point x="-27" y="363"/>
      <point x="-26" y="375" type="curve" smooth="yes"/>
      <point x="-25" y="388"/>
      <point x="-12" y="398"/>
    </contour>
  </outline>
</glyph>
<glyph name="G" format="1">
  <advance width="575"/>
  <unicode hex="0047"/>
  <outline>
    <contour>
      <point x="464" y="590" type="curve" smooth="yes"/>
      <point x="417" y="797"/>
      <point x="181" y="781"/>
      <point x="101" y="589" type="curve" smooth="yes"/>
      <point x="46" y="457"/>
      <point x="4" y="-140"/>
      <point x="350" y="32" type="curve" smooth="yes"/>
      <point x="459" y="87"/>
      <point x="455" y="241"/>
      <point x="459" y="347" type="curve" smooth="yes"/>
      <point x="459" y="360"/>
      <point x="471" y="370"/>
      <point x="484" y="370" type="curve" smooth="yes"/>
      <point x="497" y="370"/>
      <point x="507" y="358"/>
      <point x="507" y="345" type="curve" smooth="yes"/>
      <point x="503" y="219"/>
      <point x="499" y="53"/>
      <point x="372" y="-10" type="curve" smooth="yes"/>
      <point x="0" y="-196"/>
      <point x="-18" y="324"/>
      <point x="55" y="601" type="curve"/>
      <point x="119" y="839"/>
      <point x="453" y="857"/>
      <point x="510" y="600" type="curve" smooth="yes"/>
      <point x="513" y="588"/>
      <point x="505" y="574"/>
      <point x="492" y="572" type="curve" smooth="yes"/>
      <point x="480" y="569"/>
      <point x="466" y="577"/>
    </contour>
    <contour>
      <point x="272" y="380" type="curve" smooth="yes"/>
      <point x="336" y="398"/>
      <point x="432" y="408"/>
      <point x="538" y="395" type="curve" smooth="yes"/>
      <point x="551" y="393"/>
      <point x="560" y="381"/>
      <point x="559" y="368" type="curve" smooth="yes"/>
      <point x="557" y="355"/>
      <point x="545" y="346"/>
      <point x="532" y="347" type="curve" smooth="yes"/>
      <point x="430" y="360"/>
      <point x="344" y="344"/>
      <point x="276" y="332" type="curve" smooth="yes"/>
      <point x="263" y="330"/>
      <point x="251" y="341"/>
      <point x="250" y="354" type="curve" smooth="yes"/>
      <point x="249" y="367"/>
      <point x="259" y="376"/>
    </contour>
  </outline>
</glyph>
<glyph name="H" format="1">
  <advance width="506"/>
  <unicode hex="0048"/>
  <outline>
    <contour>
      <point x="138" y="749" type="curve" smooth="yes"/>
      <point x="132" y="526"/>
      <point x="104" y="303"/>
      <point x="113" y="80" type="curve" smooth="yes"/>
      <point x="114" y="53"/>
      <point x="115" y="26"/>
      <point x="121" y="0" type="curve" smooth="yes"/>
      <point x="124" y="-13"/>
      <point x="116" y="-26"/>
      <point x="104" y="-29" type="curve" smooth="yes"/>
      <point x="91" y="-32"/>
      <point x="78" y="-24"/>
      <point x="75" y="-12" type="curve" smooth="yes"/>
      <point x="67" y="18"/>
      <point x="66" y="47"/>
      <point x="65" y="78" type="curve" smooth="yes"/>
      <point x="56" y="303"/>
      <point x="84" y="526"/>
      <point x="90" y="751" type="curve" smooth="yes"/>
      <point x="90" y="764"/>
      <point x="102" y="774"/>
      <point x="115" y="774" type="curve" smooth="yes"/>
      <point x="128" y="774"/>
      <point x="138" y="762"/>
    </contour>
    <contour>
      <point x="488" y="742" type="curve" smooth="yes"/>
      <point x="466" y="515"/>
      <point x="462" y="299"/>
      <point x="471" y="72" type="curve" smooth="yes"/>
      <point x="472" y="49"/>
      <point x="473" y="25"/>
      <point x="473" y="3" type="curve" smooth="yes"/>
      <point x="473" y="-10"/>
      <point x="462" y="-21"/>
      <point x="449" y="-21" type="curve" smooth="yes"/>
      <point x="436" y="-21"/>
      <point x="425" y="-10"/>
      <point x="425" y="3" type="curve" smooth="yes"/>
      <point x="425" y="25"/>
      <point x="424" y="47"/>
      <point x="423" y="70" type="curve" smooth="yes"/>
      <point x="414" y="299"/>
      <point x="418" y="517"/>
      <point x="440" y="746" type="curve" smooth="yes"/>
      <point x="441" y="759"/>
      <point x="453" y="769"/>
      <point x="466" y="768" type="curve" smooth="yes"/>
      <point x="479" y="767"/>
      <point x="489" y="755"/>
    </contour>
    <contour>
      <point x="-29" y="382" type="curve" smooth="yes"/>
      <point x="101" y="359"/>
      <point x="247" y="385"/>
      <point x="379" y="382" type="curve"/>
      <point x="378" y="382" type="line"/>
      <point x="402" y="382"/>
      <point x="424" y="382"/>
      <point x="447" y="379" type="curve" smooth="yes"/>
      <point x="460" y="377"/>
      <point x="470" y="365"/>
      <point x="468" y="352" type="curve" smooth="yes"/>
      <point x="466" y="339"/>
      <point x="454" y="329"/>
      <point x="441" y="331" type="curve" smooth="yes"/>
      <point x="420" y="334"/>
      <point x="400" y="334"/>
      <point x="378" y="334" type="curve" smooth="yes"/>
      <point x="378" y="334"/>
      <point x="378" y="334"/>
      <point x="377" y="334" type="curve" smooth="yes"/>
      <point x="243" y="337"/>
      <point x="95" y="311"/>
      <point x="-37" y="334" type="curve" smooth="yes"/>
      <point x="-50" y="337"/>
      <point x="-59" y="349"/>
      <point x="-57" y="362" type="curve" smooth="yes"/>
      <point x="-54" y="375"/>
      <point x="-42" y="384"/>
    </contour>
  </outline>
</glyph>
<glyph name="I" format="1">
  <advance width="205.0"/>
  <unicode hex="0049"/>
  <outline>
    <contour>
      <point x="142" y="750" type="curve" smooth="yes"/>
      <point x="144" y="525"/>
      <point x="121" y="299"/>
      <point x="131" y="75" type="curve" smooth="yes"/>
      <point x="132" y="50"/>
      <point x="135" y="25"/>
      <point x="139" y="1" type="curve" smooth="yes"/>
      <point x="141" y="-12"/>
      <point x="132" y="-25"/>
      <point x="119" y="-27" type="curve" smooth="yes"/>
      <point x="106" y="-29"/>
      <point x="93" y="-20"/>
      <point x="91" y="-7" type="curve" smooth="yes"/>
      <point x="87" y="19"/>
      <point x="84" y="46"/>
      <point x="83" y="73" type="curve" smooth="yes"/>
      <point x="73" y="297"/>
      <point x="96" y="525"/>
      <point x="94" y="750" type="curve" smooth="yes"/>
      <point x="94" y="763"/>
      <point x="105" y="774"/>
      <point x="118" y="774" type="curve" smooth="yes"/>
      <point x="131" y="774"/>
      <point x="142" y="763"/>
    </contour>
  </outline>
</glyph>
<glyph name="J" format="1">
  <advance width="374.0"/>
  <unicode hex="004A"/>
  <outline>
    <contour>
      <point x="120" y="772" type="curve" smooth="yes"/>
      <point x="185" y="776"/>
      <point x="265" y="760"/>
      <point x="321" y="773" type="curve" smooth="yes"/>
      <point x="334" y="776"/>
      <point x="347" y="768"/>
      <point x="350" y="756" type="curve" smooth="yes"/>
      <point x="353" y="743"/>
      <point x="345" y="730"/>
      <point x="333" y="727" type="curve" smooth="yes"/>
      <point x="273" y="712"/>
      <point x="191" y="728"/>
      <point x="122" y="724" type="curve" smooth="yes"/>
      <point x="109" y="723"/>
      <point x="98" y="734"/>
      <point x="97" y="747" type="curve" smooth="yes"/>
      <point x="96" y="760"/>
      <point x="107" y="771"/>
    </contour>
    <contour>
      <point x="351" y="747" type="curve" smooth="yes"/>
      <point x="325" y="531"/>
      <point x="365" y="302"/>
      <point x="325" y="89" type="curve" smooth="yes"/>
      <point x="302" y="-37"/>
      <point x="186" y="-124"/>
      <point x="68" y="-10" type="curve" smooth="yes"/>
      <point x="29" y="28"/>
      <point x="17" y="131"/>
      <point x="29" y="182" type="curve" smooth="yes"/>
      <point x="31" y="195"/>
      <point x="45" y="203"/>
      <point x="57" y="200" type="curve" smooth="yes"/>
      <point x="70" y="198"/>
      <point x="78" y="184"/>
      <point x="75" y="172" type="curve" smooth="yes"/>
      <point x="67" y="133"/>
      <point x="71" y="54"/>
      <point x="102" y="24" type="curve" smooth="yes"/>
      <point x="186" y="-58"/>
      <point x="262" y="15"/>
      <point x="277" y="97" type="curve" smooth="yes"/>
      <point x="317" y="310"/>
      <point x="277" y="537"/>
      <point x="303" y="753" type="curve" smooth="yes"/>
      <point x="305" y="766"/>
      <point x="317" y="775"/>
      <point x="330" y="774" type="curve" smooth="yes"/>
      <point x="343" y="772"/>
      <point x="352" y="760"/>
    </contour>
  </outline>
</glyph>
<glyph name="K" format="1">
  <advance width="500"/>
  <unicode hex="004B"/>
  <outline>
    <contour>
      <point x="58" y="750" type="curve" smooth="yes"/>
      <point x="49" y="534"/>
      <point x="51" y="314"/>
      <point x="54" y="97" type="curve" smooth="yes"/>
      <point x="54" y="62"/>
      <point x="56" y="27"/>
      <point x="55" y="-9" type="curve" smooth="yes"/>
      <point x="55" y="-22"/>
      <point x="43" y="-32"/>
      <point x="30" y="-32" type="curve" smooth="yes"/>
      <point x="17" y="-32"/>
      <point x="7" y="-20"/>
      <point x="7" y="-7" type="curve" smooth="yes"/>
      <point x="8" y="27"/>
      <point x="6" y="62"/>
      <point x="6" y="97" type="curve"/>
      <point x="3" y="314"/>
      <point x="1" y="536"/>
      <point x="10" y="752" type="curve" smooth="yes"/>
      <point x="11" y="765"/>
      <point x="22" y="776"/>
      <point x="35" y="775" type="curve" smooth="yes"/>
      <point x="48" y="774"/>
      <point x="59" y="763"/>
    </contour>
    <contour>
      <point x="418" y="748" type="curve" smooth="yes"/>
      <point x="423" y="532"/>
      <point x="308" y="382"/>
      <point x="103" y="321" type="curve" smooth="yes"/>
      <point x="76" y="314"/>
      <point x="52" y="307"/>
      <point x="26" y="301" type="curve" smooth="yes"/>
      <point x="13" y="299"/>
      <point x="0" y="308"/>
      <point x="-3" y="320" type="curve" smooth="yes"/>
      <point x="-5" y="333"/>
      <point x="4" y="346"/>
      <point x="16" y="349" type="curve" smooth="yes"/>
      <point x="42" y="353"/>
      <point x="64" y="360"/>
      <point x="89" y="367" type="curve" smooth="yes"/>
      <point x="272" y="422"/>
      <point x="375" y="554"/>
      <point x="370" y="746" type="curve" smooth="yes"/>
      <point x="370" y="759"/>
      <point x="380" y="771"/>
      <point x="393" y="771" type="curve" smooth="yes"/>
      <point x="406" y="771"/>
      <point x="418" y="761"/>
    </contour>
    <contour>
      <point x="178" y="372" type="curve" smooth="yes"/>
      <point x="225" y="275"/>
      <point x="319" y="70"/>
      <point x="432" y="26" type="curve" smooth="yes"/>
      <point x="447" y="20"/>
      <point x="452" y="22"/>
      <point x="466" y="24" type="curve" smooth="yes"/>
      <point x="479" y="25"/>
      <point x="492" y="15"/>
      <point x="493" y="3" type="curve" smooth="yes"/>
      <point x="494" y="-10"/>
      <point x="484" y="-23"/>
      <point x="472" y="-24" type="curve" smooth="yes"/>
      <point x="448" y="-26"/>
      <point x="439" y="-28"/>
      <point x="414" y="-18" type="curve" smooth="yes"/>
      <point x="293" y="28"/>
      <point x="187" y="245"/>
      <point x="134" y="350" type="curve" smooth="yes"/>
      <point x="129" y="362"/>
      <point x="134" y="377"/>
      <point x="145" y="383" type="curve" smooth="yes"/>
      <point x="157" y="388"/>
      <point x="172" y="383"/>
    </contour>
  </outline>
</glyph>
<glyph name="L" format="1">
  <advance width="555"/>
  <unicode hex="004C"/>
  <outline>
    <contour>
      <point x="107" y="744" type="curve" smooth="yes"/>
      <point x="74" y="524"/>
      <point x="88" y="280"/>
      <point x="111" y="58" type="curve" smooth="yes"/>
      <point x="113" y="39"/>
      <point x="116" y="19"/>
      <point x="119" y="1" type="curve" smooth="yes"/>
      <point x="121" y="-12"/>
      <point x="112" y="-25"/>
      <point x="99" y="-27" type="curve" smooth="yes"/>
      <point x="86" y="-29"/>
      <point x="73" y="-20"/>
      <point x="71" y="-7" type="curve" smooth="yes"/>
      <point x="68" y="13"/>
      <point x="65" y="33"/>
      <point x="63" y="54" type="curve" smooth="yes"/>
      <point x="40" y="278"/>
      <point x="26" y="528"/>
      <point x="59" y="752" type="curve" smooth="yes"/>
      <point x="61" y="764"/>
      <point x="74" y="774"/>
      <point x="87" y="772" type="curve" smooth="yes"/>
      <point x="99" y="770"/>
      <point x="109" y="757"/>
    </contour>
    <contour>
      <point x="55" y="21" type="curve" smooth="yes"/>
      <point x="214" y="37"/>
      <point x="321" y="44"/>
      <point x="478" y="15" type="curve" smooth="yes"/>
      <point x="491" y="12"/>
      <point x="500" y="-1"/>
      <point x="498" y="-13" type="curve" smooth="yes"/>
      <point x="495" y="-26"/>
      <point x="482" y="-35"/>
      <point x="470" y="-33" type="curve" smooth="yes"/>
      <point x="317" y="-4"/>
      <point x="214" y="-11"/>
      <point x="59" y="-27" type="curve" smooth="yes"/>
      <point x="47" y="-28"/>
      <point x="34" y="-18"/>
      <point x="33" y="-5" type="curve" smooth="yes"/>
      <point x="32" y="7"/>
      <point x="42" y="20"/>
    </contour>
  </outline>
</glyph>
<glyph name="M" format="1">
  <advance width="659"/>
  <unicode hex="004D"/>
  <outline>
    <contour>
      <point x="130" y="743" type="curve" smooth="yes"/>
      <point x="108" y="520"/>
      <point x="83" y="17"/>
      <point x="82" y="-12" type="curve" smooth="yes"/>
      <point x="82" y="-25"/>
      <point x="70" y="-35"/>
      <point x="57" y="-35" type="curve" smooth="yes"/>
      <point x="44" y="-35"/>
      <point x="34" y="-23"/>
      <point x="34" y="-10" type="curve" smooth="yes"/>
      <point x="35" y="19"/>
      <point x="60" y="524"/>
      <point x="82" y="747" type="curve" smooth="yes"/>
      <point x="83" y="760"/>
      <point x="95" y="770"/>
      <point x="108" y="769" type="curve" smooth="yes"/>
      <point x="121" y="768"/>
      <point x="131" y="756"/>
    </contour>
    <contour>
      <point x="125" y="760" type="curve" smooth="yes"/>
      <point x="225" y="636"/>
      <point x="291" y="517"/>
      <point x="356" y="375" type="curve" smooth="yes"/>
      <point x="361" y="363"/>
      <point x="356" y="349"/>
      <point x="344" y="343" type="curve" smooth="yes"/>
      <point x="332" y="338"/>
      <point x="318" y="343"/>
      <point x="312" y="355" type="curve" smooth="yes"/>
      <point x="249" y="493"/>
      <point x="185" y="610"/>
      <point x="87" y="730" type="curve" smooth="yes"/>
      <point x="79" y="740"/>
      <point x="81" y="755"/>
      <point x="91" y="764" type="curve" smooth="yes"/>
      <point x="101" y="772"/>
      <point x="116" y="770"/>
    </contour>
    <contour>
      <point x="315" y="380" type="curve" smooth="yes"/>
      <point x="407" y="494"/>
      <point x="431" y="650"/>
      <point x="513" y="763" type="curve" smooth="yes"/>
      <point x="520" y="774"/>
      <point x="536" y="776"/>
      <point x="546" y="768" type="curve" smooth="yes"/>
      <point x="557" y="761"/>
      <point x="559" y="745"/>
      <point x="551" y="735" type="curve" smooth="yes"/>
      <point x="469" y="622"/>
      <point x="445" y="464"/>
      <point x="353" y="350" type="curve" smooth="yes"/>
      <point x="345" y="340"/>
      <point x="329" y="338"/>
      <point x="319" y="346" type="curve" smooth="yes"/>
      <point x="309" y="354"/>
      <point x="307" y="370"/>
    </contour>
    <contour>
      <point x="556" y="749" type="curve" smooth="yes"/>
      <point x="557" y="588"/>
      <point x="605" y="160"/>
      <point x="608" y="0" type="curve" smooth="yes"/>
      <point x="608" y="-13"/>
      <point x="597" y="-24"/>
      <point x="584" y="-24" type="curve" smooth="yes"/>
      <point x="571" y="-24"/>
      <point x="560" y="-13"/>
      <point x="560" y="0" type="curve" smooth="yes"/>
      <point x="557" y="160"/>
      <point x="509" y="588"/>
      <point x="508" y="749" type="curve" smooth="yes"/>
      <point x="508" y="762"/>
      <point x="519" y="773"/>
      <point x="532" y="773" type="curve" smooth="yes"/>
      <point x="545" y="773"/>
      <point x="556" y="762"/>
    </contour>
  </outline>
</glyph>
<glyph name="P" format="1">
  <advance width="529"/>
  <unicode hex="0050"/>
  <outline>
    <contour>
      <point x="195" y="752" type="curve" smooth="yes"/>
      <point x="200" y="516"/>
      <point x="134" y="209"/>
      <point x="180" y="-4" type="curve" smooth="yes"/>
      <point x="183" y="-17"/>
      <point x="175" y="-30"/>
      <point x="162" y="-32" type="curve" smooth="yes"/>
      <point x="149" y="-35"/>
      <point x="136" y="-27"/>
      <point x="134" y="-14" type="curve" smooth="yes"/>
      <point x="86" y="201"/>
      <point x="152" y="512"/>
      <point x="147" y="750" type="curve" smooth="yes"/>
      <point x="147" y="763"/>
      <point x="158" y="775"/>
      <point x="170" y="775" type="curve" smooth="yes"/>
      <point x="183" y="775"/>
      <point x="195" y="764"/>
    </contour>
    <contour>
      <point x="20" y="744" type="curve" smooth="yes"/>
      <point x="179" y="828"/>
      <point x="457" y="826"/>
      <point x="516" y="629" type="curve" smooth="yes"/>
      <point x="570" y="448"/>
      <point x="423" y="278"/>
      <point x="259" y="254" type="curve" smooth="yes"/>
      <point x="220" y="249"/>
      <point x="184" y="250"/>
      <point x="145" y="253" type="curve" smooth="yes"/>
      <point x="132" y="254"/>
      <point x="122" y="266"/>
      <point x="123" y="279" type="curve" smooth="yes"/>
      <point x="124" y="292"/>
      <point x="136" y="302"/>
      <point x="149" y="301" type="curve" smooth="yes"/>
      <point x="184" y="298"/>
      <point x="218" y="297"/>
      <point x="253" y="302" type="curve" smooth="yes"/>
      <point x="389" y="322"/>
      <point x="516" y="462"/>
      <point x="470" y="615" type="curve" smooth="yes"/>
      <point x="419" y="788"/>
      <point x="171" y="770"/>
      <point x="42" y="702" type="curve" smooth="yes"/>
      <point x="31" y="696"/>
      <point x="16" y="700"/>
      <point x="10" y="712" type="curve" smooth="yes"/>
      <point x="4" y="723"/>
      <point x="8" y="738"/>
    </contour>
  </outline>
</glyph>
<glyph name="R" format="1">
  <advance width="585.0"/>
  <unicode hex="0052"/>
  <outline>
    <contour>
      <point x="154" y="705" type="curve" smooth="yes"/>
      <point x="138" y="474"/>
      <point x="131" y="229"/>
      <point x="140" y="-6" type="curve" smooth="yes"/>
      <point x="140" y="-19"/>
      <point x="130" y="-30"/>
      <point x="117" y="-31" type="curve" smooth="yes"/>
      <point x="104" y="-31"/>
      <point x="93" y="-21"/>
      <point x="92" y="-8" type="curve" smooth="yes"/>
      <point x="83" y="229"/>
      <point x="90" y="476"/>
      <point x="106" y="709" type="curve" smooth="yes"/>
      <point x="107" y="722"/>
      <point x="119" y="732"/>
      <point x="132" y="731" type="curve" smooth="yes"/>
      <point x="145" y="730"/>
      <point x="155" y="718"/>
    </contour>
    <contour>
      <point x="0" y="767" type="curve" smooth="yes"/>
      <point x="131" y="775"/>
      <point x="368" y="836"/>
      <point x="477" y="735" type="curve" smooth="yes"/>
      <point x="660" y="565"/>
      <point x="444" y="347"/>
      <point x="267" y="293" type="curve" smooth="yes"/>
      <point x="220" y="278"/>
      <point x="166" y="279"/>
      <point x="119" y="287" type="curve"/>
      <point x="137" y="330" type="line"/>
      <point x="172" y="304"/>
      <point x="247" y="194"/>
      <point x="365" y="106" type="curve" smooth="yes"/>
      <point x="431" y="57"/>
      <point x="555" y="-11"/>
      <point x="582" y="21" type="curve" smooth="yes"/>
      <point x="590" y="31"/>
      <point x="602" y="38"/>
      <point x="614" y="33" type="curve" smooth="yes"/>
      <point x="626" y="28"/>
      <point x="631" y="13"/>
      <point x="626" y="1" type="curve" smooth="yes"/>
      <point x="588" y="-82"/>
      <point x="450" y="-22"/>
      <point x="331" y="72" type="curve" smooth="yes"/>
      <point x="218" y="161"/>
      <point x="123" y="282"/>
      <point x="109" y="292" type="curve" smooth="yes"/>
      <point x="80" y="314"/>
      <point x="92" y="341"/>
      <point x="127" y="335" type="curve" smooth="yes"/>
      <point x="168" y="327"/>
      <point x="212" y="326"/>
      <point x="253" y="339" type="curve" smooth="yes"/>
      <point x="380" y="377"/>
      <point x="604" y="551"/>
      <point x="445" y="699" type="curve" smooth="yes"/>
      <point x="344" y="794"/>
      <point x="121" y="727"/>
      <point x="4" y="719" type="curve" smooth="yes"/>
      <point x="-9" y="718"/>
      <point x="-21" y="729"/>
      <point x="-22" y="741" type="curve" smooth="yes"/>
      <point x="-23" y="754"/>
      <point x="-12" y="766"/>
    </contour>
  </outline>
</glyph>
<glyph name="T" format="1">
  <advance width="500"/>
  <unicode hex="0054"/>
  <outline>
    <contour>
      <point x="52" y="767" type="curve" smooth="yes"/>
      <point x="183" y="782"/>
      <point x="327" y="749"/>
      <point x="452" y="776" type="curve" smooth="yes"/>
      <point x="464" y="779"/>
      <point x="478" y="771"/>
      <point x="480" y="758" type="curve" smooth="yes"/>
      <point x="483" y="746"/>
      <point x="475" y="732"/>
      <point x="462" y="730" type="curve" smooth="yes"/>
      <point x="335" y="701"/>
      <point x="191" y="734"/>
      <point x="58" y="719" type="curve" smooth="yes"/>
      <point x="45" y="718"/>
      <point x="33" y="727"/>
      <point x="31" y="740" type="curve" smooth="yes"/>
      <point x="30" y="753"/>
      <point x="39" y="765"/>
    </contour>
    <contour>
      <point x="285" y="739" type="curve" smooth="yes"/>
      <point x="282" y="500"/>
      <point x="256" y="232"/>
      <point x="291" y="-1" type="curve" smooth="yes"/>
      <point x="293" y="-14"/>
      <point x="283" y="-27"/>
      <point x="271" y="-29" type="curve" smooth="yes"/>
      <point x="258" y="-31"/>
      <point x="245" y="-21"/>
      <point x="243" y="-9" type="curve" smooth="yes"/>
      <point x="208" y="228"/>
      <point x="234" y="498"/>
      <point x="237" y="739" type="curve" smooth="yes"/>
      <point x="237" y="752"/>
      <point x="248" y="763"/>
      <point x="261" y="763" type="curve" smooth="yes"/>
      <point x="274" y="763"/>
      <point x="285" y="752"/>
    </contour>
  </outline>
</glyph>
<glyph name="U" format="1">
  <advance width="500"/>
  <unicode hex="0055"/>
  <outline>
    <contour>
      <point x="113" y="746" type="curve" smooth="yes"/>
      <point x="91" y="572"/>
      <point x="25" y="265"/>
      <point x="115" y="104" type="curve" smooth="yes"/>
      <point x="152" y="38"/>
      <point x="239" y="-26"/>
      <point x="321" y="3" type="curve" smooth="yes"/>
      <point x="457" y="49"/>
      <point x="433" y="259"/>
      <point x="431" y="369" type="curve" smooth="yes"/>
      <point x="429" y="491"/>
      <point x="425" y="627"/>
      <point x="381" y="742" type="curve" smooth="yes"/>
      <point x="376" y="755"/>
      <point x="382" y="769"/>
      <point x="394" y="773" type="curve" smooth="yes"/>
      <point x="407" y="778"/>
      <point x="421" y="772"/>
      <point x="425" y="760" type="curve" smooth="yes"/>
      <point x="471" y="639"/>
      <point x="477" y="497"/>
      <point x="479" y="369" type="curve" smooth="yes"/>
      <point x="481" y="237"/>
      <point x="489" y="9"/>
      <point x="337" y="-43" type="curve" smooth="yes"/>
      <point x="235" y="-78"/>
      <point x="122" y="-6"/>
      <point x="73" y="80" type="curve" smooth="yes"/>
      <point x="-21" y="249"/>
      <point x="43" y="570"/>
      <point x="65" y="752" type="curve" smooth="yes"/>
      <point x="67" y="765"/>
      <point x="79" y="774"/>
      <point x="92" y="773" type="curve" smooth="yes"/>
      <point x="105" y="771"/>
      <point x="114" y="759"/>
    </contour>
  </outline>
</glyph>
<glyph name="V" format="1">
  <advance width="490.0"/>
  <unicode hex="0056"/>
  <outline>
    <contour>
      <point x="78" y="756" type="curve" smooth="yes"/>
      <point x="133" y="519"/>
      <point x="152" y="225"/>
      <point x="257" y="5" type="curve" smooth="yes"/>
      <point x="262" y="-6"/>
      <point x="257" y="-21"/>
      <point x="245" y="-27" type="curve" smooth="yes"/>
      <point x="234" y="-32"/>
      <point x="219" y="-27"/>
      <point x="213" y="-15" type="curve" smooth="yes"/>
      <point x="108" y="207"/>
      <point x="87" y="505"/>
      <point x="32" y="746" type="curve" smooth="yes"/>
      <point x="29" y="758"/>
      <point x="37" y="771"/>
      <point x="50" y="774" type="curve" smooth="yes"/>
      <point x="62" y="777"/>
      <point x="75" y="769"/>
    </contour>
    <contour>
      <point x="212" y="0" type="curve" smooth="yes"/>
      <point x="259" y="211"/>
      <point x="309" y="456"/>
      <point x="381" y="660" type="curve" smooth="yes"/>
      <point x="396" y="701"/>
      <point x="403" y="731"/>
      <point x="425" y="763" type="curve" smooth="yes"/>
      <point x="433" y="773"/>
      <point x="448" y="776"/>
      <point x="459" y="769" type="curve" smooth="yes"/>
      <point x="469" y="761"/>
      <point x="472" y="746"/>
      <point x="465" y="735" type="curve" smooth="yes"/>
      <point x="445" y="707"/>
      <point x="440" y="681"/>
      <point x="427" y="644" type="curve" smooth="yes"/>
      <point x="355" y="442"/>
      <point x="305" y="199"/>
      <point x="258" y="-10" type="curve" smooth="yes"/>
      <point x="256" y="-23"/>
      <point x="242" y="-31"/>
      <point x="230" y="-28" type="curve" smooth="yes"/>
      <point x="217" y="-26"/>
      <point x="209" y="-12"/>
    </contour>
  </outline>
</glyph>
<glyph name="X" format="1">
  <advance width="554.0"/>
  <unicode hex="0058"/>
  <outline>
    <contour>
      <point x="75" y="765" type="curve" smooth="yes"/>
      <point x="202" y="499"/>
      <point x="403" y="265"/>
      <point x="534" y="2" type="curve" smooth="yes"/>
      <point x="540" y="-10"/>
      <point x="535" y="-25"/>
      <point x="524" y="-30" type="curve" smooth="yes"/>
      <point x="512" y="-36"/>
      <point x="497" y="-31"/>
      <point x="492" y="-20" type="curve" smooth="yes"/>
      <point x="359" y="243"/>
      <point x="158" y="479"/>
      <point x="31" y="745" type="curve" smooth="yes"/>
      <point x="26" y="756"/>
      <point x="31" y="771"/>
      <point x="43" y="777" type="curve" smooth="yes"/>
      <point x="54" y="782"/>
      <point x="69" y="777"/>
    </contour>
    <contour>
      <point x="490" y="734" type="curve" smooth="yes"/>
      <point x="308" y="508"/>
      <point x="190" y="239"/>
      <point x="71" y="-19" type="curve" smooth="yes"/>
      <point x="65" y="-31"/>
      <point x="51" y="-36"/>
      <point x="39" y="-31" type="curve" smooth="yes"/>
      <point x="27" y="-25"/>
      <point x="22" y="-11"/>
      <point x="27" y="1" type="curve" smooth="yes"/>
      <point x="148" y="263"/>
      <point x="268" y="536"/>
      <point x="452" y="764" type="curve" smooth="yes"/>
      <point x="460" y="774"/>
      <point x="476" y="776"/>
      <point x="486" y="768" type="curve" smooth="yes"/>
      <point x="496" y="760"/>
      <point x="498" y="744"/>
    </contour>
  </outline>
</glyph>
<glyph name="Z" format="1">
  <advance width="556"/>
  <unicode hex="005A"/>
  <outline>
    <contour>
      <point x="70" y="753" type="curve" smooth="yes"/>
      <point x="207" y="756"/>
      <point x="339" y="770"/>
      <point x="476" y="773" type="curve" smooth="yes"/>
      <point x="511" y="774"/>
      <point x="519" y="747"/>
      <point x="490" y="729" type="curve" smooth="yes"/>
      <point x="291" y="600"/>
      <point x="35" y="241"/>
      <point x="71" y="-12" type="curve"/>
      <point x="44" y="9" type="line"/>
      <point x="194" y="30"/>
      <point x="367" y="45"/>
      <point x="515" y="19" type="curve" smooth="yes"/>
      <point x="528" y="16"/>
      <point x="537" y="4"/>
      <point x="535" y="-9" type="curve" smooth="yes"/>
      <point x="532" y="-22"/>
      <point x="520" y="-31"/>
      <point x="507" y="-29" type="curve" smooth="yes"/>
      <point x="363" y="-3"/>
      <point x="196" y="-18"/>
      <point x="50" y="-39" type="curve" smooth="yes"/>
      <point x="37" y="-41"/>
      <point x="25" y="-31"/>
      <point x="23" y="-18" type="curve" smooth="yes"/>
      <point x="-15" y="249"/>
      <point x="253" y="632"/>
      <point x="464" y="769" type="curve"/>
      <point x="478" y="725" type="line"/>
      <point x="341" y="722"/>
      <point x="209" y="708"/>
      <point x="72" y="705" type="curve" smooth="yes"/>
      <point x="59" y="705"/>
      <point x="47" y="716"/>
      <point x="47" y="728" type="curve" smooth="yes"/>
      <point x="47" y="741"/>
      <point x="58" y="753"/>
    </contour>
  </outline>
</glyph>
<glyph name="bracketleft" format="1">
  <advance width="274"/>
  <unicode hex="005B"/>
  <outline>
    <contour>
      <point x="199" y="752" type="curve" smooth="yes"/>
      <point x="163" y="763"/>
      <point x="115" y="759"/>
      <point x="97" y="750" type="curve"/>
      <point x="110" y="765" type="line"/>
      <point x="84" y="684"/>
      <point x="98" y="87"/>
      <point x="119" y="-23" type="curve"/>
      <point x="102" y="-4" type="line"/>
      <point x="135" y="-14"/>
      <point x="169" y="-14"/>
      <point x="203" y="-5" type="curve" smooth="yes"/>
      <point x="215" y="-1"/>
      <point x="229" y="-9"/>
      <point x="232" y="-22" type="curve" smooth="yes"/>
      <point x="236" y="-34"/>
      <point x="228" y="-48"/>
      <point x="215" y="-51" type="curve" smooth="yes"/>
      <point x="173" y="-62"/>
      <point x="131" y="-62"/>
      <point x="88" y="-50" type="curve" smooth="yes"/>
      <point x="81" y="-48"/>
      <point x="73" y="-39"/>
      <point x="71" y="-31" type="curve" smooth="yes"/>
      <point x="50" y="81"/>
      <point x="38" y="696"/>
      <point x="64" y="779" type="curve" smooth="yes"/>
      <point x="66" y="785"/>
      <point x="71" y="791"/>
      <point x="77" y="794" type="curve" smooth="yes"/>
      <point x="101" y="805"/>
      <point x="165" y="813"/>
      <point x="213" y="798" type="curve" smooth="yes"/>
      <point x="225" y="794"/>
      <point x="233" y="780"/>
      <point x="229" y="768" type="curve" smooth="yes"/>
      <point x="225" y="756"/>
      <point x="211" y="748"/>
    </contour>
  </outline>
</glyph>
<glyph name="backslash" format="1">
  <advance width="500"/>
  <unicode hex="005C"/>
  <outline>
    <contour>
      <point x="66" y="743" type="curve" smooth="yes"/>
      <point x="109" y="709"/>
      <point x="403" y="62"/>
      <point x="473" y="27" type="curve" smooth="yes"/>
      <point x="484" y="22"/>
      <point x="489" y="7"/>
      <point x="483" y="-5" type="curve" smooth="yes"/>
      <point x="478" y="-16"/>
      <point x="463" y="-21"/>
      <point x="451" y="-15" type="curve" smooth="yes"/>
      <point x="381" y="20"/>
      <point x="81" y="671"/>
      <point x="36" y="705" type="curve" smooth="yes"/>
      <point x="26" y="713"/>
      <point x="24" y="728"/>
      <point x="32" y="739" type="curve" smooth="yes"/>
      <point x="40" y="749"/>
      <point x="55" y="751"/>
    </contour>
  </outline>
</glyph>
<glyph name="bracketright" format="1">
  <advance width="274"/>
  <unicode hex="005D"/>
  <outline>
    <contour>
      <point x="79" y="-5" type="curve" smooth="yes"/>
      <point x="113" y="-14"/>
      <point x="147" y="-14"/>
      <point x="180" y="-4" type="curve"/>
      <point x="163" y="-23" type="line"/>
      <point x="184" y="87"/>
      <point x="198" y="684"/>
      <point x="172" y="765" type="curve"/>
      <point x="185" y="750" type="line"/>
      <point x="167" y="759"/>
      <point x="119" y="763"/>
      <point x="83" y="752" type="curve" smooth="yes"/>
      <point x="71" y="748"/>
      <point x="57" y="756"/>
      <point x="53" y="768" type="curve" smooth="yes"/>
      <point x="49" y="780"/>
      <point x="57" y="794"/>
      <point x="69" y="798" type="curve" smooth="yes"/>
      <point x="117" y="813"/>
      <point x="181" y="805"/>
      <point x="205" y="794" type="curve" smooth="yes"/>
      <point x="211" y="791"/>
      <point x="216" y="785"/>
      <point x="218" y="779" type="curve" smooth="yes"/>
      <point x="244" y="696"/>
      <point x="232" y="81"/>
      <point x="211" y="-31" type="curve" smooth="yes"/>
      <point x="209" y="-39"/>
      <point x="201" y="-48"/>
      <point x="194" y="-50" type="curve" smooth="yes"/>
      <point x="151" y="-62"/>
      <point x="109" y="-62"/>
      <point x="67" y="-51" type="curve" smooth="yes"/>
      <point x="54" y="-48"/>
      <point x="46" y="-34"/>
      <point x="50" y="-22" type="curve" smooth="yes"/>
      <point x="53" y="-9"/>
      <point x="67" y="-1"/>
    </contour>
  </outline>
</glyph>
<glyph name="asciicircum" format="1">
  <advance width="480"/>
  <unicode hex="005E"/>
  <outline>
    <contour>
      <point x="43" y="397" type="curve"/>
      <point x="43" y="398" type="line"/>
      <point x="43" y="398"/>
      <point x="42" y="397"/>
      <point x="42" y="397" type="curve"/>
      <point x="42" y="397"/>
      <point x="43" y="396"/>
      <point x="43" y="396" type="curve" smooth="yes"/>
      <point x="70" y="479"/>
      <point x="192" y="657"/>
      <point x="231" y="707" type="curve"/>
      <point x="250" y="668" type="line"/>
      <point x="212" y="668" type="line"/>
      <point x="231" y="707" type="line"/>
      <point x="231" y="707"/>
      <point x="396" y="501"/>
      <point x="427" y="391" type="curve" smooth="yes"/>
      <point x="427" y="391"/>
      <point x="428" y="392"/>
      <point x="428" y="392" type="curve" smooth="yes"/>
      <point x="428" y="392"/>
      <point x="427" y="393"/>
      <point x="427" y="392" type="curve"/>
      <point x="396" y="501"/>
      <point x="231" y="707"/>
      <point x="232" y="706" type="curve" smooth="yes"/>
      <point x="232" y="706"/>
      <point x="231" y="708"/>
      <point x="231" y="707" type="curve" smooth="yes"/>
      <point x="192" y="657"/>
      <point x="70" y="479"/>
    </contour>
    <contour>
      <point x="-3" y="413" type="line" smooth="yes"/>
      <point x="26" y="497"/>
      <point x="152" y="685"/>
      <point x="193" y="737" type="curve" smooth="yes"/>
      <point x="213" y="762"/>
      <point x="246" y="764"/>
      <point x="268" y="738" type="curve" smooth="yes"/>
      <point x="269" y="737"/>
      <point x="440" y="519"/>
      <point x="473" y="406" type="curve" smooth="yes"/>
      <point x="481" y="379"/>
      <point x="464" y="352"/>
      <point x="440" y="346" type="curve"/>
      <point x="414" y="338"/>
      <point x="387" y="355"/>
      <point x="381" y="379" type="curve" smooth="yes"/>
      <point x="352" y="483"/>
      <point x="193" y="677"/>
      <point x="193" y="677" type="curve" smooth="yes"/>
      <point x="176" y="698"/>
      <point x="185" y="716"/>
      <point x="212" y="716" type="curve" smooth="yes"/>
      <point x="250" y="716" type="line" smooth="yes"/>
      <point x="277" y="716"/>
      <point x="285" y="699"/>
      <point x="269" y="677" type="curve" smooth="yes"/>
      <point x="232" y="629"/>
      <point x="114" y="461"/>
      <point x="89" y="382" type="curve" smooth="yes"/>
      <point x="81" y="358"/>
      <point x="54" y="343"/>
      <point x="28" y="351" type="curve" smooth="yes"/>
      <point x="4" y="359"/>
      <point x="-11" y="386"/>
      <point x="-3" y="412" type="curve" smooth="yes"/>
    </contour>
  </outline>
</glyph>
<glyph name="a" format="1">
  <advance width="513.0"/>
  <unicode hex="0061"/>
  <outline>
    <contour>
      <point x="76" y="491" type="move"/>
      <point x="124" y="527"/>
      <point x="193" y="548"/>
      <point x="234" y="548" type="curve" smooth="yes"/>
      <point x="283" y="548"/>
      <point x="336" y="536"/>
      <point x="367" y="509" type="curve" smooth="yes"/>
      <point x="394" y="486"/>
      <point x="431" y="432"/>
      <point x="425" y="366" type="curve" smooth="yes"/>
      <point x="419" y="300"/>
      <point x="414" y="47"/>
      <point x="425" y="14" type="curve" smooth="yes"/>
      <point x="436" y="-19"/>
    </contour>
    <contour>
      <point x="367" y="295" type="move"/>
      <point x="324" y="304"/>
      <point x="265" y="296"/>
      <point x="227" y="282" type="curve" smooth="yes"/>
      <point x="182" y="266"/>
      <point x="134" y="241"/>
      <point x="110" y="208" type="curve" smooth="yes"/>
      <point x="87" y="177"/>
      <point x="62" y="136"/>
      <point x="78" y="84" type="curve" smooth="yes"/>
      <point x="91" y="41"/>
      <point x="139" y="15"/>
      <point x="160" y="5" type="curve" smooth="yes"/>
      <point x="193" y="-11"/>
      <point x="329" y="-15"/>
      <point x="361" y="13" type="curve" smooth="yes"/>
      <point x="393" y="41"/>
    </contour>
  </outline>
</glyph>
<glyph name="b" format="1">
  <advance width="472.0"/>
  <unicode hex="0062"/>
  <outline>
    <contour>
      <point x="80" y="755" type="move"/>
      <point x="38" y="506"/>
      <point x="40" y="73"/>
      <point x="83" y="20" type="curve"/>
      <point x="123" y="-21"/>
      <point x="246" y="16"/>
      <point x="286" y="39" type="curve" smooth="yes"/>
      <point x="329" y="63"/>
      <point x="404" y="112"/>
      <point x="424" y="263" type="curve" smooth="yes"/>
      <point x="441" y="388"/>
      <point x="405" y="469"/>
      <point x="359" y="513" type="curve" smooth="yes"/>
      <point x="302" y="568"/>
      <point x="147" y="598"/>
      <point x="112" y="429" type="curve"/>
    </contour>
  </outline>
</glyph>
<glyph name="c" format="1">
  <advance width="533.0"/>
  <unicode hex="0063"/>
  <outline>
    <contour>
      <point x="498" y="447" type="move"/>
      <point x="468" y="518"/>
      <point x="372" y="555"/>
      <point x="296" y="558" type="curve" smooth="yes"/>
      <point x="109" y="565"/>
      <point x="33" y="402"/>
      <point x="43" y="242" type="curve" smooth="yes"/>
      <point x="57" y="19"/>
      <point x="199" y="-6"/>
      <point x="301" y="-5" type="curve" smooth="yes"/>
      <point x="403" y="-4"/>
      <point x="482" y="64"/>
      <point x="496" y="128" type="curve" smooth="yes"/>
      <point x="510" y="192"/>
    </contour>
  </outline>
</glyph>
<glyph name="d" format="1">
  <advance width="500"/>
  <unicode hex="0064"/>
  <outline>
    <contour>
      <point x="370" y="476" type="move"/>
      <point x="363" y="537"/>
      <point x="258" y="569"/>
      <point x="205" y="547" type="curve" smooth="yes"/>
      <point x="79" y="495"/>
      <point x="42" y="334"/>
      <point x="51" y="218" type="curve" smooth="yes"/>
      <point x="61" y="96"/>
      <point x="99" y="-18"/>
      <point x="238" y="-3" type="curve" smooth="yes"/>
      <point x="377" y="12"/>
      <point x="463" y="161"/>
      <point x="448" y="352" type="curve" smooth="yes"/>
      <point x="432" y="560"/>
      <point x="408" y="677"/>
      <point x="397" y="738" type="curve" smooth="yes"/>
      <point x="389" y="783"/>
    </contour>
  </outline>
</glyph>
<glyph name="f" format="1">
  <advance width="566"/>
  <unicode hex="0066"/>
  <outline>
    <contour>
      <point x="60" y="712" type="curve" smooth="yes"/>
      <point x="159" y="718"/>
      <point x="449" y="715"/>
      <point x="494" y="706" type="curve" smooth="yes"/>
      <point x="507" y="703"/>
      <point x="515" y="690"/>
      <point x="513" y="677" type="curve" smooth="yes"/>
      <point x="510" y="664"/>
      <point x="497" y="656"/>
      <point x="484" y="658" type="curve" smooth="yes"/>
      <point x="441" y="667"/>
      <point x="159" y="670"/>
      <point x="62" y="664" type="curve" smooth="yes"/>
      <point x="50" y="663"/>
      <point x="38" y="674"/>
      <point x="37" y="687" type="curve" smooth="yes"/>
      <point x="36" y="699"/>
      <point x="47" y="711"/>
    </contour>
    <contour>
      <point x="143" y="686" type="curve" smooth="yes"/>
      <point x="141" y="594"/>
      <point x="150" y="380"/>
      <point x="154" y="327" type="curve" smooth="yes"/>
      <point x="155" y="314"/>
      <point x="145" y="302"/>
      <point x="132" y="301" type="curve" smooth="yes"/>
      <point x="119" y="300"/>
      <point x="107" y="310"/>
      <point x="106" y="323" type="curve" smooth="yes"/>
      <point x="102" y="378"/>
      <point x="93" y="594"/>
      <point x="95" y="688" type="curve" smooth="yes"/>
      <point x="95" y="700"/>
      <point x="107" y="711"/>
      <point x="120" y="711" type="curve" smooth="yes"/>
      <point x="132" y="711"/>
      <point x="143" y="699"/>
    </contour>
    <contour>
      <point x="53" y="519" type="curve" smooth="yes"/>
      <point x="100" y="519"/>
      <point x="352" y="514"/>
      <point x="352" y="514" type="curve" smooth="yes"/>
      <point x="365" y="514"/>
      <point x="376" y="502"/>
      <point x="376" y="490" type="curve" smooth="yes"/>
      <point x="376" y="477"/>
      <point x="364" y="466"/>
      <point x="352" y="466" type="curve" smooth="yes"/>
      <point x="351" y="466"/>
      <point x="100" y="471"/>
      <point x="53" y="471" type="curve" smooth="yes"/>
      <point x="40" y="471"/>
      <point x="29" y="482"/>
      <point x="29" y="495" type="curve" smooth="yes"/>
      <point x="29" y="508"/>
      <point x="40" y="519"/>
    </contour>
    <contour>
      <point x="24" y="250" type="curve" smooth="yes"/>
      <point x="142" y="249"/>
      <point x="473" y="262"/>
      <point x="548" y="251" type="curve" smooth="yes"/>
      <point x="560" y="249"/>
      <point x="570" y="236"/>
      <point x="568" y="223" type="curve" smooth="yes"/>
      <point x="566" y="211"/>
      <point x="553" y="201"/>
      <point x="540" y="203" type="curve" smooth="yes"/>
      <point x="467" y="214"/>
      <point x="140" y="201"/>
      <point x="24" y="202" type="curve" smooth="yes"/>
      <point x="11" y="202"/>
      <point x="0" y="213"/>
      <point x="0" y="226" type="curve" smooth="yes"/>
      <point x="0" y="239"/>
      <point x="11" y="250"/>
    </contour>
  </outline>
</glyph>
<glyph name="g" format="1">
  <advance width="500"/>
  <unicode hex="0067"/>
  <outline>
    <contour>
      <point x="431" y="552" type="move"/>
      <point x="435" y="411"/>
      <point x="561" y="-236"/>
      <point x="266" y="-246" type="curve" smooth="yes"/>
      <point x="207" y="-248"/>
      <point x="102" y="-194"/>
      <point x="82" y="-123" type="curve" smooth="yes"/>
      <point x="61" y="-50"/>
    </contour>
    <contour>
      <point x="435" y="480" type="move"/>
      <point x="390" y="512"/>
      <point x="346" y="566"/>
      <point x="246" y="564" type="curve" smooth="yes"/>
      <point x="163" y="562"/>
      <point x="79" y="524"/>
      <point x="52" y="395" type="curve" smooth="yes"/>
      <point x="20" y="244"/>
      <point x="111" y="154"/>
      <point x="249" y="147" type="curve" smooth="yes"/>
      <point x="350" y="142"/>
      <point x="403" y="186"/>
      <point x="412" y="227" type="curve"/>
    </contour>
  </outline>
</glyph>
<glyph name="h" format="1">
  <advance width="471.0"/>
  <unicode hex="0068"/>
  <outline>
    <contour>
      <point x="50" y="745" type="move"/>
      <point x="47" y="575"/>
      <point x="53" y="169"/>
      <point x="78" y="13" type="curve" smooth="yes"/>
      <point x="103" y="-143"/>
    </contour>
    <contour>
      <point x="55" y="330" type="move"/>
      <point x="70" y="449"/>
      <point x="172" y="558"/>
      <point x="283" y="543" type="curve" smooth="yes"/>
      <point x="409" y="526"/>
      <point x="441" y="379"/>
      <point x="429" y="261" type="curve" smooth="yes"/>
      <point x="422" y="191"/>
      <point x="406" y="92"/>
      <point x="400" y="-1" type="curve" smooth="yes"/>
      <point x="395" y="-81"/>
    </contour>
  </outline>
</glyph>
<glyph name="i" format="1">
  <advance width="244"/>
  <unicode hex="0069"/>
  <outline>
    <contour>
      <point x="156" y="522" type="curve" smooth="yes"/>
      <point x="163" y="462"/>
      <point x="162" y="153"/>
      <point x="153" y="121" type="curve" smooth="yes"/>
      <point x="149" y="109"/>
      <point x="136" y="101"/>
      <point x="123" y="105" type="curve" smooth="yes"/>
      <point x="111" y="109"/>
      <point x="103" y="122"/>
      <point x="107" y="135" type="curve" smooth="yes"/>
      <point x="116" y="165"/>
      <point x="115" y="460"/>
      <point x="108" y="516" type="curve" smooth="yes"/>
      <point x="107" y="529"/>
      <point x="116" y="541"/>
      <point x="129" y="543" type="curve" smooth="yes"/>
      <point x="142" y="544"/>
      <point x="154" y="535"/>
    </contour>
    <contour>
      <point x="151" y="38" type="curve" smooth="yes"/>
      <point x="151" y="38"/>
      <point x="150" y="27"/>
      <point x="148" y="7" type="curve" smooth="yes"/>
      <point x="147" y="-6"/>
      <point x="135" y="-16"/>
      <point x="122" y="-15" type="curve" smooth="yes"/>
      <point x="109" y="-14"/>
      <point x="99" y="-2"/>
      <point x="100" y="11" type="curve" smooth="yes"/>
      <point x="102" y="31"/>
      <point x="103" y="42"/>
      <point x="103" y="42" type="curve" smooth="yes"/>
      <point x="104" y="55"/>
      <point x="116" y="65"/>
      <point x="129" y="64" type="curve" smooth="yes"/>
      <point x="142" y="63"/>
      <point x="152" y="51"/>
    </contour>
  </outline>
</glyph>
<glyph name="j" format="1">
  <advance width="648"/>
  <unicode hex="006A"/>
  <outline>
    <contour>
      <point x="106" y="716" type="curve" smooth="yes"/>
      <point x="174" y="720"/>
      <point x="573" y="716"/>
      <point x="599" y="706" type="curve" smooth="yes"/>
      <point x="611" y="701"/>
      <point x="617" y="687"/>
      <point x="612" y="675" type="curve" smooth="yes"/>
      <point x="607" y="663"/>
      <point x="593" y="657"/>
      <point x="581" y="662" type="curve" smooth="yes"/>
      <point x="557" y="672"/>
      <point x="174" y="672"/>
      <point x="108" y="668" type="curve" smooth="yes"/>
      <point x="95" y="667"/>
      <point x="84" y="678"/>
      <point x="83" y="691" type="curve" smooth="yes"/>
      <point x="82" y="704"/>
      <point x="93" y="715"/>
    </contour>
    <contour>
      <point x="385" y="699" type="curve" smooth="yes"/>
      <point x="386" y="674"/>
      <point x="445" y="443"/>
      <point x="390" y="329" type="curve" smooth="yes"/>
      <point x="315" y="177"/>
      <point x="127" y="216"/>
      <point x="95" y="320" type="curve" smooth="yes"/>
      <point x="91" y="332"/>
      <point x="99" y="346"/>
      <point x="111" y="350" type="curve" smooth="yes"/>
      <point x="123" y="354"/>
      <point x="137" y="346"/>
      <point x="141" y="334" type="curve" smooth="yes"/>
      <point x="165" y="254"/>
      <point x="303" y="263"/>
      <point x="346" y="349" type="curve" smooth="yes"/>
      <point x="399" y="457"/>
      <point x="338" y="674"/>
      <point x="337" y="697" type="curve" smooth="yes"/>
      <point x="336" y="710"/>
      <point x="347" y="721"/>
      <point x="360" y="722" type="curve" smooth="yes"/>
      <point x="373" y="723"/>
      <point x="384" y="712"/>
    </contour>
    <contour>
      <point x="50" y="193" type="curve" smooth="yes"/>
      <point x="111" y="189"/>
      <point x="566" y="209"/>
      <point x="613" y="198" type="curve" smooth="yes"/>
      <point x="625" y="195"/>
      <point x="633" y="182"/>
      <point x="630" y="169" type="curve" smooth="yes"/>
      <point x="627" y="157"/>
      <point x="614" y="149"/>
      <point x="601" y="152" type="curve" smooth="yes"/>
      <point x="556" y="163"/>
      <point x="107" y="141"/>
      <point x="46" y="145" type="curve" smooth="yes"/>
      <point x="33" y="146"/>
      <point x="23" y="158"/>
      <point x="24" y="171" type="curve" smooth="yes"/>
      <point x="25" y="184"/>
      <point x="37" y="194"/>
    </contour>
  </outline>
</glyph>
<glyph name="k" format="1">
  <advance width="581"/>
  <unicode hex="006B"/>
  <outline>
    <contour>
      <point x="79" y="721" type="curve" smooth="yes"/>
      <point x="84" y="655"/>
      <point x="93" y="366"/>
      <point x="88" y="291" type="curve" smooth="yes"/>
      <point x="87" y="278"/>
      <point x="75" y="268"/>
      <point x="62" y="269" type="curve" smooth="yes"/>
      <point x="49" y="270"/>
      <point x="39" y="282"/>
      <point x="40" y="295" type="curve" smooth="yes"/>
      <point x="45" y="368"/>
      <point x="36" y="653"/>
      <point x="31" y="717" type="curve" smooth="yes"/>
      <point x="30" y="730"/>
      <point x="40" y="742"/>
      <point x="53" y="743" type="curve" smooth="yes"/>
      <point x="66" y="744"/>
      <point x="78" y="734"/>
    </contour>
    <contour>
      <point x="446" y="706" type="curve" smooth="yes"/>
      <point x="371" y="646"/>
      <point x="178" y="446"/>
      <point x="68" y="451" type="curve"/>
      <point x="77" y="498" type="line"/>
      <point x="77" y="498"/>
      <point x="392" y="387"/>
      <point x="466" y="288" type="curve" smooth="yes"/>
      <point x="474" y="278"/>
      <point x="472" y="263"/>
      <point x="461" y="255" type="curve" smooth="yes"/>
      <point x="451" y="247"/>
      <point x="436" y="249"/>
      <point x="428" y="260" type="curve" smooth="yes"/>
      <point x="358" y="353"/>
      <point x="61" y="452"/>
      <point x="61" y="452" type="curve" smooth="yes"/>
      <point x="24" y="465"/>
      <point x="31" y="501"/>
      <point x="70" y="499" type="curve" smooth="yes"/>
      <point x="172" y="494"/>
      <point x="347" y="688"/>
      <point x="416" y="744" type="curve" smooth="yes"/>
      <point x="426" y="752"/>
      <point x="442" y="750"/>
      <point x="450" y="740" type="curve" smooth="yes"/>
      <point x="458" y="730"/>
      <point x="456" y="714"/>
    </contour>
    <contour>
      <point x="-49" y="223" type="curve" smooth="yes"/>
      <point x="21" y="233"/>
      <point x="500" y="229"/>
      <point x="546" y="222" type="curve" smooth="yes"/>
      <point x="558" y="220"/>
      <point x="568" y="207"/>
      <point x="566" y="194" type="curve" smooth="yes"/>
      <point x="564" y="182"/>
      <point x="551" y="172"/>
      <point x="538" y="174" type="curve" smooth="yes"/>
      <point x="494" y="181"/>
      <point x="27" y="185"/>
      <point x="-43" y="175" type="curve" smooth="yes"/>
      <point x="-55" y="173"/>
      <point x="-68" y="183"/>
      <point x="-70" y="196" type="curve" smooth="yes"/>
      <point x="-72" y="208"/>
      <point x="-62" y="221"/>
    </contour>
  </outline>
</glyph>
<glyph name="l" format="1">
  <advance width="635"/>
  <unicode hex="006C"/>
  <outline>
    <contour>
      <point x="161" y="744" type="curve" smooth="yes"/>
      <point x="156" y="696"/>
      <point x="146" y="337"/>
      <point x="157" y="306" type="curve"/>
      <point x="136" y="322" type="line"/>
      <point x="136" y="322"/>
      <point x="459" y="295"/>
      <point x="511" y="326" type="curve" smooth="yes"/>
      <point x="522" y="332"/>
      <point x="537" y="328"/>
      <point x="544" y="317" type="curve" smooth="yes"/>
      <point x="550" y="306"/>
      <point x="546" y="291"/>
      <point x="535" y="284" type="curve" smooth="yes"/>
      <point x="481" y="251"/>
      <point x="132" y="274"/>
      <point x="132" y="274" type="curve" smooth="yes"/>
      <point x="124" y="275"/>
      <point x="114" y="282"/>
      <point x="111" y="290" type="curve" smooth="yes"/>
      <point x="100" y="323"/>
      <point x="108" y="698"/>
      <point x="113" y="748" type="curve" smooth="yes"/>
      <point x="114" y="761"/>
      <point x="127" y="771"/>
      <point x="139" y="770" type="curve" smooth="yes"/>
      <point x="152" y="769"/>
      <point x="162" y="756"/>
    </contour>
    <contour>
      <point x="39" y="244" type="curve" smooth="yes"/>
      <point x="97" y="244"/>
      <point x="537" y="222"/>
      <point x="598" y="245" type="curve" smooth="yes"/>
      <point x="610" y="249"/>
      <point x="624" y="242"/>
      <point x="629" y="230" type="curve" smooth="yes"/>
      <point x="633" y="218"/>
      <point x="626" y="204"/>
      <point x="614" y="199" type="curve" smooth="yes"/>
      <point x="551" y="176"/>
      <point x="99" y="196"/>
      <point x="39" y="196" type="curve" smooth="yes"/>
      <point x="26" y="196"/>
      <point x="15" y="207"/>
      <point x="15" y="220" type="curve" smooth="yes"/>
      <point x="15" y="233"/>
      <point x="26" y="244"/>
    </contour>
  </outline>
</glyph>
<glyph name="m" format="1">
  <advance width="783"/>
  <unicode hex="006D"/>
  <outline>
    <contour>
      <point x="70" y="288" type="curve" smooth="yes"/>
      <point x="69" y="374"/>
      <point x="98" y="733"/>
      <point x="114" y="751" type="curve" smooth="yes"/>
      <point x="124" y="764"/>
      <point x="141" y="764"/>
      <point x="151" y="750" type="curve" smooth="yes"/>
      <point x="152" y="750"/>
      <point x="365" y="455"/>
      <point x="436" y="352" type="curve"/>
      <point x="393" y="345" type="line"/>
      <point x="418" y="423"/>
      <point x="536" y="701"/>
      <point x="597" y="764" type="curve" smooth="yes"/>
      <point x="606" y="774"/>
      <point x="622" y="774"/>
      <point x="631" y="764" type="curve" smooth="yes"/>
      <point x="689" y="704"/>
      <point x="728" y="332"/>
      <point x="727" y="279" type="curve" smooth="yes"/>
      <point x="727" y="266"/>
      <point x="715" y="255"/>
      <point x="703" y="255" type="curve" smooth="yes"/>
      <point x="690" y="255"/>
      <point x="679" y="267"/>
      <point x="679" y="279" type="curve" smooth="yes"/>
      <point x="680" y="328"/>
      <point x="651" y="674"/>
      <point x="597" y="730" type="curve"/>
      <point x="631" y="730" type="line"/>
      <point x="574" y="671"/>
      <point x="462" y="405"/>
      <point x="439" y="331" type="curve" smooth="yes"/>
      <point x="431" y="305"/>
      <point x="411" y="302"/>
      <point x="396" y="324" type="curve" smooth="yes"/>
      <point x="325" y="427"/>
      <point x="113" y="722"/>
      <point x="113" y="722" type="curve"/>
      <point x="150" y="721" type="line"/>
      <point x="136" y="703"/>
      <point x="117" y="368"/>
      <point x="118" y="288" type="curve" smooth="yes"/>
      <point x="118" y="275"/>
      <point x="107" y="264"/>
      <point x="94" y="264" type="curve" smooth="yes"/>
      <point x="81" y="264"/>
      <point x="70" y="275"/>
    </contour>
    <contour>
      <point x="38" y="230" type="curve" smooth="yes"/>
      <point x="96" y="235"/>
      <point x="697" y="234"/>
      <point x="742" y="230" type="curve" smooth="yes"/>
      <point x="755" y="229"/>
      <point x="765" y="217"/>
      <point x="764" y="204" type="curve" smooth="yes"/>
      <point x="763" y="191"/>
      <point x="751" y="181"/>
      <point x="738" y="182" type="curve" smooth="yes"/>
      <point x="693" y="186"/>
      <point x="100" y="187"/>
      <point x="42" y="182" type="curve" smooth="yes"/>
      <point x="29" y="181"/>
      <point x="17" y="191"/>
      <point x="16" y="204" type="curve" smooth="yes"/>
      <point x="15" y="217"/>
      <point x="25" y="229"/>
    </contour>
  </outline>
</glyph>
<glyph name="n" format="1">
  <advance width="525.0"/>
  <unicode hex="006E"/>
  <outline>
    <contour>
      <point x="53" y="255" type="curve" smooth="yes"/>
      <point x="57" y="319"/>
      <point x="33" y="661"/>
      <point x="68" y="744" type="curve" smooth="yes"/>
      <point x="77" y="765"/>
      <point x="95" y="768"/>
      <point x="109" y="750" type="curve" smooth="yes"/>
      <point x="173" y="666"/>
      <point x="387" y="358"/>
      <point x="456" y="289" type="curve"/>
      <point x="415" y="273" type="line"/>
      <point x="415" y="273"/>
      <point x="428" y="730"/>
      <point x="428" y="730" type="curve" smooth="yes"/>
      <point x="428" y="743"/>
      <point x="440" y="753"/>
      <point x="453" y="753" type="curve" smooth="yes"/>
      <point x="466" y="753"/>
      <point x="476" y="741"/>
      <point x="476" y="728" type="curve" smooth="yes"/>
      <point x="476" y="728"/>
      <point x="463" y="271"/>
      <point x="463" y="271" type="curve" smooth="yes"/>
      <point x="462" y="242"/>
      <point x="442" y="235"/>
      <point x="422" y="255" type="curve" smooth="yes"/>
      <point x="353" y="324"/>
      <point x="135" y="636"/>
      <point x="71" y="720" type="curve"/>
      <point x="112" y="726" type="line"/>
      <point x="79" y="645"/>
      <point x="105" y="313"/>
      <point x="101" y="251" type="curve" smooth="yes"/>
      <point x="100" y="239"/>
      <point x="88" y="228"/>
      <point x="75" y="229" type="curve" smooth="yes"/>
      <point x="63" y="230"/>
      <point x="52" y="242"/>
    </contour>
    <contour>
      <point x="46" y="222" type="curve" smooth="yes"/>
      <point x="98" y="216"/>
      <point x="413" y="215"/>
      <point x="456" y="227" type="curve" smooth="yes"/>
      <point x="468" y="231"/>
      <point x="482" y="223"/>
      <point x="485" y="210" type="curve" smooth="yes"/>
      <point x="489" y="198"/>
      <point x="481" y="184"/>
      <point x="468" y="181" type="curve" smooth="yes"/>
      <point x="425" y="169"/>
      <point x="96" y="168"/>
      <point x="40" y="174" type="curve" smooth="yes"/>
      <point x="27" y="176"/>
      <point x="18" y="188"/>
      <point x="19" y="201" type="curve" smooth="yes"/>
      <point x="21" y="214"/>
      <point x="33" y="223"/>
    </contour>
  </outline>
</glyph>
<glyph name="o" format="1">
  <advance width="500"/>
  <unicode hex="006F"/>
  <outline>
    <contour>
      <point x="260" y="692" type="curve" smooth="yes"/>
      <point x="142" y="686"/>
      <point x="76" y="594"/>
      <point x="79" y="479" type="curve" smooth="yes"/>
      <point x="81" y="395"/>
      <point x="166" y="298"/>
      <point x="260" y="299" type="curve" smooth="yes"/>
      <point x="355" y="300"/>
      <point x="425" y="388"/>
      <point x="435" y="485" type="curve" smooth="yes"/>
      <point x="446" y="581"/>
      <point x="377" y="698"/>
    </contour>
    <contour>
      <point x="258" y="740" type="curve" smooth="yes"/>
      <point x="405" y="748"/>
      <point x="496" y="603"/>
      <point x="483" y="479" type="curve" smooth="yes"/>
      <point x="469" y="356"/>
      <point x="377" y="252"/>
      <point x="260" y="251" type="curve" smooth="yes"/>
      <point x="142" y="250"/>
      <point x="33" y="371"/>
      <point x="31" y="477" type="curve" smooth="yes"/>
      <point x="28" y="622"/>
      <point x="112" y="732"/>
    </contour>
    <contour>
      <point x="23" y="245" type="curve" smooth="yes"/>
      <point x="75" y="239"/>
      <point x="379" y="210"/>
      <point x="460" y="233" type="curve" smooth="yes"/>
      <point x="473" y="237"/>
      <point x="486" y="229"/>
      <point x="490" y="217" type="curve" smooth="yes"/>
      <point x="494" y="204"/>
      <point x="486" y="191"/>
      <point x="474" y="187" type="curve" smooth="yes"/>
      <point x="389" y="162"/>
      <point x="71" y="191"/>
      <point x="17" y="197" type="curve" smooth="yes"/>
      <point x="4" y="199"/>
      <point x="-5" y="211"/>
      <point x="-4" y="224" type="curve" smooth="yes"/>
      <point x="-2" y="237"/>
      <point x="10" y="246"/>
    </contour>
  </outline>
</glyph>
<glyph name="p" format="1">
  <advance width="500"/>
  <unicode hex="0070"/>
  <outline>
    <contour>
      <point x="132" y="731" type="curve" smooth="yes"/>
      <point x="135" y="682"/>
      <point x="160" y="341"/>
      <point x="146" y="308" type="curve" smooth="yes"/>
      <point x="141" y="297"/>
      <point x="126" y="291"/>
      <point x="114" y="296" type="curve" smooth="yes"/>
      <point x="103" y="301"/>
      <point x="97" y="316"/>
      <point x="102" y="328" type="curve" smooth="yes"/>
      <point x="116" y="359"/>
      <point x="87" y="682"/>
      <point x="84" y="727" type="curve" smooth="yes"/>
      <point x="83" y="740"/>
      <point x="94" y="752"/>
      <point x="106" y="753" type="curve" smooth="yes"/>
      <point x="119" y="754"/>
      <point x="131" y="743"/>
    </contour>
    <contour>
      <point x="31" y="758" type="curve" smooth="yes"/>
      <point x="125" y="770"/>
      <point x="442" y="798"/>
      <point x="482" y="657" type="curve" smooth="yes"/>
      <point x="516" y="536"/>
      <point x="295" y="471"/>
      <point x="134" y="470" type="curve" smooth="yes"/>
      <point x="121" y="470"/>
      <point x="110" y="481"/>
      <point x="110" y="494" type="curve" smooth="yes"/>
      <point x="110" y="507"/>
      <point x="121" y="518"/>
      <point x="134" y="518" type="curve" smooth="yes"/>
      <point x="207" y="519"/>
      <point x="466" y="538"/>
      <point x="436" y="643" type="curve" smooth="yes"/>
      <point x="400" y="770"/>
      <point x="111" y="720"/>
      <point x="37" y="710" type="curve" smooth="yes"/>
      <point x="24" y="709"/>
      <point x="12" y="718"/>
      <point x="10" y="731" type="curve" smooth="yes"/>
      <point x="9" y="744"/>
      <point x="18" y="756"/>
    </contour>
    <contour>
      <point x="-7" y="257" type="curve" smooth="yes"/>
      <point x="48" y="274"/>
      <point x="445" y="277"/>
      <point x="492" y="262" type="curve" smooth="yes"/>
      <point x="504" y="258"/>
      <point x="511" y="244"/>
      <point x="507" y="231" type="curve" smooth="yes"/>
      <point x="503" y="219"/>
      <point x="489" y="212"/>
      <point x="476" y="216" type="curve" smooth="yes"/>
      <point x="433" y="231"/>
      <point x="60" y="228"/>
      <point x="7" y="211" type="curve" smooth="yes"/>
      <point x="-5" y="207"/>
      <point x="-19" y="214"/>
      <point x="-23" y="227" type="curve" smooth="yes"/>
      <point x="-27" y="239"/>
      <point x="-20" y="253"/>
    </contour>
  </outline>
</glyph>
<glyph name="q" format="1">
  <advance width="500"/>
  <unicode hex="0071"/>
  <outline>
    <contour>
      <point x="225" y="605" type="curve"/>
      <point x="225" y="605" type="line"/>
      <point x="118" y="608"/>
      <point x="68" y="511"/>
      <point x="70" y="429" type="curve" smooth="yes"/>
      <point x="72" y="337"/>
      <point x="157" y="268"/>
      <point x="243" y="263" type="curve" smooth="yes"/>
      <point x="350" y="256"/>
      <point x="423" y="318"/>
      <point x="427" y="414" type="curve" smooth="yes"/>
      <point x="432" y="512"/>
      <point x="356" y="601"/>
    </contour>
    <contour>
      <point x="227" y="653" type="line" smooth="yes"/>
      <point x="392" y="649"/>
      <point x="480" y="532"/>
      <point x="475" y="412" type="curve" smooth="yes"/>
      <point x="469" y="290"/>
      <point x="380" y="206"/>
      <point x="239" y="215" type="curve" smooth="yes"/>
      <point x="129" y="222"/>
      <point x="24" y="311"/>
      <point x="22" y="429" type="curve" smooth="yes"/>
      <point x="20" y="537"/>
      <point x="90" y="656"/>
      <point x="227" y="653" type="curve" smooth="yes"/>
    </contour>
    <contour>
      <point x="251" y="384" type="curve" smooth="yes"/>
      <point x="300" y="363"/>
      <point x="416" y="221"/>
      <point x="461" y="236" type="curve" smooth="yes"/>
      <point x="474" y="240"/>
      <point x="488" y="233"/>
      <point x="492" y="221" type="curve" smooth="yes"/>
      <point x="496" y="208"/>
      <point x="489" y="194"/>
      <point x="477" y="190" type="curve" smooth="yes"/>
      <point x="426" y="173"/>
      <point x="292" y="315"/>
      <point x="233" y="340" type="curve" smooth="yes"/>
      <point x="221" y="345"/>
      <point x="215" y="359"/>
      <point x="220" y="371" type="curve" smooth="yes"/>
      <point x="225" y="383"/>
      <point x="239" y="389"/>
    </contour>
    <contour>
      <point x="10" y="735" type="curve" smooth="yes"/>
      <point x="89" y="730"/>
      <point x="423" y="710"/>
      <point x="478" y="729" type="curve" smooth="yes"/>
      <point x="491" y="733"/>
      <point x="505" y="726"/>
      <point x="509" y="714" type="curve" smooth="yes"/>
      <point x="513" y="701"/>
      <point x="506" y="687"/>
      <point x="494" y="683" type="curve" smooth="yes"/>
      <point x="437" y="664"/>
      <point x="89" y="682"/>
      <point x="8" y="687" type="curve" smooth="yes"/>
      <point x="-5" y="688"/>
      <point x="-16" y="700"/>
      <point x="-15" y="712" type="curve" smooth="yes"/>
      <point x="-14" y="725"/>
      <point x="-2" y="736"/>
    </contour>
  </outline>
</glyph>
<glyph name="r" format="1">
  <advance width="589"/>
  <unicode hex="0072"/>
  <outline>
    <contour>
      <point x="131" y="718" type="curve" smooth="yes"/>
      <point x="133" y="640"/>
      <point x="143" y="386"/>
      <point x="139" y="340" type="curve" smooth="yes"/>
      <point x="138" y="327"/>
      <point x="126" y="317"/>
      <point x="113" y="318" type="curve" smooth="yes"/>
      <point x="100" y="319"/>
      <point x="90" y="331"/>
      <point x="91" y="344" type="curve" smooth="yes"/>
      <point x="95" y="390"/>
      <point x="85" y="640"/>
      <point x="83" y="716" type="curve" smooth="yes"/>
      <point x="83" y="729"/>
      <point x="93" y="741"/>
      <point x="106" y="741" type="curve" smooth="yes"/>
      <point x="119" y="741"/>
      <point x="131" y="731"/>
    </contour>
    <contour>
      <point x="51" y="750" type="curve" smooth="yes"/>
      <point x="197" y="767"/>
      <point x="533" y="761"/>
      <point x="537" y="625" type="curve" smooth="yes"/>
      <point x="541" y="488"/>
      <point x="243" y="474"/>
      <point x="121" y="472" type="curve" smooth="yes"/>
      <point x="109" y="472"/>
      <point x="97" y="483"/>
      <point x="97" y="496" type="curve" smooth="yes"/>
      <point x="97" y="508"/>
      <point x="108" y="520"/>
      <point x="121" y="520" type="curve" smooth="yes"/>
      <point x="201" y="522"/>
      <point x="493" y="502"/>
      <point x="489" y="623" type="curve" smooth="yes"/>
      <point x="485" y="745"/>
      <point x="153" y="713"/>
      <point x="57" y="702" type="curve" smooth="yes"/>
      <point x="44" y="701"/>
      <point x="32" y="710"/>
      <point x="30" y="723" type="curve" smooth="yes"/>
      <point x="29" y="736"/>
      <point x="38" y="748"/>
    </contour>
    <contour>
      <point x="311" y="516" type="curve" smooth="yes"/>
      <point x="377" y="455"/>
      <point x="473" y="361"/>
      <point x="519" y="356" type="curve" smooth="yes"/>
      <point x="532" y="355"/>
      <point x="542" y="342"/>
      <point x="541" y="330" type="curve" smooth="yes"/>
      <point x="540" y="317"/>
      <point x="527" y="307"/>
      <point x="515" y="308" type="curve" smooth="yes"/>
      <point x="463" y="313"/>
      <point x="353" y="411"/>
      <point x="279" y="482" type="curve" smooth="yes"/>
      <point x="269" y="490"/>
      <point x="269" y="506"/>
      <point x="278" y="515" type="curve" smooth="yes"/>
      <point x="286" y="525"/>
      <point x="302" y="525"/>
    </contour>
    <contour>
      <point x="32" y="282" type="curve" smooth="yes"/>
      <point x="95" y="298"/>
      <point x="527" y="296"/>
      <point x="561" y="277" type="curve" smooth="yes"/>
      <point x="573" y="271"/>
      <point x="577" y="256"/>
      <point x="571" y="245" type="curve" smooth="yes"/>
      <point x="565" y="233"/>
      <point x="550" y="229"/>
      <point x="539" y="235" type="curve" smooth="yes"/>
      <point x="507" y="252"/>
      <point x="103" y="250"/>
      <point x="44" y="236" type="curve" smooth="yes"/>
      <point x="31" y="233"/>
      <point x="18" y="241"/>
      <point x="15" y="253" type="curve" smooth="yes"/>
      <point x="12" y="266"/>
      <point x="20" y="279"/>
    </contour>
  </outline>
</glyph>
<glyph name="s" format="1">
  <advance width="604"/>
  <unicode hex="0073"/>
  <outline>
    <contour>
      <point x="510" y="655" type="curve" smooth="yes"/>
      <point x="469" y="719"/>
      <point x="393" y="720"/>
      <point x="331" y="716" type="curve" smooth="yes"/>
      <point x="268" y="712"/>
      <point x="127" y="632"/>
      <point x="129" y="535" type="curve" smooth="yes"/>
      <point x="130" y="488"/>
      <point x="236" y="487"/>
      <point x="313" y="489" type="curve" smooth="yes"/>
      <point x="460" y="493"/>
      <point x="569" y="440"/>
      <point x="561" y="345" type="curve" smooth="yes"/>
      <point x="552" y="238"/>
      <point x="174" y="155"/>
      <point x="81" y="246" type="curve" smooth="yes"/>
      <point x="72" y="255"/>
      <point x="72" y="271"/>
      <point x="81" y="280" type="curve" smooth="yes"/>
      <point x="90" y="289"/>
      <point x="106" y="289"/>
      <point x="115" y="280" type="curve" smooth="yes"/>
      <point x="182" y="213"/>
      <point x="506" y="256"/>
      <point x="513" y="349" type="curve" smooth="yes"/>
      <point x="519" y="426"/>
      <point x="404" y="443"/>
      <point x="315" y="441" type="curve" smooth="yes"/>
      <point x="164" y="437"/>
      <point x="82" y="474"/>
      <point x="81" y="535" type="curve" smooth="yes"/>
      <point x="79" y="652"/>
      <point x="248" y="758"/>
      <point x="327" y="764" type="curve" smooth="yes"/>
      <point x="407" y="770"/>
      <point x="499" y="761"/>
      <point x="550" y="681" type="curve" smooth="yes"/>
      <point x="557" y="670"/>
      <point x="554" y="655"/>
      <point x="543" y="648" type="curve" smooth="yes"/>
      <point x="532" y="641"/>
      <point x="517" y="644"/>
    </contour>
    <contour>
      <point x="18" y="172" type="curve" smooth="yes"/>
      <point x="99" y="174"/>
      <point x="548" y="201"/>
      <point x="592" y="176" type="curve" smooth="yes"/>
      <point x="604" y="170"/>
      <point x="608" y="155"/>
      <point x="602" y="144" type="curve" smooth="yes"/>
      <point x="596" y="132"/>
      <point x="581" y="128"/>
      <point x="570" y="134" type="curve" smooth="yes"/>
      <point x="526" y="157"/>
      <point x="97" y="126"/>
      <point x="20" y="124" type="curve" smooth="yes"/>
      <point x="7" y="124"/>
      <point x="-5" y="134"/>
      <point x="-5" y="147" type="curve" smooth="yes"/>
      <point x="-5" y="160"/>
      <point x="5" y="172"/>
    </contour>
  </outline>
</glyph>
<glyph name="t" format="1">
  <advance width="432"/>
  <unicode hex="0074"/>
  <outline>
    <contour>
      <point x="238" y="749" type="curve" smooth="yes"/>
      <point x="240" y="691"/>
      <point x="243" y="87"/>
      <point x="239" y="7" type="curve" smooth="yes"/>
      <point x="238" y="-6"/>
      <point x="227" y="-17"/>
      <point x="214" y="-16" type="curve" smooth="yes"/>
      <point x="201" y="-15"/>
      <point x="190" y="-4"/>
      <point x="191" y="9" type="curve" smooth="yes"/>
      <point x="195" y="89"/>
      <point x="192" y="689"/>
      <point x="190" y="747" type="curve" smooth="yes"/>
      <point x="190" y="760"/>
      <point x="200" y="772"/>
      <point x="213" y="772" type="curve" smooth="yes"/>
      <point x="226" y="772"/>
      <point x="238" y="762"/>
    </contour>
    <contour>
      <point x="27" y="561" type="curve" smooth="yes"/>
      <point x="85" y="585"/>
      <point x="348" y="612"/>
      <point x="403" y="594" type="curve" smooth="yes"/>
      <point x="416" y="590"/>
      <point x="423" y="576"/>
      <point x="419" y="564" type="curve" smooth="yes"/>
      <point x="415" y="551"/>
      <point x="401" y="544"/>
      <point x="389" y="548" type="curve" smooth="yes"/>
      <point x="338" y="564"/>
      <point x="99" y="539"/>
      <point x="45" y="517" type="curve" smooth="yes"/>
      <point x="33" y="512"/>
      <point x="19" y="518"/>
      <point x="14" y="530" type="curve" smooth="yes"/>
      <point x="9" y="542"/>
      <point x="15" y="556"/>
    </contour>
  </outline>
</glyph>
<glyph name="u" format="1">
  <advance width="545"/>
  <unicode hex="0075"/>
  <outline>
    <contour>
      <point x="104" y="704" type="curve" smooth="yes"/>
      <point x="95" y="564"/>
      <point x="146" y="364"/>
      <point x="277" y="383" type="curve" smooth="yes"/>
      <point x="408" y="401"/>
      <point x="463" y="556"/>
      <point x="450" y="710" type="curve" smooth="yes"/>
      <point x="449" y="723"/>
      <point x="459" y="735"/>
      <point x="472" y="736" type="curve" smooth="yes"/>
      <point x="485" y="737"/>
      <point x="497" y="727"/>
      <point x="498" y="714" type="curve" smooth="yes"/>
      <point x="513" y="526"/>
      <point x="434" y="357"/>
      <point x="283" y="335" type="curve" smooth="yes"/>
      <point x="132" y="314"/>
      <point x="43" y="514"/>
      <point x="56" y="708" type="curve" smooth="yes"/>
      <point x="57" y="721"/>
      <point x="69" y="731"/>
      <point x="82" y="730" type="curve" smooth="yes"/>
      <point x="95" y="729"/>
      <point x="105" y="717"/>
    </contour>
    <contour>
      <point x="39" y="335" type="curve" smooth="yes"/>
      <point x="88" y="325"/>
      <point x="397" y="297"/>
      <point x="509" y="325" type="curve" smooth="yes"/>
      <point x="522" y="328"/>
      <point x="535" y="320"/>
      <point x="538" y="308" type="curve" smooth="yes"/>
      <point x="541" y="295"/>
      <point x="533" y="282"/>
      <point x="521" y="279" type="curve" smooth="yes"/>
      <point x="403" y="249"/>
      <point x="80" y="277"/>
      <point x="29" y="289" type="curve" smooth="yes"/>
      <point x="16" y="291"/>
      <point x="8" y="304"/>
      <point x="11" y="317" type="curve" smooth="yes"/>
      <point x="13" y="330"/>
      <point x="26" y="338"/>
    </contour>
  </outline>
</glyph>
<glyph name="v" format="1">
  <advance width="515"/>
  <unicode hex="0076"/>
  <outline>
    <contour>
      <point x="72" y="761" type="curve" smooth="yes"/>
      <point x="72" y="761"/>
      <point x="242" y="487"/>
      <point x="288" y="422" type="curve"/>
      <point x="250" y="424" type="line"/>
      <point x="285" y="462"/>
      <point x="386" y="694"/>
      <point x="419" y="759" type="curve" smooth="yes"/>
      <point x="424" y="770"/>
      <point x="439" y="775"/>
      <point x="451" y="769" type="curve" smooth="yes"/>
      <point x="462" y="764"/>
      <point x="467" y="749"/>
      <point x="461" y="737" type="curve" smooth="yes"/>
      <point x="428" y="670"/>
      <point x="321" y="432"/>
      <point x="286" y="392" type="curve" smooth="yes"/>
      <point x="275" y="380"/>
      <point x="258" y="381"/>
      <point x="248" y="394" type="curve" smooth="yes"/>
      <point x="202" y="459"/>
      <point x="32" y="735"/>
      <point x="32" y="735" type="curve" smooth="yes"/>
      <point x="25" y="746"/>
      <point x="28" y="762"/>
      <point x="39" y="768" type="curve" smooth="yes"/>
      <point x="50" y="775"/>
      <point x="66" y="772"/>
    </contour>
    <contour>
      <point x="11" y="358" type="curve" smooth="yes"/>
      <point x="66" y="376"/>
      <point x="401" y="310"/>
      <point x="484" y="370" type="curve" smooth="yes"/>
      <point x="495" y="377"/>
      <point x="510" y="374"/>
      <point x="518" y="364" type="curve" smooth="yes"/>
      <point x="525" y="353"/>
      <point x="522" y="338"/>
      <point x="512" y="330" type="curve" smooth="yes"/>
      <point x="427" y="270"/>
      <point x="84" y="332"/>
      <point x="27" y="312" type="curve" smooth="yes"/>
      <point x="14" y="308"/>
      <point x="0" y="315"/>
      <point x="-4" y="327" type="curve" smooth="yes"/>
      <point x="-8" y="340"/>
      <point x="-1" y="354"/>
    </contour>
  </outline>
</glyph>
<glyph name="w" format="1">
  <advance width="561"/>
  <unicode hex="0077"/>
  <outline>
    <contour>
      <point x="76" y="729" type="curve" smooth="yes"/>
      <point x="90" y="683"/>
      <point x="170" y="465"/>
      <point x="191" y="436" type="curve"/>
      <point x="151" y="433" type="line"/>
      <point x="151" y="433"/>
      <point x="199" y="530"/>
      <point x="258" y="626" type="curve" smooth="yes"/>
      <point x="269" y="644"/>
      <point x="287" y="644"/>
      <point x="298" y="626" type="curve" smooth="yes"/>
      <point x="367" y="519"/>
      <point x="399" y="487"/>
      <point x="416" y="423" type="curve"/>
      <point x="371" y="427" type="line"/>
      <point x="371" y="427"/>
      <point x="471" y="634"/>
      <point x="481" y="724" type="curve" smooth="yes"/>
      <point x="483" y="736"/>
      <point x="495" y="746"/>
      <point x="508" y="745" type="curve" smooth="yes"/>
      <point x="520" y="743"/>
      <point x="530" y="731"/>
      <point x="529" y="718" type="curve" smooth="yes"/>
      <point x="519" y="624"/>
      <point x="415" y="407"/>
      <point x="415" y="407" type="curve" smooth="yes"/>
      <point x="401" y="379"/>
      <point x="378" y="381"/>
      <point x="370" y="411" type="curve" smooth="yes"/>
      <point x="353" y="471"/>
      <point x="323" y="499"/>
      <point x="258" y="600" type="curve"/>
      <point x="298" y="600" type="line"/>
      <point x="241" y="506"/>
      <point x="193" y="411"/>
      <point x="193" y="411" type="curve" smooth="yes"/>
      <point x="184" y="392"/>
      <point x="165" y="390"/>
      <point x="153" y="408" type="curve" smooth="yes"/>
      <point x="130" y="439"/>
      <point x="46" y="667"/>
      <point x="30" y="715" type="curve" smooth="yes"/>
      <point x="26" y="727"/>
      <point x="33" y="741"/>
      <point x="46" y="745" type="curve" smooth="yes"/>
      <point x="58" y="749"/>
      <point x="72" y="742"/>
    </contour>
    <contour>
      <point x="24" y="336" type="curve" smooth="yes"/>
      <point x="105" y="351"/>
      <point x="523" y="353"/>
      <point x="544" y="337" type="curve" smooth="yes"/>
      <point x="554" y="329"/>
      <point x="556" y="313"/>
      <point x="548" y="303" type="curve" smooth="yes"/>
      <point x="540" y="293"/>
      <point x="524" y="291"/>
      <point x="514" y="299" type="curve" smooth="yes"/>
      <point x="495" y="315"/>
      <point x="107" y="303"/>
      <point x="34" y="288" type="curve" smooth="yes"/>
      <point x="21" y="286"/>
      <point x="8" y="295"/>
      <point x="5" y="307" type="curve" smooth="yes"/>
      <point x="3" y="320"/>
      <point x="12" y="333"/>
    </contour>
  </outline>
</glyph>
<glyph name="x" format="1">
  <advance width="507"/>
  <unicode hex="0078"/>
  <outline>
    <contour>
      <point x="61" y="752" type="curve" smooth="yes"/>
      <point x="102" y="709"/>
      <point x="443" y="441"/>
      <point x="491" y="416" type="curve" smooth="yes"/>
      <point x="502" y="410"/>
      <point x="507" y="396"/>
      <point x="501" y="384" type="curve" smooth="yes"/>
      <point x="495" y="373"/>
      <point x="481" y="368"/>
      <point x="469" y="374" type="curve" smooth="yes"/>
      <point x="419" y="399"/>
      <point x="68" y="675"/>
      <point x="27" y="718" type="curve" smooth="yes"/>
      <point x="18" y="728"/>
      <point x="18" y="743"/>
      <point x="27" y="752" type="curve" smooth="yes"/>
      <point x="37" y="761"/>
      <point x="52" y="761"/>
    </contour>
    <contour>
      <point x="485" y="735" type="curve" smooth="yes"/>
      <point x="449" y="696"/>
      <point x="150" y="391"/>
      <point x="63" y="347" type="curve" smooth="yes"/>
      <point x="51" y="341"/>
      <point x="37" y="346"/>
      <point x="31" y="357" type="curve" smooth="yes"/>
      <point x="25" y="369"/>
      <point x="30" y="383"/>
      <point x="41" y="389" type="curve" smooth="yes"/>
      <point x="126" y="433"/>
      <point x="415" y="730"/>
      <point x="449" y="767" type="curve" smooth="yes"/>
      <point x="458" y="777"/>
      <point x="474" y="777"/>
      <point x="483" y="769" type="curve" smooth="yes"/>
      <point x="493" y="760"/>
      <point x="493" y="744"/>
    </contour>
    <contour>
      <point x="35" y="307" type="curve" smooth="yes"/>
      <point x="126" y="310"/>
      <point x="453" y="321"/>
      <point x="490" y="309" type="curve" smooth="yes"/>
      <point x="502" y="305"/>
      <point x="509" y="291"/>
      <point x="505" y="278" type="curve" smooth="yes"/>
      <point x="501" y="266"/>
      <point x="487" y="259"/>
      <point x="474" y="263" type="curve" smooth="yes"/>
      <point x="439" y="275"/>
      <point x="124" y="262"/>
      <point x="37" y="259" type="curve" smooth="yes"/>
      <point x="24" y="259"/>
      <point x="12" y="269"/>
      <point x="12" y="282" type="curve" smooth="yes"/>
      <point x="12" y="295"/>
      <point x="22" y="307"/>
    </contour>
  </outline>
</glyph>
<glyph name="z" format="1">
  <advance width="500"/>
  <unicode hex="007A"/>
  <outline>
    <contour>
      <point x="65" y="741" type="curve" smooth="yes"/>
      <point x="65" y="741"/>
      <point x="421" y="752"/>
      <point x="458" y="735" type="curve" smooth="yes"/>
      <point x="479" y="725"/>
      <point x="480" y="707"/>
      <point x="462" y="693" type="curve" smooth="yes"/>
      <point x="462" y="693"/>
      <point x="135" y="462"/>
      <point x="105" y="422" type="curve"/>
      <point x="83" y="461" type="line"/>
      <point x="83" y="461"/>
      <point x="434" y="499"/>
      <point x="469" y="484" type="curve" smooth="yes"/>
      <point x="481" y="479"/>
      <point x="487" y="465"/>
      <point x="482" y="453" type="curve" smooth="yes"/>
      <point x="477" y="441"/>
      <point x="463" y="435"/>
      <point x="451" y="440" type="curve" smooth="yes"/>
      <point x="418" y="453"/>
      <point x="89" y="413"/>
      <point x="89" y="413" type="curve" smooth="yes"/>
      <point x="60" y="410"/>
      <point x="49" y="429"/>
      <point x="67" y="452" type="curve" smooth="yes"/>
      <point x="99" y="492"/>
      <point x="434" y="732"/>
      <point x="434" y="733" type="curve"/>
      <point x="438" y="691" type="line"/>
      <point x="403" y="708"/>
      <point x="67" y="693"/>
      <point x="67" y="693" type="curve" smooth="yes"/>
      <point x="54" y="693"/>
      <point x="43" y="703"/>
      <point x="42" y="716" type="curve" smooth="yes"/>
      <point x="42" y="729"/>
      <point x="52" y="740"/>
    </contour>
    <contour>
      <point x="32" y="347" type="curve" smooth="yes"/>
      <point x="92" y="363"/>
      <point x="431" y="384"/>
      <point x="480" y="364" type="curve" smooth="yes"/>
      <point x="492" y="359"/>
      <point x="498" y="345"/>
      <point x="493" y="333" type="curve" smooth="yes"/>
      <point x="488" y="321"/>
      <point x="474" y="315"/>
      <point x="462" y="320" type="curve" smooth="yes"/>
      <point x="417" y="338"/>
      <point x="100" y="315"/>
      <point x="44" y="301" type="curve" smooth="yes"/>
      <point x="31" y="298"/>
      <point x="18" y="305"/>
      <point x="15" y="318" type="curve" smooth="yes"/>
      <point x="12" y="331"/>
      <point x="19" y="344"/>
    </contour>
  </outline>
</glyph>
<glyph name="braceleft" format="1">
  <advance width="308"/>
  <unicode hex="007B"/>
  <outline>
    <contour>
      <point x="241" y="739" type="curve" smooth="yes"/>
      <point x="214" y="744"/>
      <point x="181" y="739"/>
      <point x="162" y="728" type="curve"/>
      <point x="170" y="736" type="line"/>
      <point x="148" y="701"/>
      <point x="142" y="497"/>
      <point x="158" y="432" type="curve" smooth="yes"/>
      <point x="162" y="417"/>
      <point x="153" y="404"/>
      <point x="137" y="402" type="curve" smooth="yes"/>
      <point x="111" y="399"/>
      <point x="68" y="369"/>
      <point x="70" y="358" type="curve"/>
      <point x="63" y="371" type="line"/>
      <point x="84" y="353"/>
      <point x="113" y="334"/>
      <point x="142" y="338" type="curve" smooth="yes"/>
      <point x="161" y="341"/>
      <point x="173" y="327"/>
      <point x="168" y="308" type="curve" smooth="yes"/>
      <point x="168" y="308"/>
      <point x="104" y="63"/>
      <point x="168" y="6" type="curve"/>
      <point x="163" y="9" type="line"/>
      <point x="197" y="-9"/>
      <point x="225" y="-3"/>
      <point x="225" y="-3" type="curve" smooth="yes"/>
      <point x="238" y="0"/>
      <point x="251" y="-8"/>
      <point x="254" y="-20" type="curve" smooth="yes"/>
      <point x="257" y="-33"/>
      <point x="249" y="-46"/>
      <point x="237" y="-49" type="curve" smooth="yes"/>
      <point x="237" y="-49"/>
      <point x="195" y="-61"/>
      <point x="141" y="-33" type="curve" smooth="yes"/>
      <point x="139" y="-32"/>
      <point x="137" y="-31"/>
      <point x="136" y="-30" type="curve" smooth="yes"/>
      <point x="62" y="37"/>
      <point x="122" y="320"/>
      <point x="122" y="320" type="curve"/>
      <point x="148" y="290" type="line"/>
      <point x="107" y="284"/>
      <point x="62" y="307"/>
      <point x="31" y="335" type="curve" smooth="yes"/>
      <point x="28" y="338"/>
      <point x="24" y="344"/>
      <point x="24" y="348" type="curve" smooth="yes"/>
      <point x="20" y="365"/>
      <point x="63" y="443"/>
      <point x="133" y="450" type="curve"/>
      <point x="112" y="420" type="line"/>
      <point x="94" y="495"/>
      <point x="104" y="723"/>
      <point x="130" y="762" type="curve" smooth="yes"/>
      <point x="132" y="765"/>
      <point x="135" y="768"/>
      <point x="138" y="770" type="curve" smooth="yes"/>
      <point x="165" y="785"/>
      <point x="212" y="794"/>
      <point x="249" y="787" type="curve" smooth="yes"/>
      <point x="262" y="784"/>
      <point x="271" y="771"/>
      <point x="269" y="759" type="curve" smooth="yes"/>
      <point x="266" y="746"/>
      <point x="253" y="737"/>
    </contour>
  </outline>
</glyph>
<glyph name="bar" format="1">
  <advance width="199"/>
  <unicode hex="007C"/>
  <outline>
    <contour>
      <point x="131" y="745" type="curve" smooth="yes"/>
      <point x="135" y="663"/>
      <point x="134" y="90"/>
      <point x="127" y="-3" type="curve" smooth="yes"/>
      <point x="126" y="-16"/>
      <point x="114" y="-26"/>
      <point x="101" y="-25" type="curve" smooth="yes"/>
      <point x="88" y="-24"/>
      <point x="78" y="-12"/>
      <point x="79" y="1" type="curve" smooth="yes"/>
      <point x="86" y="92"/>
      <point x="87" y="661"/>
      <point x="83" y="743" type="curve" smooth="yes"/>
      <point x="82" y="756"/>
      <point x="93" y="767"/>
      <point x="106" y="768" type="curve" smooth="yes"/>
      <point x="119" y="769"/>
      <point x="130" y="758"/>
    </contour>
  </outline>
</glyph>
<glyph name="braceright" format="1">
  <advance width="308"/>
  <unicode hex="007D"/>
  <outline>
    <contour>
      <point x="67" y="-3" type="curve" smooth="yes"/>
      <point x="67" y="-3"/>
      <point x="95" y="-9"/>
      <point x="129" y="9" type="curve"/>
      <point x="124" y="6" type="line"/>
      <point x="188" y="63"/>
      <point x="124" y="308"/>
      <point x="124" y="308" type="curve" smooth="yes"/>
      <point x="119" y="327"/>
      <point x="131" y="341"/>
      <point x="150" y="338" type="curve" smooth="yes"/>
      <point x="179" y="334"/>
      <point x="208" y="353"/>
      <point x="229" y="371" type="curve"/>
      <point x="222" y="358" type="line"/>
      <point x="224" y="369"/>
      <point x="181" y="399"/>
      <point x="155" y="402" type="curve" smooth="yes"/>
      <point x="139" y="404"/>
      <point x="130" y="417"/>
      <point x="134" y="432" type="curve" smooth="yes"/>
      <point x="150" y="497"/>
      <point x="144" y="701"/>
      <point x="122" y="736" type="curve"/>
      <point x="130" y="728" type="line"/>
      <point x="111" y="739"/>
      <point x="78" y="744"/>
      <point x="51" y="739" type="curve" smooth="yes"/>
      <point x="39" y="737"/>
      <point x="26" y="746"/>
      <point x="23" y="759" type="curve" smooth="yes"/>
      <point x="21" y="771"/>
      <point x="30" y="784"/>
      <point x="43" y="787" type="curve" smooth="yes"/>
      <point x="80" y="794"/>
      <point x="127" y="785"/>
      <point x="154" y="770" type="curve" smooth="yes"/>
      <point x="157" y="768"/>
      <point x="160" y="765"/>
      <point x="162" y="762" type="curve" smooth="yes"/>
      <point x="188" y="723"/>
      <point x="198" y="495"/>
      <point x="180" y="420" type="curve"/>
      <point x="159" y="450" type="line"/>
      <point x="229" y="443"/>
      <point x="272" y="365"/>
      <point x="268" y="348" type="curve" smooth="yes"/>
      <point x="268" y="344"/>
      <point x="264" y="338"/>
      <point x="261" y="335" type="curve" smooth="yes"/>
      <point x="230" y="307"/>
      <point x="185" y="284"/>
      <point x="144" y="290" type="curve"/>
      <point x="170" y="320" type="line"/>
      <point x="170" y="320"/>
      <point x="230" y="37"/>
      <point x="156" y="-30" type="curve" smooth="yes"/>
      <point x="155" y="-31"/>
      <point x="153" y="-32"/>
      <point x="151" y="-33" type="curve" smooth="yes"/>
      <point x="97" y="-61"/>
      <point x="55" y="-49"/>
      <point x="55" y="-49" type="curve" smooth="yes"/>
      <point x="43" y="-46"/>
      <point x="35" y="-33"/>
      <point x="38" y="-20" type="curve" smooth="yes"/>
      <point x="41" y="-8"/>
      <point x="54" y="0"/>
    </contour>
  </outline>
</glyph>
<glyph name="exclamdown" format="1">
  <advance width="145"/>
  <unicode hex="00A1"/>
  <outline>
    <contour>
      <point x="79" y="681" type="line"/>
      <point x="91" y="679"/>
      <point x="93" y="694"/>
      <point x="96" y="699" type="curve"/>
      <point x="97" y="705"/>
      <point x="95" y="720"/>
      <point x="83" y="720" type="curve" smooth="yes"/>
      <point x="73" y="720"/>
      <point x="54" y="715"/>
      <point x="55" y="704" type="curve"/>
      <point x="55" y="708" type="line"/>
      <point x="57" y="696"/>
      <point x="66" y="683"/>
      <point x="79" y="681" type="curve"/>
    </contour>
    <contour>
      <point x="71" y="633" type="curve" smooth="yes"/>
      <point x="71" y="633" type="line" smooth="yes"/>
      <point x="40" y="639"/>
      <point x="13" y="670"/>
      <point x="7" y="698" type="curve" smooth="yes"/>
      <point x="7" y="699"/>
      <point x="7" y="701"/>
      <point x="7" y="702" type="curve" smooth="yes"/>
      <point x="6" y="731"/>
      <point x="39" y="766"/>
      <point x="81" y="768" type="curve" smooth="yes"/>
      <point x="123" y="770"/>
      <point x="151" y="715"/>
      <point x="140" y="683" type="curve"/>
      <point x="131" y="656"/>
      <point x="105" y="627"/>
    </contour>
    <contour>
      <point x="52" y="570" type="curve" smooth="yes"/>
      <point x="52" y="583"/>
      <point x="64" y="593"/>
      <point x="77" y="593" type="curve" smooth="yes"/>
      <point x="90" y="593"/>
      <point x="100" y="581"/>
      <point x="100" y="568" type="curve" smooth="yes"/>
      <point x="93" y="369"/>
      <point x="98" y="220"/>
      <point x="101" y="15" type="curve" smooth="yes"/>
      <point x="101" y="2"/>
      <point x="90" y="-9"/>
      <point x="77" y="-9" type="curve" smooth="yes"/>
      <point x="64" y="-9"/>
      <point x="53" y="2"/>
      <point x="53" y="15" type="curve" smooth="yes"/>
      <point x="50" y="220"/>
      <point x="45" y="369"/>
    </contour>
  </outline>
</glyph>
<glyph name="cent" format="1">
  <advance width="428.0"/>
  <unicode hex="00A2"/>
  <outline>
    <contour>
      <point x="333" y="417" type="curve" smooth="yes"/>
      <point x="299" y="433"/>
      <point x="83" y="464"/>
      <point x="85" y="345" type="curve" smooth="yes"/>
      <point x="87" y="216"/>
      <point x="266" y="243"/>
      <point x="335" y="264" type="curve" smooth="yes"/>
      <point x="347" y="268"/>
      <point x="361" y="260"/>
      <point x="365" y="248" type="curve" smooth="yes"/>
      <point x="369" y="236"/>
      <point x="361" y="222"/>
      <point x="349" y="218" type="curve" smooth="yes"/>
      <point x="244" y="185"/>
      <point x="39" y="188"/>
      <point x="37" y="345" type="curve" smooth="yes"/>
      <point x="35" y="490"/>
      <point x="299" y="487"/>
      <point x="353" y="461" type="curve" smooth="yes"/>
      <point x="365" y="455"/>
      <point x="370" y="440"/>
      <point x="365" y="429" type="curve" smooth="yes"/>
      <point x="359" y="417"/>
      <point x="344" y="412"/>
    </contour>
    <contour>
      <point x="231" y="597" type="curve" smooth="yes"/>
      <point x="246" y="534"/>
      <point x="265" y="194"/>
      <point x="233" y="87" type="curve" smooth="yes"/>
      <point x="229" y="75"/>
      <point x="216" y="67"/>
      <point x="203" y="71" type="curve" smooth="yes"/>
      <point x="191" y="75"/>
      <point x="183" y="88"/>
      <point x="187" y="101" type="curve" smooth="yes"/>
      <point x="217" y="202"/>
      <point x="198" y="526"/>
      <point x="185" y="587" type="curve" smooth="yes"/>
      <point x="182" y="599"/>
      <point x="190" y="613"/>
      <point x="203" y="615" type="curve" smooth="yes"/>
      <point x="215" y="618"/>
      <point x="229" y="610"/>
    </contour>
  </outline>
</glyph>
<glyph name="sterling" format="1">
  <advance width="500"/>
  <unicode hex="00A3"/>
  <outline>
    <contour>
      <point x="410" y="569" type="curve" smooth="yes"/>
      <point x="410" y="622"/>
      <point x="367" y="688"/>
      <point x="271" y="679" type="curve" smooth="yes"/>
      <point x="212" y="673"/>
      <point x="131" y="651"/>
      <point x="140" y="541" type="curve" smooth="yes"/>
      <point x="149" y="420"/>
      <point x="170" y="296"/>
      <point x="173" y="171" type="curve" smooth="yes"/>
      <point x="177" y="40"/>
      <point x="84" y="-15"/>
      <point x="43" y="-11" type="curve" smooth="yes"/>
      <point x="10" y="-7"/>
      <point x="5" y="19"/>
      <point x="35" y="34" type="curve" smooth="yes"/>
      <point x="70" y="52"/>
      <point x="205" y="75"/>
      <point x="280" y="72" type="curve" smooth="yes"/>
      <point x="357" y="69"/>
      <point x="390" y="67"/>
      <point x="466" y="42" type="curve" smooth="yes"/>
      <point x="479" y="38"/>
      <point x="486" y="24"/>
      <point x="482" y="12" type="curve" smooth="yes"/>
      <point x="478" y="-1"/>
      <point x="464" y="-8"/>
      <point x="452" y="-4" type="curve" smooth="yes"/>
      <point x="380" y="19"/>
      <point x="349" y="21"/>
      <point x="278" y="24" type="curve" smooth="yes"/>
      <point x="211" y="27"/>
      <point x="88" y="8"/>
      <point x="57" y="-8" type="curve"/>
      <point x="49" y="37" type="line"/>
      <point x="78" y="33"/>
      <point x="127" y="96"/>
      <point x="125" y="169" type="curve" smooth="yes"/>
      <point x="122" y="294"/>
      <point x="101" y="418"/>
      <point x="92" y="537" type="curve" smooth="yes"/>
      <point x="81" y="683"/>
      <point x="186" y="719"/>
      <point x="267" y="727" type="curve" smooth="yes"/>
      <point x="405" y="740"/>
      <point x="458" y="642"/>
      <point x="458" y="569" type="curve" smooth="yes"/>
      <point x="458" y="556"/>
      <point x="447" y="545"/>
      <point x="434" y="545" type="curve" smooth="yes"/>
      <point x="421" y="545"/>
      <point x="410" y="556"/>
    </contour>
    <contour>
      <point x="26" y="374" type="curve" smooth="yes"/>
      <point x="63" y="370"/>
      <point x="278" y="334"/>
      <point x="305" y="366" type="curve" smooth="yes"/>
      <point x="313" y="375"/>
      <point x="329" y="377"/>
      <point x="339" y="368" type="curve" smooth="yes"/>
      <point x="348" y="360"/>
      <point x="350" y="344"/>
      <point x="341" y="334" type="curve" smooth="yes"/>
      <point x="310" y="298"/>
      <point x="67" y="322"/>
      <point x="22" y="326" type="curve" smooth="yes"/>
      <point x="9" y="327"/>
      <point x="-1" y="339"/>
      <point x="0" y="352" type="curve" smooth="yes"/>
      <point x="1" y="365"/>
      <point x="13" y="375"/>
    </contour>
  </outline>
</glyph>
<glyph name="currency" format="1">
  <advance width="500"/>
  <unicode hex="00A4"/>
  <outline>
    <contour>
      <point x="230" y="479" type="curve" smooth="yes"/>
      <point x="149" y="472"/>
      <point x="119" y="403"/>
      <point x="114" y="347" type="curve" smooth="yes"/>
      <point x="109" y="289"/>
      <point x="189" y="238"/>
      <point x="250" y="229" type="curve" smooth="yes"/>
      <point x="315" y="219"/>
      <point x="403" y="297"/>
      <point x="401" y="366" type="curve" smooth="yes"/>
      <point x="399" y="438"/>
      <point x="309" y="486"/>
    </contour>
    <contour>
      <point x="226" y="527" type="curve" smooth="yes"/>
      <point x="337" y="536"/>
      <point x="447" y="460"/>
      <point x="449" y="368" type="curve" smooth="yes"/>
      <point x="451" y="273"/>
      <point x="331" y="169"/>
      <point x="244" y="181" type="curve" smooth="yes"/>
      <point x="153" y="194"/>
      <point x="59" y="275"/>
      <point x="66" y="351" type="curve" smooth="yes"/>
      <point x="73" y="429"/>
      <point x="117" y="518"/>
    </contour>
    <contour>
      <point x="321" y="485" type="curve" smooth="yes"/>
      <point x="331" y="505"/>
      <point x="360" y="544"/>
      <point x="379" y="558" type="curve" smooth="yes"/>
      <point x="390" y="565"/>
      <point x="405" y="562"/>
      <point x="413" y="552" type="curve" smooth="yes"/>
      <point x="420" y="541"/>
      <point x="417" y="526"/>
      <point x="407" y="518" type="curve" smooth="yes"/>
      <point x="392" y="508"/>
      <point x="371" y="479"/>
      <point x="365" y="465" type="curve" smooth="yes"/>
      <point x="359" y="453"/>
      <point x="345" y="448"/>
      <point x="333" y="453" type="curve" smooth="yes"/>
      <point x="321" y="459"/>
      <point x="316" y="473"/>
    </contour>
    <contour>
      <point x="114" y="440" type="curve" smooth="yes"/>
      <point x="101" y="453"/>
      <point x="71" y="482"/>
      <point x="47" y="495" type="curve" smooth="yes"/>
      <point x="36" y="501"/>
      <point x="32" y="516"/>
      <point x="38" y="528" type="curve" smooth="yes"/>
      <point x="44" y="539"/>
      <point x="59" y="543"/>
      <point x="71" y="537" type="curve" smooth="yes"/>
      <point x="97" y="522"/>
      <point x="131" y="489"/>
      <point x="146" y="476" type="curve" smooth="yes"/>
      <point x="156" y="467"/>
      <point x="156" y="451"/>
      <point x="148" y="442" type="curve" smooth="yes"/>
      <point x="139" y="432"/>
      <point x="123" y="432"/>
    </contour>
    <contour>
      <point x="161" y="230" type="curve" smooth="yes"/>
      <point x="152" y="223"/>
      <point x="111" y="180"/>
      <point x="107" y="170" type="curve" smooth="yes"/>
      <point x="101" y="158"/>
      <point x="87" y="153"/>
      <point x="75" y="158" type="curve" smooth="yes"/>
      <point x="63" y="164"/>
      <point x="58" y="178"/>
      <point x="63" y="190" type="curve" smooth="yes"/>
      <point x="69" y="202"/>
      <point x="120" y="259"/>
      <point x="133" y="268" type="curve" smooth="yes"/>
      <point x="143" y="276"/>
      <point x="159" y="274"/>
      <point x="166" y="263" type="curve" smooth="yes"/>
      <point x="174" y="253"/>
      <point x="172" y="237"/>
    </contour>
    <contour>
      <point x="380" y="272" type="curve" smooth="yes"/>
      <point x="397" y="262"/>
      <point x="451" y="210"/>
      <point x="459" y="198" type="curve" smooth="yes"/>
      <point x="467" y="188"/>
      <point x="465" y="172"/>
      <point x="454" y="165" type="curve" smooth="yes"/>
      <point x="444" y="157"/>
      <point x="428" y="159"/>
      <point x="421" y="170" type="curve" smooth="yes"/>
      <point x="413" y="180"/>
      <point x="369" y="222"/>
      <point x="356" y="230" type="curve" smooth="yes"/>
      <point x="345" y="237"/>
      <point x="341" y="252"/>
      <point x="347" y="263" type="curve" smooth="yes"/>
      <point x="354" y="274"/>
      <point x="369" y="278"/>
    </contour>
  </outline>
</glyph>
<glyph name="yen" format="1">
  <advance width="541"/>
  <unicode hex="00A5"/>
  <outline>
    <contour>
      <point x="73" y="696" type="curve" smooth="yes"/>
      <point x="73" y="696"/>
      <point x="268" y="454"/>
      <point x="311" y="416" type="curve"/>
      <point x="277" y="414" type="line"/>
      <point x="277" y="414"/>
      <point x="453" y="606"/>
      <point x="485" y="687" type="curve" smooth="yes"/>
      <point x="489" y="699"/>
      <point x="504" y="705"/>
      <point x="516" y="700" type="curve" smooth="yes"/>
      <point x="528" y="696"/>
      <point x="534" y="681"/>
      <point x="529" y="669" type="curve" smooth="yes"/>
      <point x="497" y="584"/>
      <point x="313" y="382"/>
      <point x="313" y="382" type="curve" smooth="yes"/>
      <point x="304" y="372"/>
      <point x="289" y="371"/>
      <point x="279" y="380" type="curve" smooth="yes"/>
      <point x="236" y="418"/>
      <point x="35" y="666"/>
      <point x="35" y="666" type="curve" smooth="yes"/>
      <point x="27" y="676"/>
      <point x="29" y="692"/>
      <point x="39" y="700" type="curve" smooth="yes"/>
      <point x="49" y="708"/>
      <point x="65" y="706"/>
    </contour>
    <contour>
      <point x="319" y="382" type="curve" smooth="yes"/>
      <point x="307" y="323"/>
      <point x="330" y="18"/>
      <point x="327" y="-12" type="curve" smooth="yes"/>
      <point x="326" y="-25"/>
      <point x="314" y="-35"/>
      <point x="301" y="-34" type="curve" smooth="yes"/>
      <point x="288" y="-33"/>
      <point x="278" y="-21"/>
      <point x="279" y="-8" type="curve" smooth="yes"/>
      <point x="282" y="24"/>
      <point x="259" y="333"/>
      <point x="273" y="392" type="curve" smooth="yes"/>
      <point x="275" y="405"/>
      <point x="289" y="413"/>
      <point x="301" y="410" type="curve" smooth="yes"/>
      <point x="314" y="408"/>
      <point x="322" y="394"/>
    </contour>
    <contour>
      <point x="141" y="310" type="curve" smooth="yes"/>
      <point x="178" y="320"/>
      <point x="456" y="321"/>
      <point x="456" y="321" type="curve" smooth="yes"/>
      <point x="469" y="321"/>
      <point x="480" y="310"/>
      <point x="480" y="297" type="curve" smooth="yes"/>
      <point x="480" y="284"/>
      <point x="469" y="273"/>
      <point x="456" y="273" type="curve" smooth="yes"/>
      <point x="456" y="273"/>
      <point x="190" y="274"/>
      <point x="153" y="264" type="curve" smooth="yes"/>
      <point x="141" y="260"/>
      <point x="127" y="268"/>
      <point x="124" y="281" type="curve" smooth="yes"/>
      <point x="120" y="293"/>
      <point x="128" y="307"/>
    </contour>
    <contour>
      <point x="134" y="205" type="curve" smooth="yes"/>
      <point x="183" y="216"/>
      <point x="408" y="212"/>
      <point x="447" y="209" type="curve" smooth="yes"/>
      <point x="460" y="208"/>
      <point x="470" y="196"/>
      <point x="469" y="183" type="curve" smooth="yes"/>
      <point x="468" y="170"/>
      <point x="456" y="160"/>
      <point x="443" y="161" type="curve" smooth="yes"/>
      <point x="406" y="164"/>
      <point x="191" y="168"/>
      <point x="144" y="159" type="curve" smooth="yes"/>
      <point x="131" y="156"/>
      <point x="118" y="164"/>
      <point x="116" y="177" type="curve" smooth="yes"/>
      <point x="113" y="190"/>
      <point x="121" y="203"/>
    </contour>
  </outline>
</glyph>
<glyph name="brokenbar" format="1">
  <advance width="500"/>
  <unicode hex="00A6"/>
  <outline>
    <contour>
      <point x="282" y="762" type="curve" smooth="yes"/>
      <point x="292" y="708"/>
      <point x="310" y="506"/>
      <point x="301" y="457" type="curve" smooth="yes"/>
      <point x="298" y="445"/>
      <point x="285" y="436"/>
      <point x="272" y="438" type="curve" smooth="yes"/>
      <point x="260" y="441"/>
      <point x="251" y="454"/>
      <point x="253" y="467" type="curve" smooth="yes"/>
      <point x="262" y="512"/>
      <point x="244" y="702"/>
      <point x="234" y="754" type="curve" smooth="yes"/>
      <point x="232" y="766"/>
      <point x="241" y="779"/>
      <point x="254" y="782" type="curve" smooth="yes"/>
      <point x="266" y="784"/>
      <point x="279" y="775"/>
    </contour>
    <contour>
      <point x="297" y="301" type="curve" smooth="yes"/>
      <point x="299" y="253"/>
      <point x="297" y="39"/>
      <point x="293" y="-7" type="curve" smooth="yes"/>
      <point x="292" y="-20"/>
      <point x="280" y="-30"/>
      <point x="267" y="-29" type="curve" smooth="yes"/>
      <point x="254" y="-28"/>
      <point x="244" y="-16"/>
      <point x="245" y="-3" type="curve" smooth="yes"/>
      <point x="249" y="43"/>
      <point x="251" y="251"/>
      <point x="249" y="299" type="curve" smooth="yes"/>
      <point x="248" y="312"/>
      <point x="259" y="323"/>
      <point x="272" y="324" type="curve" smooth="yes"/>
      <point x="285" y="325"/>
      <point x="296" y="314"/>
    </contour>
  </outline>
</glyph>
<glyph name="section" format="1">
  <advance width="416"/>
  <unicode hex="00A7"/>
  <outline>
    <contour>
      <point x="336" y="600" type="curve" smooth="yes"/>
      <point x="312" y="624"/>
      <point x="264" y="649"/>
      <point x="223" y="651" type="curve" smooth="yes"/>
      <point x="190" y="652"/>
      <point x="100" y="653"/>
      <point x="102" y="598" type="curve" smooth="yes"/>
      <point x="104" y="550"/>
      <point x="194" y="523"/>
      <point x="230" y="506" type="curve" smooth="yes"/>
      <point x="282" y="481"/>
      <point x="376" y="440"/>
      <point x="370" y="369" type="curve" smooth="yes"/>
      <point x="365" y="309"/>
      <point x="266" y="263"/>
      <point x="210" y="269" type="curve" smooth="yes"/>
      <point x="197" y="271"/>
      <point x="188" y="283"/>
      <point x="189" y="296" type="curve" smooth="yes"/>
      <point x="191" y="309"/>
      <point x="203" y="318"/>
      <point x="216" y="317" type="curve" smooth="yes"/>
      <point x="248" y="313"/>
      <point x="319" y="333"/>
      <point x="322" y="373" type="curve" smooth="yes"/>
      <point x="326" y="426"/>
      <point x="242" y="447"/>
      <point x="210" y="462" type="curve" smooth="yes"/>
      <point x="158" y="487"/>
      <point x="56" y="536"/>
      <point x="54" y="596" type="curve" smooth="yes"/>
      <point x="52" y="675"/>
      <point x="160" y="702"/>
      <point x="225" y="699" type="curve" smooth="yes"/>
      <point x="278" y="697"/>
      <point x="340" y="664"/>
      <point x="370" y="634" type="curve" smooth="yes"/>
      <point x="379" y="625"/>
      <point x="379" y="609"/>
      <point x="370" y="600" type="curve" smooth="yes"/>
      <point x="361" y="591"/>
      <point x="345" y="591"/>
    </contour>
    <contour>
      <point x="198" y="471" type="curve" smooth="yes"/>
      <point x="170" y="458"/>
      <point x="105" y="444"/>
      <point x="108" y="392" type="curve" smooth="yes"/>
      <point x="110" y="359"/>
      <point x="153" y="344"/>
      <point x="217" y="321" type="curve" smooth="yes"/>
      <point x="324" y="281"/>
      <point x="385" y="234"/>
      <point x="390" y="177" type="curve" smooth="yes"/>
      <point x="398" y="80"/>
      <point x="287" y="35"/>
      <point x="207" y="41" type="curve" smooth="yes"/>
      <point x="130" y="47"/>
      <point x="49" y="96"/>
      <point x="39" y="130" type="curve" smooth="yes"/>
      <point x="35" y="143"/>
      <point x="43" y="156"/>
      <point x="55" y="160" type="curve" smooth="yes"/>
      <point x="68" y="164"/>
      <point x="81" y="156"/>
      <point x="85" y="144" type="curve" smooth="yes"/>
      <point x="93" y="118"/>
      <point x="160" y="93"/>
      <point x="211" y="89" type="curve" smooth="yes"/>
      <point x="259" y="85"/>
      <point x="348" y="102"/>
      <point x="342" y="173" type="curve" smooth="yes"/>
      <point x="339" y="218"/>
      <point x="278" y="247"/>
      <point x="201" y="275" type="curve" smooth="yes"/>
      <point x="101" y="312"/>
      <point x="62" y="345"/>
      <point x="60" y="390" type="curve" smooth="yes"/>
      <point x="57" y="462"/>
      <point x="132" y="492"/>
      <point x="178" y="515" type="curve" smooth="yes"/>
      <point x="189" y="520"/>
      <point x="204" y="515"/>
      <point x="210" y="503" type="curve" smooth="yes"/>
      <point x="215" y="492"/>
      <point x="210" y="477"/>
    </contour>
  </outline>
</glyph>
<glyph name="dieresis" format="1">
  <advance width="376"/>
  <unicode hex="00A8"/>
  <outline>
    <contour>
      <point x="106" y="717" type="curve" smooth="yes"/>
      <point x="96" y="712"/>
      <point x="86" y="714"/>
      <point x="90" y="697" type="curve" smooth="yes"/>
      <point x="94" y="684"/>
      <point x="106" y="685"/>
      <point x="106" y="685" type="curve"/>
      <point x="101" y="684" type="line"/>
      <point x="101" y="684"/>
      <point x="127" y="690"/>
      <point x="127" y="712" type="curve" smooth="yes"/>
      <point x="127" y="728"/>
      <point x="110" y="719"/>
    </contour>
    <contour>
      <point x="273" y="696" type="curve" smooth="yes"/>
      <point x="273" y="696" type="line" smooth="yes"/>
      <point x="282" y="691"/>
      <point x="288" y="683"/>
      <point x="297" y="696" type="curve" smooth="yes"/>
      <point x="305" y="707"/>
      <point x="296" y="717"/>
      <point x="296" y="717" type="curve"/>
      <point x="301" y="713" type="line"/>
      <point x="301" y="713"/>
      <point x="279" y="729"/>
      <point x="262" y="715" type="curve" smooth="yes"/>
      <point x="250" y="705"/>
      <point x="268" y="698"/>
    </contour>
    <contour>
      <point x="84" y="759" type="curve" smooth="yes"/>
      <point x="128" y="781"/>
      <point x="175" y="768"/>
      <point x="175" y="712" type="curve" smooth="yes"/>
      <point x="175" y="662"/>
      <point x="117" y="638"/>
      <point x="117" y="638" type="curve" smooth="yes"/>
      <point x="116" y="638"/>
      <point x="113" y="637"/>
      <point x="112" y="637" type="curve" smooth="yes"/>
      <point x="112" y="637"/>
      <point x="58" y="630"/>
      <point x="44" y="685" type="curve" smooth="yes"/>
      <point x="30" y="736"/>
      <point x="46" y="740"/>
    </contour>
    <contour>
      <point x="253" y="652" type="line"/>
      <point x="208" y="672"/>
      <point x="188" y="717"/>
      <point x="232" y="753" type="curve" smooth="yes"/>
      <point x="271" y="783"/>
      <point x="325" y="755"/>
      <point x="325" y="755" type="curve" smooth="yes"/>
      <point x="326" y="754"/>
      <point x="328" y="752"/>
      <point x="330" y="751" type="curve" smooth="yes"/>
      <point x="330" y="751"/>
      <point x="369" y="715"/>
      <point x="337" y="668" type="curve" smooth="yes"/>
      <point x="304" y="625"/>
      <point x="292" y="635"/>
      <point x="253" y="652" type="curve"/>
    </contour>
  </outline>
</glyph>
<glyph name="copyright" format="1">
  <advance width="603.0"/>
  <unicode hex="00A9"/>
  <outline>
    <contour>
      <point x="277" y="568" type="curve" smooth="yes"/>
      <point x="168" y="565"/>
      <point x="64" y="425"/>
      <point x="75" y="343" type="curve" smooth="yes"/>
      <point x="89" y="236"/>
      <point x="189" y="117"/>
      <point x="317" y="141" type="curve" smooth="yes"/>
      <point x="426" y="161"/>
      <point x="543" y="278"/>
      <point x="524" y="390" type="curve" smooth="yes"/>
      <point x="512" y="463"/>
      <point x="386" y="571"/>
    </contour>
    <contour>
      <point x="379" y="395" type="curve" smooth="yes"/>
      <point x="357" y="431"/>
      <point x="311" y="437"/>
      <point x="281" y="431" type="curve" smooth="yes"/>
      <point x="252" y="424"/>
      <point x="203" y="397"/>
      <point x="205" y="355" type="curve" smooth="yes"/>
      <point x="206" y="316"/>
      <point x="263" y="277"/>
      <point x="289" y="283" type="curve" smooth="yes"/>
      <point x="316" y="288"/>
      <point x="365" y="283"/>
      <point x="378" y="312" type="curve" smooth="yes"/>
      <point x="383" y="324"/>
      <point x="397" y="330"/>
      <point x="409" y="325" type="curve" smooth="yes"/>
      <point x="421" y="320"/>
      <point x="427" y="306"/>
      <point x="422" y="294" type="curve" smooth="yes"/>
      <point x="405" y="251"/>
      <point x="342" y="244"/>
      <point x="299" y="235" type="curve" smooth="yes"/>
      <point x="255" y="227"/>
      <point x="160" y="286"/>
      <point x="157" y="353" type="curve" smooth="yes"/>
      <point x="155" y="417"/>
      <point x="224" y="468"/>
      <point x="271" y="477" type="curve" smooth="yes"/>
      <point x="317" y="487"/>
      <point x="387" y="475"/>
      <point x="421" y="419" type="curve" smooth="yes"/>
      <point x="427" y="408"/>
      <point x="424" y="393"/>
      <point x="412" y="386" type="curve" smooth="yes"/>
      <point x="401" y="380"/>
      <point x="386" y="383"/>
    </contour>
    <contour>
      <point x="275" y="616" type="curve" smooth="yes"/>
      <point x="410" y="619"/>
      <point x="558" y="485"/>
      <point x="572" y="398" type="curve" smooth="yes"/>
      <point x="593" y="264"/>
      <point x="460" y="119"/>
      <point x="325" y="93" type="curve" smooth="yes"/>
      <point x="171" y="65"/>
      <point x="45" y="204"/>
      <point x="27" y="337" type="curve" smooth="yes"/>
      <point x="14" y="437"/>
      <point x="140" y="613"/>
    </contour>
  </outline>
</glyph>
<glyph name="ordfeminine" format="1">
  <advance width="367"/>
  <unicode hex="00AA"/>
  <outline>
    <contour>
      <point x="58" y="712" type="curve" smooth="yes"/>
      <point x="93" y="765"/>
      <point x="122" y="766"/>
      <point x="170" y="760" type="curve" smooth="yes"/>
      <point x="214" y="754"/>
      <point x="279" y="728"/>
      <point x="283" y="590" type="curve" smooth="yes"/>
      <point x="284" y="534"/>
      <point x="305" y="499"/>
      <point x="305" y="499" type="curve" smooth="yes"/>
      <point x="318" y="499"/>
      <point x="329" y="488"/>
      <point x="329" y="475" type="curve" smooth="yes"/>
      <point x="329" y="462"/>
      <point x="318" y="451"/>
      <point x="305" y="451" type="curve" smooth="yes"/>
      <point x="305" y="451"/>
      <point x="240" y="416"/>
      <point x="235" y="588" type="curve" smooth="yes"/>
      <point x="233" y="678"/>
      <point x="196" y="708"/>
      <point x="164" y="712" type="curve" smooth="yes"/>
      <point x="136" y="716"/>
      <point x="119" y="717"/>
      <point x="98" y="686" type="curve" smooth="yes"/>
      <point x="91" y="675"/>
      <point x="75" y="672"/>
      <point x="65" y="679" type="curve" smooth="yes"/>
      <point x="54" y="686"/>
      <point x="51" y="702"/>
    </contour>
    <contour>
      <point x="246" y="610" type="curve" smooth="yes"/>
      <point x="217" y="607"/>
      <point x="79" y="624"/>
      <point x="82" y="571" type="curve" smooth="yes"/>
      <point x="84" y="521"/>
      <point x="200" y="453"/>
      <point x="261" y="514" type="curve" smooth="yes"/>
      <point x="270" y="523"/>
      <point x="286" y="523"/>
      <point x="295" y="514" type="curve" smooth="yes"/>
      <point x="304" y="505"/>
      <point x="304" y="489"/>
      <point x="295" y="480" type="curve" smooth="yes"/>
      <point x="200" y="385"/>
      <point x="38" y="499"/>
      <point x="34" y="569" type="curve" smooth="yes"/>
      <point x="31" y="636"/>
      <point x="165" y="651"/>
      <point x="242" y="658" type="curve" smooth="yes"/>
      <point x="255" y="659"/>
      <point x="267" y="649"/>
      <point x="268" y="636" type="curve" smooth="yes"/>
      <point x="269" y="623"/>
      <point x="259" y="611"/>
    </contour>
  </outline>
</glyph>
<glyph name="logicalnot" format="1">
  <advance width="500"/>
  <unicode hex="00AC"/>
  <outline>
    <contour>
      <point x="43" y="423" type="curve" smooth="yes"/>
      <point x="134" y="427"/>
      <point x="401" y="423"/>
      <point x="455" y="419" type="curve" smooth="yes"/>
      <point x="464" y="418"/>
      <point x="474" y="410"/>
      <point x="476" y="401" type="curve" smooth="yes"/>
      <point x="476" y="401"/>
      <point x="496" y="328"/>
      <point x="472" y="266" type="curve" smooth="yes"/>
      <point x="468" y="254"/>
      <point x="454" y="248"/>
      <point x="441" y="253" type="curve" smooth="yes"/>
      <point x="429" y="257"/>
      <point x="423" y="271"/>
      <point x="428" y="284" type="curve" smooth="yes"/>
      <point x="446" y="332"/>
      <point x="430" y="389"/>
      <point x="430" y="389" type="curve"/>
      <point x="451" y="371" type="line"/>
      <point x="399" y="375"/>
      <point x="134" y="379"/>
      <point x="45" y="375" type="curve" smooth="yes"/>
      <point x="32" y="374"/>
      <point x="21" y="385"/>
      <point x="20" y="398" type="curve" smooth="yes"/>
      <point x="19" y="411"/>
      <point x="30" y="422"/>
    </contour>
  </outline>
</glyph>
<glyph name="registered" format="1">
  <advance width="603.0"/>
  <unicode hex="00AE"/>
  <outline>
    <contour>
      <point x="169" y="525" type="curve" smooth="yes"/>
      <point x="169" y="525" type="line" smooth="yes"/>
      <point x="76" y="470"/>
      <point x="55" y="296"/>
      <point x="104" y="231" type="curve" smooth="yes"/>
      <point x="169" y="145"/>
      <point x="315" y="90"/>
      <point x="415" y="173" type="curve" smooth="yes"/>
      <point x="500" y="245"/>
      <point x="543" y="404"/>
      <point x="472" y="493" type="curve" smooth="yes"/>
      <point x="426" y="550"/>
      <point x="263" y="582"/>
    </contour>
    <contour>
      <point x="145" y="567" type="line"/>
      <point x="259" y="636"/>
      <point x="454" y="592"/>
      <point x="510" y="523" type="curve" smooth="yes"/>
      <point x="595" y="418"/>
      <point x="550" y="225"/>
      <point x="445" y="137" type="curve" smooth="yes"/>
      <point x="325" y="36"/>
      <point x="147" y="95"/>
      <point x="66" y="201" type="curve" smooth="yes"/>
      <point x="5" y="282"/>
      <point x="28" y="498"/>
      <point x="145" y="567" type="curve"/>
    </contour>
    <contour>
      <point x="219" y="467" type="curve" smooth="yes"/>
      <point x="217" y="418"/>
      <point x="216" y="276"/>
      <point x="225" y="251" type="curve" smooth="yes"/>
      <point x="229" y="239"/>
      <point x="222" y="225"/>
      <point x="210" y="220" type="curve" smooth="yes"/>
      <point x="198" y="216"/>
      <point x="184" y="223"/>
      <point x="179" y="235" type="curve" smooth="yes"/>
      <point x="170" y="262"/>
      <point x="169" y="416"/>
      <point x="171" y="469" type="curve" smooth="yes"/>
      <point x="172" y="482"/>
      <point x="183" y="492"/>
      <point x="196" y="492" type="curve" smooth="yes"/>
      <point x="209" y="491"/>
      <point x="219" y="480"/>
    </contour>
    <contour>
      <point x="194" y="489" type="curve" smooth="yes"/>
      <point x="298" y="511"/>
      <point x="434" y="481"/>
      <point x="436" y="406" type="curve" smooth="yes"/>
      <point x="438" y="330"/>
      <point x="283" y="281"/>
      <point x="192" y="310" type="curve" smooth="yes"/>
      <point x="179" y="314"/>
      <point x="172" y="328"/>
      <point x="176" y="340" type="curve" smooth="yes"/>
      <point x="180" y="353"/>
      <point x="194" y="360"/>
      <point x="206" y="356" type="curve" smooth="yes"/>
      <point x="251" y="341"/>
      <point x="390" y="346"/>
      <point x="388" y="404" type="curve" smooth="yes"/>
      <point x="386" y="463"/>
      <point x="254" y="453"/>
      <point x="204" y="443" type="curve" smooth="yes"/>
      <point x="191" y="440"/>
      <point x="178" y="448"/>
      <point x="176" y="461" type="curve" smooth="yes"/>
      <point x="173" y="474"/>
      <point x="181" y="487"/>
    </contour>
    <contour>
      <point x="281" y="341" type="curve" smooth="yes"/>
      <point x="301" y="328"/>
      <point x="366" y="243"/>
      <point x="394" y="262" type="curve" smooth="yes"/>
      <point x="405" y="270"/>
      <point x="420" y="268"/>
      <point x="427" y="257" type="curve" smooth="yes"/>
      <point x="435" y="246"/>
      <point x="433" y="231"/>
      <point x="422" y="224" type="curve" smooth="yes"/>
      <point x="386" y="197"/>
      <point x="295" y="276"/>
      <point x="255" y="301" type="curve" smooth="yes"/>
      <point x="244" y="308"/>
      <point x="241" y="323"/>
      <point x="248" y="334" type="curve" smooth="yes"/>
      <point x="255" y="345"/>
      <point x="270" y="348"/>
    </contour>
  </outline>
</glyph>
<glyph name="degree" format="1">
  <advance width="500"/>
  <unicode hex="00B0"/>
  <outline>
    <contour>
      <point x="259" y="686" type="curve" smooth="yes"/>
      <point x="324" y="681"/>
      <point x="371" y="672"/>
      <point x="383" y="594" type="curve" smooth="yes"/>
      <point x="395" y="518"/>
      <point x="300" y="455"/>
      <point x="254" y="446" type="curve" smooth="yes"/>
      <point x="209" y="436"/>
      <point x="139" y="491"/>
      <point x="128" y="562" type="curve" smooth="yes"/>
      <point x="118" y="629"/>
      <point x="193" y="691"/>
    </contour>
    <contour>
      <point x="255" y="638" type="curve" smooth="yes"/>
      <point x="219" y="641"/>
      <point x="170" y="611"/>
      <point x="176" y="570" type="curve" smooth="yes"/>
      <point x="181" y="533"/>
      <point x="215" y="486"/>
      <point x="244" y="492" type="curve" smooth="yes"/>
      <point x="272" y="499"/>
      <point x="343" y="534"/>
      <point x="335" y="586" type="curve" smooth="yes"/>
      <point x="327" y="636"/>
      <point x="292" y="635"/>
    </contour>
  </outline>
</glyph>
<glyph name="plusminus" format="1">
  <advance width="500"/>
  <unicode hex="00B1"/>
  <outline>
    <contour>
      <point x="282" y="549" type="curve" smooth="yes"/>
      <point x="284" y="470"/>
      <point x="291" y="293"/>
      <point x="282" y="234" type="curve" smooth="yes"/>
      <point x="280" y="222"/>
      <point x="267" y="212"/>
      <point x="254" y="214" type="curve" smooth="yes"/>
      <point x="242" y="216"/>
      <point x="232" y="229"/>
      <point x="234" y="242" type="curve" smooth="yes"/>
      <point x="243" y="299"/>
      <point x="236" y="470"/>
      <point x="234" y="547" type="curve" smooth="yes"/>
      <point x="234" y="560"/>
      <point x="244" y="572"/>
      <point x="257" y="572" type="curve" smooth="yes"/>
      <point x="270" y="572"/>
      <point x="282" y="562"/>
    </contour>
    <contour>
      <point x="64" y="418" type="curve" smooth="yes"/>
      <point x="140" y="408"/>
      <point x="389" y="405"/>
      <point x="441" y="416" type="curve" smooth="yes"/>
      <point x="453" y="419"/>
      <point x="467" y="411"/>
      <point x="469" y="398" type="curve" smooth="yes"/>
      <point x="472" y="386"/>
      <point x="464" y="372"/>
      <point x="451" y="370" type="curve" smooth="yes"/>
      <point x="397" y="357"/>
      <point x="138" y="360"/>
      <point x="58" y="370" type="curve" smooth="yes"/>
      <point x="45" y="372"/>
      <point x="36" y="384"/>
      <point x="37" y="397" type="curve" smooth="yes"/>
      <point x="39" y="410"/>
      <point x="51" y="419"/>
    </contour>
    <contour>
      <point x="51" y="131" type="curve" smooth="yes"/>
      <point x="139" y="118"/>
      <point x="388" y="121"/>
      <point x="443" y="132" type="curve" smooth="yes"/>
      <point x="456" y="135"/>
      <point x="469" y="127"/>
      <point x="471" y="114" type="curve" smooth="yes"/>
      <point x="474" y="101"/>
      <point x="466" y="88"/>
      <point x="453" y="86" type="curve" smooth="yes"/>
      <point x="396" y="73"/>
      <point x="135" y="70"/>
      <point x="45" y="83" type="curve" smooth="yes"/>
      <point x="32" y="85"/>
      <point x="22" y="98"/>
      <point x="24" y="110" type="curve" smooth="yes"/>
      <point x="26" y="123"/>
      <point x="39" y="133"/>
    </contour>
  </outline>
</glyph>
<glyph name="paragraph" format="1">
  <advance width="623"/>
  <unicode hex="00B6"/>
  <outline>
    <contour>
      <point x="558" y="735" type="curve" smooth="yes"/>
      <point x="558" y="666"/>
      <point x="545" y="89"/>
      <point x="549" y="6" type="curve" smooth="yes"/>
      <point x="550" y="-7"/>
      <point x="539" y="-18"/>
      <point x="526" y="-19" type="curve" smooth="yes"/>
      <point x="513" y="-20"/>
      <point x="502" y="-9"/>
      <point x="501" y="4" type="curve" smooth="yes"/>
      <point x="497" y="87"/>
      <point x="510" y="666"/>
      <point x="510" y="735" type="curve" smooth="yes"/>
      <point x="510" y="748"/>
      <point x="521" y="759"/>
      <point x="534" y="759" type="curve" smooth="yes"/>
      <point x="547" y="759"/>
      <point x="558" y="748"/>
    </contour>
    <contour>
      <point x="461" y="744" type="curve" smooth="yes"/>
      <point x="464" y="674"/>
      <point x="449" y="50"/>
      <point x="461" y="6" type="curve" smooth="yes"/>
      <point x="465" y="-6"/>
      <point x="457" y="-20"/>
      <point x="444" y="-23" type="curve" smooth="yes"/>
      <point x="432" y="-27"/>
      <point x="418" y="-19"/>
      <point x="415" y="-6" type="curve" smooth="yes"/>
      <point x="403" y="38"/>
      <point x="416" y="670"/>
      <point x="413" y="742" type="curve" smooth="yes"/>
      <point x="412" y="755"/>
      <point x="423" y="766"/>
      <point x="436" y="767" type="curve" smooth="yes"/>
      <point x="449" y="768"/>
      <point x="460" y="757"/>
    </contour>
    <contour>
      <point x="437" y="723" type="curve" smooth="yes"/>
      <point x="258" y="728"/>
      <point x="85" y="643"/>
      <point x="103" y="465" type="curve" smooth="yes"/>
      <point x="120" y="291"/>
      <point x="368" y="263"/>
      <point x="428" y="279" type="curve" smooth="yes"/>
      <point x="440" y="283"/>
      <point x="454" y="275"/>
      <point x="457" y="262" type="curve" smooth="yes"/>
      <point x="461" y="250"/>
      <point x="453" y="236"/>
      <point x="440" y="233" type="curve" smooth="yes"/>
      <point x="368" y="213"/>
      <point x="76" y="255"/>
      <point x="55" y="461" type="curve" smooth="yes"/>
      <point x="35" y="663"/>
      <point x="220" y="776"/>
      <point x="439" y="771" type="curve" smooth="yes"/>
      <point x="452" y="771"/>
      <point x="462" y="759"/>
      <point x="462" y="746" type="curve" smooth="yes"/>
      <point x="462" y="733"/>
      <point x="450" y="723"/>
    </contour>
  </outline>
</glyph>
<glyph name="periodcentered" format="1">
  <advance width="188"/>
  <unicode hex="00B7"/>
  <outline>
    <contour>
      <point x="99" y="410" type="curve"/>
      <point x="99" y="410" type="line"/>
      <point x="86" y="408"/>
      <point x="77" y="395"/>
      <point x="75" y="383" type="curve"/>
      <point x="75" y="387" type="line"/>
      <point x="74" y="376"/>
      <point x="93" y="371"/>
      <point x="103" y="371" type="curve" smooth="yes"/>
      <point x="115" y="371"/>
      <point x="117" y="386"/>
      <point x="116" y="392" type="curve"/>
      <point x="113" y="397"/>
      <point x="111" y="412"/>
    </contour>
    <contour>
      <point x="91" y="458" type="line" smooth="yes"/>
      <point x="125" y="464"/>
      <point x="151" y="435"/>
      <point x="160" y="408" type="curve"/>
      <point x="171" y="376"/>
      <point x="143" y="321"/>
      <point x="101" y="323" type="curve" smooth="yes"/>
      <point x="59" y="325"/>
      <point x="26" y="360"/>
      <point x="27" y="389" type="curve" smooth="yes"/>
      <point x="27" y="390"/>
      <point x="27" y="392"/>
      <point x="27" y="393" type="curve" smooth="yes"/>
      <point x="33" y="421"/>
      <point x="60" y="452"/>
      <point x="91" y="458" type="curve" smooth="yes"/>
    </contour>
  </outline>
</glyph>
<glyph name="cedilla" format="1">
  <advance width="286"/>
  <unicode hex="00B8"/>
  <outline>
    <contour>
      <point x="161" y="-8" type="curve" smooth="yes"/>
      <point x="161" y="-8"/>
      <point x="146" y="-55"/>
      <point x="138" y="-115" type="curve"/>
      <point x="115" y="-88" type="line"/>
      <point x="115" y="-88"/>
      <point x="221" y="-95"/>
      <point x="247" y="-141" type="curve" smooth="yes"/>
      <point x="273" y="-187"/>
      <point x="237" y="-225"/>
      <point x="121" y="-253" type="curve" smooth="yes"/>
      <point x="108" y="-256"/>
      <point x="95" y="-248"/>
      <point x="92" y="-236" type="curve" smooth="yes"/>
      <point x="89" y="-223"/>
      <point x="97" y="-210"/>
      <point x="109" y="-207" type="curve" smooth="yes"/>
      <point x="75" y="-215"/>
      <point x="223" y="-197"/>
      <point x="205" y="-165" type="curve" smooth="yes"/>
      <point x="187" y="-133"/>
      <point x="113" y="-136"/>
      <point x="113" y="-136" type="curve" smooth="yes"/>
      <point x="99" y="-136"/>
      <point x="88" y="-123"/>
      <point x="90" y="-109" type="curve" smooth="yes"/>
      <point x="100" y="-43"/>
      <point x="115" y="6"/>
      <point x="115" y="6" type="curve" smooth="yes"/>
      <point x="119" y="19"/>
      <point x="133" y="26"/>
      <point x="145" y="22" type="curve" smooth="yes"/>
      <point x="158" y="18"/>
      <point x="165" y="4"/>
    </contour>
  </outline>
</glyph>
<glyph name="ordmasculine" format="1">
  <advance width="424"/>
  <unicode hex="00BA"/>
  <outline>
    <contour>
      <point x="194" y="711" type="curve" smooth="yes"/>
      <point x="126" y="704"/>
      <point x="105" y="620"/>
      <point x="105" y="581" type="curve" smooth="yes"/>
      <point x="105" y="541"/>
      <point x="155" y="497"/>
      <point x="215" y="491" type="curve" smooth="yes"/>
      <point x="274" y="484"/>
      <point x="308" y="495"/>
      <point x="321" y="567" type="curve" smooth="yes"/>
      <point x="336" y="642"/>
      <point x="262" y="718"/>
    </contour>
    <contour>
      <point x="190" y="759" type="curve" smooth="yes"/>
      <point x="284" y="768"/>
      <point x="388" y="664"/>
      <point x="369" y="559" type="curve" smooth="yes"/>
      <point x="348" y="451"/>
      <point x="300" y="434"/>
      <point x="209" y="443" type="curve" smooth="yes"/>
      <point x="119" y="453"/>
      <point x="57" y="525"/>
      <point x="57" y="581" type="curve" smooth="yes"/>
      <point x="57" y="638"/>
      <point x="96" y="750"/>
    </contour>
  </outline>
</glyph>
<glyph name="guillemotright" format="1">
  <advance width="309"/>
  <unicode hex="00BB"/>
  <outline>
    <contour>
      <point x="151" y="387" type="curve" smooth="yes"/>
      <point x="163" y="418"/>
      <point x="225" y="461"/>
      <point x="225" y="461" type="curve"/>
      <point x="220" y="426" type="line"/>
      <point x="170" y="486" type="line" smooth="yes"/>
      <point x="161" y="496"/>
      <point x="163" y="511"/>
      <point x="173" y="519" type="curve" smooth="yes"/>
      <point x="183" y="528"/>
      <point x="198" y="526"/>
      <point x="206" y="516" type="curve" smooth="yes"/>
      <point x="256" y="456" type="line" smooth="yes"/>
      <point x="266" y="445"/>
      <point x="264" y="429"/>
      <point x="251" y="421" type="curve" smooth="yes"/>
      <point x="251" y="421"/>
      <point x="205" y="392"/>
      <point x="195" y="369" type="curve" smooth="yes"/>
      <point x="190" y="357"/>
      <point x="176" y="351"/>
      <point x="164" y="356" type="curve" smooth="yes"/>
      <point x="152" y="361"/>
      <point x="146" y="375"/>
    </contour>
    <contour>
      <point x="50" y="389" type="curve" smooth="yes"/>
      <point x="77" y="401"/>
      <point x="113" y="420"/>
      <point x="109" y="444" type="curve"/>
      <point x="116" y="431" type="line"/>
      <point x="116" y="431"/>
      <point x="60" y="486"/>
      <point x="60" y="486" type="curve" smooth="yes"/>
      <point x="51" y="495"/>
      <point x="51" y="511"/>
      <point x="60" y="520" type="curve" smooth="yes"/>
      <point x="69" y="529"/>
      <point x="85" y="529"/>
      <point x="94" y="520" type="curve" smooth="yes"/>
      <point x="94" y="520"/>
      <point x="150" y="465"/>
      <point x="150" y="465" type="curve" smooth="yes"/>
      <point x="153" y="462"/>
      <point x="156" y="456"/>
      <point x="157" y="452" type="curve" smooth="yes"/>
      <point x="163" y="412"/>
      <point x="125" y="369"/>
      <point x="68" y="345" type="curve" smooth="yes"/>
      <point x="57" y="340"/>
      <point x="42" y="346"/>
      <point x="37" y="358" type="curve" smooth="yes"/>
      <point x="32" y="369"/>
      <point x="38" y="384"/>
    </contour>
  </outline>
</glyph>
<glyph name="onehalf" format="1">
  <advance width="552"/>
  <unicode hex="00BD"/>
  <outline>
    <contour>
      <point x="141" y="704" type="curve" smooth="yes"/>
      <point x="147" y="614"/>
      <point x="155" y="522"/>
      <point x="159" y="436" type="curve" smooth="yes"/>
      <point x="160" y="423"/>
      <point x="149" y="412"/>
      <point x="136" y="411" type="curve" smooth="yes"/>
      <point x="123" y="410"/>
      <point x="112" y="421"/>
      <point x="111" y="434" type="curve" smooth="yes"/>
      <point x="107" y="520"/>
      <point x="99" y="612"/>
      <point x="93" y="700" type="curve" smooth="yes"/>
      <point x="92" y="713"/>
      <point x="102" y="725"/>
      <point x="115" y="726" type="curve" smooth="yes"/>
      <point x="128" y="727"/>
      <point x="140" y="717"/>
    </contour>
    <contour>
      <point x="476" y="604" type="curve" smooth="yes"/>
      <point x="330" y="501"/>
      <point x="93" y="309"/>
      <point x="75" y="138" type="curve" smooth="yes"/>
      <point x="73" y="126"/>
      <point x="61" y="116"/>
      <point x="48" y="117" type="curve" smooth="yes"/>
      <point x="36" y="119"/>
      <point x="26" y="131"/>
      <point x="27" y="144" type="curve" smooth="yes"/>
      <point x="47" y="325"/>
      <point x="292" y="533"/>
      <point x="448" y="644" type="curve" smooth="yes"/>
      <point x="459" y="651"/>
      <point x="474" y="648"/>
      <point x="482" y="638" type="curve" smooth="yes"/>
      <point x="489" y="627"/>
      <point x="486" y="612"/>
    </contour>
    <contour>
      <point x="285" y="406" type="curve" smooth="yes"/>
      <point x="366" y="468"/>
      <point x="430" y="467"/>
      <point x="449" y="421" type="curve" smooth="yes"/>
      <point x="468" y="379"/>
      <point x="451" y="287"/>
      <point x="316" y="169" type="curve"/>
      <point x="298" y="211" type="line"/>
      <point x="368" y="218"/>
      <point x="439" y="222"/>
      <point x="511" y="219" type="curve" smooth="yes"/>
      <point x="524" y="218"/>
      <point x="535" y="207"/>
      <point x="534" y="194" type="curve" smooth="yes"/>
      <point x="533" y="181"/>
      <point x="522" y="170"/>
      <point x="509" y="171" type="curve" smooth="yes"/>
      <point x="439" y="174"/>
      <point x="370" y="170"/>
      <point x="302" y="163" type="curve" smooth="yes"/>
      <point x="270" y="160"/>
      <point x="259" y="183"/>
      <point x="284" y="205" type="curve" smooth="yes"/>
      <point x="385" y="293"/>
      <point x="420" y="367"/>
      <point x="405" y="403" type="curve" smooth="yes"/>
      <point x="392" y="433"/>
      <point x="320" y="372"/>
      <point x="315" y="368" type="curve" smooth="yes"/>
      <point x="304" y="360"/>
      <point x="289" y="362"/>
      <point x="281" y="372" type="curve" smooth="yes"/>
      <point x="273" y="383"/>
      <point x="275" y="398"/>
    </contour>
  </outline>
</glyph>
